{
  "accessors": [
    {
      "bufferView": 0,
      "componentType": 5123,
      "type": "SCALAR",
      "count": 3264
    },
    {
      "bufferView": 1,
      "componentType": 5126,
      "type": "VEC3",
      "count": 2176,
      "min": [0, 0, 0],
      "max": [16, 16, 1]
    },
    {
      "bufferView": 1,
      "componentType": 5126,
      "type": "VEC3",
      "byteOffset": 12,
      "count": 2176
    },
    {
      "bufferView": 1,
      "componentType": 5121,
      "type": "VEC4",
      "normalized": true,
      "byteOffset": 24,
      "count": 2176
    },
    {
      "bufferView": 2,
      "componentType": 5123,
      "type": "SCALAR",
      "count": 2868
    },
    {
      "bufferView": 3,
      "componentType": 5126,
      "type": "VEC3",
      "count": 1912,
      "min": [0, 0, 0],
      "max": [14, 16, 1]
    },
    {
      "bufferView": 3,
      "componentType": 5126,
      "type": "VEC3",
      "byteOffset": 12,
      "count": 1912
    },
    {
      "bufferView": 3,
      "componentType": 5121,
      "type": "VEC4",
      "normalized": true,
      "byteOffset": 24,
      "count": 1912
    },
    {
      "bufferView": 4,
      "componentType": 5123,
      "type": "SCALAR",
      "count": 3168
    },
    {
      "bufferView": 5,
      "componentType": 5126,
      "type": "VEC3",
      "count": 2112,
      "min": [0, 0, 0],
      "max": [16, 16, 1]
    },
    {
      "bufferView": 5,
      "componentType": 5126,
      "type": "VEC3",
      "byteOffset": 12,
      "count": 2112
    },
    {
      "bufferView": 5,
      "componentType": 5121,
      "type": "VEC4",
      "normalized": true,
      "byteOffset": 24,
      "count": 2112
    },
    {
      "bufferView": 6,
      "componentType": 5123,
      "type": "SCALAR",
      "count": 2784
    },
    {
      "bufferView": 7,
      "componentType": 5126,
      "type": "VEC3",
      "count": 1856,
      "min": [0, 0, 0],
      "max": [14, 16, 1]
    },
    {
      "bufferView": 7,
      "componentType": 5126,
      "type": "VEC3",
      "byteOffset": 12,
      "count": 1856
    },
    {
      "bufferView": 7,
      "componentType": 5121,
      "type": "VEC4",
      "normalized": true,
      "byteOffset": 24,
      "count": 1856
    },
    {
      "bufferView": 8,
      "componentType": 5123,
      "type": "SCALAR",
      "count": 2076
    },
    {
      "bufferView": 9,
      "componentType": 5126,
      "type": "VEC3",
      "count": 1384,
      "min": [0, 0, 0],
      "max": [16, 10, 1]
    },
    {
      "bufferView": 9,
      "componentType": 5126,
      "type": "VEC3",
      "byteOffset": 12,
      "count": 1384
    },
    {
      "bufferView": 9,
      "componentType": 5121,
      "type": "VEC4",
      "normalized": true,
      "byteOffset": 24,
      "count": 1384
    },
    {
      "bufferView": 10,
      "componentType": 5123,
      "type": "SCALAR",
      "count": 1824
    },
    {
      "bufferView": 11,
      "componentType": 5126,
      "type": "VEC3",
      "count": 1216,
      "min": [0, 0, 0],
      "max": [14, 10, 1]
    },
    {
      "bufferView": 11,
      "componentType": 5126,
      "type": "VEC3",
      "byteOffset": 12,
      "count": 1216
    },
    {
      "bufferView": 11,
      "componentType": 5121,
      "type": "VEC4",
      "normalized": true,
      "byteOffset": 24,
      "count": 1216
    }
  ],
  "asset": {
    "generator": "goxel",
    "version": "2.0"
  },
  "bufferViews": [
    {
      "buffer": 1,
      "byteLength": 6528
    },
    {
      "buffer": 0,
      "byteLength": 69632,
      "byteStride": 32
    },
    {
      "buffer": 3,
      "byteLength": 5736
    },
    {
      "buffer": 2,
      "byteLength": 61184,
      "byteStride": 32
    },
    {
      "buffer": 5,
      "byteLength": 6336
    },
    {
      "buffer": 4,
      "byteLength": 67584,
      "byteStride": 32
    },
    {
      "buffer": 7,
      "byteLength": 5568
    },
    {
      "buffer": 6,
      "byteLength": 59392,
      "byteStride": 32
    },
    {
      "buffer": 9,
      "byteLength": 4152
    },
    {
      "buffer": 8,
      "byteLength": 44288,
      "byteStride": 32
    },
    {
      "buffer": 11,
      "byteLength": 3648
    },
    {
      "buffer": 10,
      "byteLength": 38912,
      "byteStride": 32
    }
  ],
  "buffers": [
    {
      "uri": "data:application/octet-stream;base64,",
      "byteLength": 69632
    },
    {
      "uri": "data:application/octet-stream;base64,",
      "byteLength": 6528
    },
    {
      "uri": "data:application/octet-stream;base64,",
      "byteLength": 61184
    },
    {
      "uri": "data:application/octet-stream;base64,",
      "byteLength": 5736
    },
    {
      "uri": "data:application/octet-stream;base64,",
      "byteLength": 67584
    },
    {
      "uri": "data:application/octet-stream;base64,",
      "byteLength": 6336
    },
    {
      "uri": "data:application/octet-stream;base64,",
      "byteLength": 59392
    },
    {
      "uri": "data:application/octet-stream;base64,",
      "byteLength": 5568
    },
    {
      "uri": "data:application/octet-stream;base64,",
      "byteLength": 44288
    },
    {
      "uri": "data:application/octet-stream;base64,",
      "byteLength": 4152
    },
    {
      "uri": "data:application/octet-stream;base64,",
      "byteLength": 38912
    },
    {
      "uri": "data:application/octet-stream;base64,",
      "byteLength": 3648
    }
  ],
  "meshes": [
    {
      "primitives": [
        {
          "indices": 0,
          "material": 2,
          "attributes": {
            "POSITION": 1,
            "NORMAL": 2,
            "COLOR_0": 3
          }
        }
      ]
    },
    {
      "primitives": [
        {
          "indices": 4,
          "material": 2,
          "attributes": {
            "POSITION": 5,
            "NORMAL": 6,
            "COLOR_0": 7
          }
        }
      ]
    },
    {
      "primitives": [
        {
          "indices": 8,
          "material": 2,
          "attributes": {
            "POSITION": 9,
            "NORMAL": 10,
            "COLOR_0": 11
          }
        }
      ]
    },
    {
      "primitives": [
        {
          "indices": 12,
          "material": 2,
          "attributes": {
            "POSITION": 13,
            "NORMAL": 14,
            "COLOR_0": 15
          }
        }
      ]
    },
    {
      "primitives": [
        {
          "indices": 16,
          "material": 2,
          "attributes": {
            "POSITION": 17,
            "NORMAL": 18,
            "COLOR_0": 19
          }
        }
      ]
    },
    {
      "primitives": [
        {
          "indices": 20,
          "material": 2,
          "attributes": {
            "POSITION": 21,
            "NORMAL": 22,
            "COLOR_0": 23
          }
        }
      ]
    }
  ],
  "materials": [
    {
      "name": "solid",
      "pbrMetallicRoughness": {
        "metallicFactor": 0.100000001,
        "roughnessFactor": 0.699999988
      }
    },
    {
      "name": "trans",
      "pbrMetallicRoughness": {
        "metallicFactor": 0.899999976,
        "roughnessFactor": 0.400000006,
        "baseColorFactor": [1, 1, 1, 0.400000006]
      }
    },
    {
      "name": "Material.1",
      "pbrMetallicRoughness": {
        "metallicFactor": 0.200000003,
        "roughnessFactor": 0.5
      }
    }
  ],
  "nodes": [
    {
      "children": [ 7 ],
      "matrix": [1, 0, 0, 0, 0, 0, -1, 0, 0, 1, 0, 0, 0, 0, 0, 1]
    },
    {
      "mesh": 0,
      "translation": [0, 0, 0]
    },
    {
      "mesh": 1,
      "translation": [16, 0, 0]
    },
    {
      "mesh": 2,
      "translation": [0, 16, 0]
    },
    {
      "mesh": 3,
      "translation": [16, 16, 0]
    },
    {
      "mesh": 4,
      "translation": [0, 32, 0]
    },
    {
      "mesh": 5,
      "translation": [16, 32, 0]
    },
    {
      "children": [ 1, 2, 3, 4, 5, 6 ]
    }
  ],
  "scenes": [
    {
      "nodes": [ 0 ]
    }
  ]
}
