{
  "accessors": [
    {
      "bufferView": 0,
      "componentType": 5126,
      "type": "VEC3",
      "count": 184,
      "min": [-16, -16, 0],
      "max": [-9, -9, 1]
    },
    {
      "bufferView": 0,
      "componentType": 5126,
      "type": "VEC3",
      "byteOffset": 12,
      "count": 184
    },
    {
      "bufferView": 0,
      "componentType": 5126,
      "type": "VEC4",
      "byteOffset": 24,
      "count": 184
    },
    {
      "bufferView": 1,
      "componentType": 5125,
      "type": "SCALAR",
      "count": 372
    },
    {
      "bufferView": 2,
      "componentType": 5126,
      "type": "VEC3",
      "count": 180,
      "min": [-15, -15, 1],
      "max": [-10, -10, 4]
    },
    {
      "bufferView": 2,
      "componentType": 5126,
      "type": "VEC3",
      "byteOffset": 12,
      "count": 180
    },
    {
      "bufferView": 2,
      "componentType": 5126,
      "type": "VEC4",
      "byteOffset": 24,
      "count": 180
    },
    {
      "bufferView": 3,
      "componentType": 5125,
      "type": "SCALAR",
      "count": 348
    }
  ],
  "asset": {
    "generator": "goxel",
    "version": "2.0"
  },
  "bufferViews": [
    {
      "buffer": 0,
      "byteLength": 7360,
      "byteStride": 40
    },
    {
      "buffer": 1,
      "byteLength": 1488
    },
    {
      "buffer": 2,
      "byteLength": 7200,
      "byteStride": 40
    },
    {
      "buffer": 3,
      "byteLength": 1392
    }
  ],
  "buffers": [
    {
      "uri": "data:application/octet-stream;base64,",
      "byteLength": 7360
    },
    {
      "uri": "data:application/octet-stream;base64,",
      "byteLength": 1488
    },
    {
      "uri": "data:application/octet-stream;base64,",
      "byteLength": 7200
    },
    {
      "uri": "data:application/octet-stream;base64,",
      "byteLength": 1392
    }
  ],
  "meshes": [
    {
      "primitives": [
        {
          "indices": 3,
          "material": 0,
          "attributes": {
            "POSITION": 0,
            "NORMAL": 1,
            "COLOR_0": 2
          }
        }
      ]
    },
    {
      "primitives": [
        {
          "indices": 7,
          "material": 0,
          "attributes": {
            "POSITION": 4,
            "NORMAL": 5,
            "COLOR_0": 6
          }
        }
      ]
    }
  ],
  "materials": [
    {
      "name": "Material.1",
      "pbrMetallicRoughness": {
        "metallicFactor": 0.200000003,
        "roughnessFactor": 0.5
      }
    }
  ],
  "nodes": [
    {
      "children": [ 1, 2 ],
      "matrix": [1, 0, 0, 0, 0, 0, -1, 0, 0, 1, 0, 0, 0, 0, 0, 1]
    },
    {
      "mesh": 0,
      "name": "Layer.1"
    },
    {
      "mesh": 1,
      "name": "rice"
    }
  ],
  "scenes": [
    {
      "nodes": [ 0 ]
    }
  ]
}
