{
  "accessors": [
    {
      "bufferView": 0,
      "componentType": 5123,
      "type": "SCALAR",
      "count": 5394
    },
    {
      "bufferView": 1,
      "componentType": 5126,
      "type": "VEC3",
      "count": 3596,
      "min": [0, 0, 0],
      "max": [16, 16, 13]
    },
    {
      "bufferView": 1,
      "componentType": 5126,
      "type": "VEC3",
      "byteOffset": 12,
      "count": 3596
    },
    {
      "bufferView": 1,
      "componentType": 5121,
      "type": "VEC4",
      "normalized": true,
      "byteOffset": 24,
      "count": 3596
    },
    {
      "bufferView": 2,
      "componentType": 5123,
      "type": "SCALAR",
      "count": 3552
    },
    {
      "bufferView": 3,
      "componentType": 5126,
      "type": "VEC3",
      "count": 2368,
      "min": [0, 0, 4],
      "max": [16, 16, 7]
    },
    {
      "bufferView": 3,
      "componentType": 5126,
      "type": "VEC3",
      "byteOffset": 12,
      "count": 2368
    },
    {
      "bufferView": 3,
      "componentType": 5121,
      "type": "VEC4",
      "normalized": true,
      "byteOffset": 24,
      "count": 2368
    },
    {
      "bufferView": 4,
      "componentType": 5123,
      "type": "SCALAR",
      "count": 3294
    },
    {
      "bufferView": 5,
      "componentType": 5126,
      "type": "VEC3",
      "count": 2196,
      "min": [0, 0, 0],
      "max": [9, 16, 10]
    },
    {
      "bufferView": 5,
      "componentType": 5126,
      "type": "VEC3",
      "byteOffset": 12,
      "count": 2196
    },
    {
      "bufferView": 5,
      "componentType": 5121,
      "type": "VEC4",
      "normalized": true,
      "byteOffset": 24,
      "count": 2196
    },
    {
      "bufferView": 6,
      "componentType": 5123,
      "type": "SCALAR",
      "count": 1632
    },
    {
      "bufferView": 7,
      "componentType": 5126,
      "type": "VEC3",
      "count": 1088,
      "min": [0, 0, 4],
      "max": [16, 6, 7]
    },
    {
      "bufferView": 7,
      "componentType": 5126,
      "type": "VEC3",
      "byteOffset": 12,
      "count": 1088
    },
    {
      "bufferView": 7,
      "componentType": 5121,
      "type": "VEC4",
      "normalized": true,
      "byteOffset": 24,
      "count": 1088
    },
    {
      "bufferView": 8,
      "componentType": 5123,
      "type": "SCALAR",
      "count": 1434
    },
    {
      "bufferView": 9,
      "componentType": 5126,
      "type": "VEC3",
      "count": 956,
      "min": [0, 0, 0],
      "max": [9, 6, 10]
    },
    {
      "bufferView": 9,
      "componentType": 5126,
      "type": "VEC3",
      "byteOffset": 12,
      "count": 956
    },
    {
      "bufferView": 9,
      "componentType": 5121,
      "type": "VEC4",
      "normalized": true,
      "byteOffset": 24,
      "count": 956
    },
    {
      "bufferView": 10,
      "componentType": 5123,
      "type": "SCALAR",
      "count": 2334
    },
    {
      "bufferView": 11,
      "componentType": 5126,
      "type": "VEC3",
      "count": 1556,
      "min": [0, 0, 0],
      "max": [16, 6, 13]
    },
    {
      "bufferView": 11,
      "componentType": 5126,
      "type": "VEC3",
      "byteOffset": 12,
      "count": 1556
    },
    {
      "bufferView": 11,
      "componentType": 5121,
      "type": "VEC4",
      "normalized": true,
      "byteOffset": 24,
      "count": 1556
    },
    {
      "bufferView": 12,
      "componentType": 5123,
      "type": "SCALAR",
      "count": 3060
    },
    {
      "bufferView": 13,
      "componentType": 5126,
      "type": "VEC3",
      "count": 2040,
      "min": [1, 1, 7],
      "max": [16, 16, 9]
    },
    {
      "bufferView": 13,
      "componentType": 5126,
      "type": "VEC3",
      "byteOffset": 12,
      "count": 2040
    },
    {
      "bufferView": 13,
      "componentType": 5121,
      "type": "VEC4",
      "normalized": true,
      "byteOffset": 24,
      "count": 2040
    },
    {
      "bufferView": 14,
      "componentType": 5123,
      "type": "SCALAR",
      "count": 3072
    },
    {
      "bufferView": 15,
      "componentType": 5126,
      "type": "VEC3",
      "count": 2048,
      "min": [0, 1, 7],
      "max": [16, 16, 9]
    },
    {
      "bufferView": 15,
      "componentType": 5126,
      "type": "VEC3",
      "byteOffset": 12,
      "count": 2048
    },
    {
      "bufferView": 15,
      "componentType": 5121,
      "type": "VEC4",
      "normalized": true,
      "byteOffset": 24,
      "count": 2048
    },
    {
      "bufferView": 16,
      "componentType": 5123,
      "type": "SCALAR",
      "count": 1716
    },
    {
      "bufferView": 17,
      "componentType": 5126,
      "type": "VEC3",
      "count": 1144,
      "min": [0, 1, 7],
      "max": [8, 16, 9]
    },
    {
      "bufferView": 17,
      "componentType": 5126,
      "type": "VEC3",
      "byteOffset": 12,
      "count": 1144
    },
    {
      "bufferView": 17,
      "componentType": 5121,
      "type": "VEC4",
      "normalized": true,
      "byteOffset": 24,
      "count": 1144
    },
    {
      "bufferView": 18,
      "componentType": 5123,
      "type": "SCALAR",
      "count": 1140
    },
    {
      "bufferView": 19,
      "componentType": 5126,
      "type": "VEC3",
      "count": 760,
      "min": [1, 0, 7],
      "max": [16, 5, 9]
    },
    {
      "bufferView": 19,
      "componentType": 5126,
      "type": "VEC3",
      "byteOffset": 12,
      "count": 760
    },
    {
      "bufferView": 19,
      "componentType": 5121,
      "type": "VEC4",
      "normalized": true,
      "byteOffset": 24,
      "count": 760
    },
    {
      "bufferView": 20,
      "componentType": 5123,
      "type": "SCALAR",
      "count": 1152
    },
    {
      "bufferView": 21,
      "componentType": 5126,
      "type": "VEC3",
      "count": 768,
      "min": [0, 0, 7],
      "max": [16, 5, 9]
    },
    {
      "bufferView": 21,
      "componentType": 5126,
      "type": "VEC3",
      "byteOffset": 12,
      "count": 768
    },
    {
      "bufferView": 21,
      "componentType": 5121,
      "type": "VEC4",
      "normalized": true,
      "byteOffset": 24,
      "count": 768
    },
    {
      "bufferView": 22,
      "componentType": 5123,
      "type": "SCALAR",
      "count": 636
    },
    {
      "bufferView": 23,
      "componentType": 5126,
      "type": "VEC3",
      "count": 424,
      "min": [0, 0, 7],
      "max": [8, 5, 9]
    },
    {
      "bufferView": 23,
      "componentType": 5126,
      "type": "VEC3",
      "byteOffset": 12,
      "count": 424
    },
    {
      "bufferView": 23,
      "componentType": 5121,
      "type": "VEC4",
      "normalized": true,
      "byteOffset": 24,
      "count": 424
    },
    {
      "bufferView": 24,
      "componentType": 5123,
      "type": "SCALAR",
      "count": 822
    },
    {
      "bufferView": 25,
      "componentType": 5126,
      "type": "VEC3",
      "count": 548,
      "min": [2, 5, 9],
      "max": [7, 16, 10]
    },
    {
      "bufferView": 25,
      "componentType": 5126,
      "type": "VEC3",
      "byteOffset": 12,
      "count": 548
    },
    {
      "bufferView": 25,
      "componentType": 5121,
      "type": "VEC4",
      "normalized": true,
      "byteOffset": 24,
      "count": 548
    },
    {
      "bufferView": 26,
      "componentType": 5123,
      "type": "SCALAR",
      "count": 102
    },
    {
      "bufferView": 27,
      "componentType": 5126,
      "type": "VEC3",
      "count": 68,
      "min": [2, 0, 9],
      "max": [7, 1, 10]
    },
    {
      "bufferView": 27,
      "componentType": 5126,
      "type": "VEC3",
      "byteOffset": 12,
      "count": 68
    },
    {
      "bufferView": 27,
      "componentType": 5121,
      "type": "VEC4",
      "normalized": true,
      "byteOffset": 24,
      "count": 68
    }
  ],
  "asset": {
    "generator": "goxel",
    "version": "2.0"
  },
  "bufferViews": [
    {
      "buffer": 1,
      "byteLength": 10788
    },
    {
      "buffer": 0,
      "byteLength": 115072,
      "byteStride": 32
    },
    {
      "buffer": 3,
      "byteLength": 7104
    },
    {
      "buffer": 2,
      "byteLength": 75776,
      "byteStride": 32
    },
    {
      "buffer": 5,
      "byteLength": 6588
    },
    {
      "buffer": 4,
      "byteLength": 70272,
      "byteStride": 32
    },
    {
      "buffer": 7,
      "byteLength": 3264
    },
    {
      "buffer": 6,
      "byteLength": 34816,
      "byteStride": 32
    },
    {
      "buffer": 9,
      "byteLength": 2868
    },
    {
      "buffer": 8,
      "byteLength": 30592,
      "byteStride": 32
    },
    {
      "buffer": 11,
      "byteLength": 4668
    },
    {
      "buffer": 10,
      "byteLength": 49792,
      "byteStride": 32
    },
    {
      "buffer": 13,
      "byteLength": 6120
    },
    {
      "buffer": 12,
      "byteLength": 65280,
      "byteStride": 32
    },
    {
      "buffer": 15,
      "byteLength": 6144
    },
    {
      "buffer": 14,
      "byteLength": 65536,
      "byteStride": 32
    },
    {
      "buffer": 17,
      "byteLength": 3432
    },
    {
      "buffer": 16,
      "byteLength": 36608,
      "byteStride": 32
    },
    {
      "buffer": 19,
      "byteLength": 2280
    },
    {
      "buffer": 18,
      "byteLength": 24320,
      "byteStride": 32
    },
    {
      "buffer": 21,
      "byteLength": 2304
    },
    {
      "buffer": 20,
      "byteLength": 24576,
      "byteStride": 32
    },
    {
      "buffer": 23,
      "byteLength": 1272
    },
    {
      "buffer": 22,
      "byteLength": 13568,
      "byteStride": 32
    },
    {
      "buffer": 25,
      "byteLength": 1644
    },
    {
      "buffer": 24,
      "byteLength": 17536,
      "byteStride": 32
    },
    {
      "buffer": 27,
      "byteLength": 204
    },
    {
      "buffer": 26,
      "byteLength": 2176,
      "byteStride": 32
    }
  ],
  "buffers": [
    {
      "uri": "data:application/octet-stream;base64,",
      "byteLength": 115072
    },
    {
      "uri": "data:application/octet-stream;base64,",
      "byteLength": 10788
    },
    {
      "uri": "data:application/octet-stream;base64,",
      "byteLength": 75776
    },
    {
      "uri": "data:application/octet-stream;base64,",
      "byteLength": 7104
    },
    {
      "uri": "data:application/octet-stream;base64,",
      "byteLength": 70272
    },
    {
      "uri": "data:application/octet-stream;base64,",
      "byteLength": 6588
    },
    {
      "uri": "data:application/octet-stream;base64,",
      "byteLength": 34816
    },
    {
      "uri": "data:application/octet-stream;base64,",
      "byteLength": 3264
    },
    {
      "uri": "data:application/octet-stream;base64,",
      "byteLength": 30592
    },
    {
      "uri": "data:application/octet-stream;base64,",
      "byteLength": 2868
    },
    {
      "uri": "data:application/octet-stream;base64,",
      "byteLength": 49792
    },
    {
      "uri": "data:application/octet-stream;base64,",
      "byteLength": 4668
    },
    {
      "uri": "data:application/octet-stream;base64,",
      "byteLength": 65280
    },
    {
      "uri": "data:application/octet-stream;base64,",
      "byteLength": 6120
    },
    {
      "uri": "data:application/octet-stream;base64,",
      "byteLength": 65536
    },
    {
      "uri": "data:application/octet-stream;base64,",
      "byteLength": 6144
    },
    {
      "uri": "data:application/octet-stream;base64,",
      "byteLength": 36608
    },
    {
      "uri": "data:application/octet-stream;base64,",
      "byteLength": 3432
    },
    {
      "uri": "data:application/octet-stream;base64,",
      "byteLength": 24320
    },
    {
      "uri": "data:application/octet-stream;base64,",
      "byteLength": 2280
    },
    {
      "uri": "data:application/octet-stream;base64,",
      "byteLength": 24576
    },
    {
      "uri": "data:application/octet-stream;base64,",
      "byteLength": 2304
    },
    {
      "uri": "data:application/octet-stream;base64,",
      "byteLength": 13568
    },
    {
      "uri": "data:application/octet-stream;base64,",
      "byteLength": 1272
    },
    {
      "uri": "data:application/octet-stream;base64,",
      "byteLength": 17536
    },
    {
      "uri": "data:application/octet-stream;base64,",
      "byteLength": 1644
    },
    {
      "uri": "data:application/octet-stream;base64,",
      "byteLength": 2176
    },
    {
      "uri": "data:application/octet-stream;base64,",
      "byteLength": 204
    }
  ],
  "meshes": [
    {
      "primitives": [
        {
          "indices": 0,
          "material": 0,
          "attributes": {
            "POSITION": 1,
            "NORMAL": 2,
            "COLOR_0": 3
          }
        }
      ]
    },
    {
      "primitives": [
        {
          "indices": 4,
          "material": 0,
          "attributes": {
            "POSITION": 5,
            "NORMAL": 6,
            "COLOR_0": 7
          }
        }
      ]
    },
    {
      "primitives": [
        {
          "indices": 8,
          "material": 0,
          "attributes": {
            "POSITION": 9,
            "NORMAL": 10,
            "COLOR_0": 11
          }
        }
      ]
    },
    {
      "primitives": [
        {
          "indices": 12,
          "material": 0,
          "attributes": {
            "POSITION": 13,
            "NORMAL": 14,
            "COLOR_0": 15
          }
        }
      ]
    },
    {
      "primitives": [
        {
          "indices": 16,
          "material": 0,
          "attributes": {
            "POSITION": 17,
            "NORMAL": 18,
            "COLOR_0": 19
          }
        }
      ]
    },
    {
      "primitives": [
        {
          "indices": 20,
          "material": 0,
          "attributes": {
            "POSITION": 21,
            "NORMAL": 22,
            "COLOR_0": 23
          }
        }
      ]
    },
    {
      "primitives": [
        {
          "indices": 24,
          "material": 0,
          "attributes": {
            "POSITION": 25,
            "NORMAL": 26,
            "COLOR_0": 27
          }
        }
      ]
    },
    {
      "primitives": [
        {
          "indices": 28,
          "material": 0,
          "attributes": {
            "POSITION": 29,
            "NORMAL": 30,
            "COLOR_0": 31
          }
        }
      ]
    },
    {
      "primitives": [
        {
          "indices": 32,
          "material": 0,
          "attributes": {
            "POSITION": 33,
            "NORMAL": 34,
            "COLOR_0": 35
          }
        }
      ]
    },
    {
      "primitives": [
        {
          "indices": 36,
          "material": 0,
          "attributes": {
            "POSITION": 37,
            "NORMAL": 38,
            "COLOR_0": 39
          }
        }
      ]
    },
    {
      "primitives": [
        {
          "indices": 40,
          "material": 0,
          "attributes": {
            "POSITION": 41,
            "NORMAL": 42,
            "COLOR_0": 43
          }
        }
      ]
    },
    {
      "primitives": [
        {
          "indices": 44,
          "material": 0,
          "attributes": {
            "POSITION": 45,
            "NORMAL": 46,
            "COLOR_0": 47
          }
        }
      ]
    },
    {
      "primitives": [
        {
          "indices": 48,
          "material": 0,
          "attributes": {
            "POSITION": 49,
            "NORMAL": 50,
            "COLOR_0": 51
          }
        }
      ]
    },
    {
      "primitives": [
        {
          "indices": 52,
          "material": 0,
          "attributes": {
            "POSITION": 53,
            "NORMAL": 54,
            "COLOR_0": 55
          }
        }
      ]
    }
  ],
  "materials": [
    {
      "name": "Material.1",
      "pbrMetallicRoughness": {
        "metallicFactor": 0.200000003,
        "roughnessFactor": 0.5
      }
    }
  ],
  "nodes": [
    {
      "children": [ 7, 14, 17 ],
      "matrix": [1, 0, 0, 0, 0, 0, -1, 0, 0, 1, 0, 0, 0, 0, 0, 1]
    },
    {
      "mesh": 0,
      "translation": [0, 0, 0]
    },
    {
      "mesh": 1,
      "translation": [16, 0, 0]
    },
    {
      "mesh": 2,
      "translation": [32, 0, 0]
    },
    {
      "mesh": 3,
      "translation": [16, 16, 0]
    },
    {
      "mesh": 4,
      "translation": [32, 16, 0]
    },
    {
      "mesh": 5,
      "translation": [0, 16, 0]
    },
    {
      "children": [ 1, 2, 3, 4, 5, 6 ]
    },
    {
      "mesh": 6,
      "translation": [0, 0, 0]
    },
    {
      "mesh": 7,
      "translation": [16, 0, 0]
    },
    {
      "mesh": 8,
      "translation": [32, 0, 0]
    },
    {
      "mesh": 9,
      "translation": [0, 16, 0]
    },
    {
      "mesh": 10,
      "translation": [16, 16, 0]
    },
    {
      "mesh": 11,
      "translation": [32, 16, 0]
    },
    {
      "children": [ 8, 9, 10, 11, 12, 13 ]
    },
    {
      "mesh": 12,
      "translation": [0, 0, 0]
    },
    {
      "mesh": 13,
      "translation": [0, 16, 0]
    },
    {
      "children": [ 15, 16 ]
    }
  ],
  "scenes": [
    {
      "nodes": [ 0 ]
    }
  ]
}
