{
  "accessors": [
    {
      "bufferView": 0,
      "componentType": 5126,
      "type": "VEC3",
      "count": 382,
      "min": [3, 2, 16],
      "max": [10, 10, 26]
    },
    {
      "bufferView": 0,
      "componentType": 5126,
      "type": "VEC3",
      "byteOffset": 12,
      "count": 382
    },
    {
      "bufferView": 0,
      "componentType": 5126,
      "type": "VEC4",
      "byteOffset": 24,
      "count": 382
    },
    {
      "bufferView": 1,
      "componentType": 5125,
      "type": "SCALAR",
      "count": 870
    },
    {
      "bufferView": 2,
      "componentType": 5126,
      "type": "VEC3",
      "count": 97,
      "min": [5, 3, 8],
      "max": [7, 9, 16]
    },
    {
      "bufferView": 2,
      "componentType": 5126,
      "type": "VEC3",
      "byteOffset": 12,
      "count": 97
    },
    {
      "bufferView": 2,
      "componentType": 5126,
      "type": "VEC4",
      "byteOffset": 24,
      "count": 97
    },
    {
      "bufferView": 3,
      "componentType": 5125,
      "type": "SCALAR",
      "count": 270
    },
    {
      "bufferView": 4,
      "componentType": 5126,
      "type": "VEC3",
      "count": 40,
      "min": [5, 9, 6],
      "max": [7, 10, 10]
    },
    {
      "bufferView": 4,
      "componentType": 5126,
      "type": "VEC3",
      "byteOffset": 12,
      "count": 40
    },
    {
      "bufferView": 4,
      "componentType": 5126,
      "type": "VEC4",
      "byteOffset": 24,
      "count": 40
    },
    {
      "bufferView": 5,
      "componentType": 5125,
      "type": "SCALAR",
      "count": 84
    },
    {
      "bufferView": 6,
      "componentType": 5126,
      "type": "VEC3",
      "count": 40,
      "min": [5, 2, 6],
      "max": [7, 3, 10]
    },
    {
      "bufferView": 6,
      "componentType": 5126,
      "type": "VEC3",
      "byteOffset": 12,
      "count": 40
    },
    {
      "bufferView": 6,
      "componentType": 5126,
      "type": "VEC4",
      "byteOffset": 24,
      "count": 40
    },
    {
      "bufferView": 7,
      "componentType": 5125,
      "type": "SCALAR",
      "count": 84
    },
    {
      "bufferView": 8,
      "componentType": 5126,
      "type": "VEC3",
      "count": 60,
      "min": [5, 2, 10],
      "max": [7, 3, 15]
    },
    {
      "bufferView": 8,
      "componentType": 5126,
      "type": "VEC3",
      "byteOffset": 12,
      "count": 60
    },
    {
      "bufferView": 8,
      "componentType": 5126,
      "type": "VEC4",
      "byteOffset": 24,
      "count": 60
    },
    {
      "bufferView": 9,
      "componentType": 5125,
      "type": "SCALAR",
      "count": 120
    },
    {
      "bufferView": 10,
      "componentType": 5126,
      "type": "VEC3",
      "count": 158,
      "min": [4, 2, 2],
      "max": [8, 4, 7]
    },
    {
      "bufferView": 10,
      "componentType": 5126,
      "type": "VEC3",
      "byteOffset": 12,
      "count": 158
    },
    {
      "bufferView": 10,
      "componentType": 5126,
      "type": "VEC4",
      "byteOffset": 24,
      "count": 158
    },
    {
      "bufferView": 11,
      "componentType": 5125,
      "type": "SCALAR",
      "count": 288
    },
    {
      "bufferView": 12,
      "componentType": 5126,
      "type": "VEC3",
      "count": 52,
      "min": [5, 3, 5],
      "max": [7, 9, 8]
    },
    {
      "bufferView": 12,
      "componentType": 5126,
      "type": "VEC3",
      "byteOffset": 12,
      "count": 52
    },
    {
      "bufferView": 12,
      "componentType": 5126,
      "type": "VEC4",
      "byteOffset": 24,
      "count": 52
    },
    {
      "bufferView": 13,
      "componentType": 5125,
      "type": "SCALAR",
      "count": 126
    },
    {
      "bufferView": 14,
      "componentType": 5126,
      "type": "VEC3",
      "count": 48,
      "min": [5, 3, 2],
      "max": [7, 5, 5]
    },
    {
      "bufferView": 14,
      "componentType": 5126,
      "type": "VEC3",
      "byteOffset": 12,
      "count": 48
    },
    {
      "bufferView": 14,
      "componentType": 5126,
      "type": "VEC4",
      "byteOffset": 24,
      "count": 48
    },
    {
      "bufferView": 15,
      "componentType": 5125,
      "type": "SCALAR",
      "count": 108
    },
    {
      "bufferView": 16,
      "componentType": 5126,
      "type": "VEC3",
      "count": 72,
      "min": [5, 3, -1],
      "max": [7, 5, 2]
    },
    {
      "bufferView": 16,
      "componentType": 5126,
      "type": "VEC3",
      "byteOffset": 12,
      "count": 72
    },
    {
      "bufferView": 16,
      "componentType": 5126,
      "type": "VEC4",
      "byteOffset": 24,
      "count": 72
    },
    {
      "bufferView": 17,
      "componentType": 5125,
      "type": "SCALAR",
      "count": 156
    },
    {
      "bufferView": 18,
      "componentType": 5126,
      "type": "VEC3",
      "count": 40,
      "min": [5, 3, -2],
      "max": [9, 5, -1]
    },
    {
      "bufferView": 18,
      "componentType": 5126,
      "type": "VEC3",
      "byteOffset": 12,
      "count": 40
    },
    {
      "bufferView": 18,
      "componentType": 5126,
      "type": "VEC4",
      "byteOffset": 24,
      "count": 40
    },
    {
      "bufferView": 19,
      "componentType": 5125,
      "type": "SCALAR",
      "count": 84
    },
    {
      "bufferView": 20,
      "componentType": 5126,
      "type": "VEC3",
      "count": 48,
      "min": [5, 7, 2],
      "max": [7, 9, 5]
    },
    {
      "bufferView": 20,
      "componentType": 5126,
      "type": "VEC3",
      "byteOffset": 12,
      "count": 48
    },
    {
      "bufferView": 20,
      "componentType": 5126,
      "type": "VEC4",
      "byteOffset": 24,
      "count": 48
    },
    {
      "bufferView": 21,
      "componentType": 5125,
      "type": "SCALAR",
      "count": 108
    },
    {
      "bufferView": 22,
      "componentType": 5126,
      "type": "VEC3",
      "count": 72,
      "min": [5, 7, -1],
      "max": [7, 9, 2]
    },
    {
      "bufferView": 22,
      "componentType": 5126,
      "type": "VEC3",
      "byteOffset": 12,
      "count": 72
    },
    {
      "bufferView": 22,
      "componentType": 5126,
      "type": "VEC4",
      "byteOffset": 24,
      "count": 72
    },
    {
      "bufferView": 23,
      "componentType": 5125,
      "type": "SCALAR",
      "count": 156
    },
    {
      "bufferView": 24,
      "componentType": 5126,
      "type": "VEC3",
      "count": 40,
      "min": [5, 7, -2],
      "max": [9, 9, -1]
    },
    {
      "bufferView": 24,
      "componentType": 5126,
      "type": "VEC3",
      "byteOffset": 12,
      "count": 40
    },
    {
      "bufferView": 24,
      "componentType": 5126,
      "type": "VEC4",
      "byteOffset": 24,
      "count": 40
    },
    {
      "bufferView": 25,
      "componentType": 5125,
      "type": "SCALAR",
      "count": 84
    },
    {
      "bufferView": 26,
      "componentType": 5126,
      "type": "VEC3",
      "count": 60,
      "min": [5, 9, 10],
      "max": [7, 10, 15]
    },
    {
      "bufferView": 26,
      "componentType": 5126,
      "type": "VEC3",
      "byteOffset": 12,
      "count": 60
    },
    {
      "bufferView": 26,
      "componentType": 5126,
      "type": "VEC4",
      "byteOffset": 24,
      "count": 60
    },
    {
      "bufferView": 27,
      "componentType": 5125,
      "type": "SCALAR",
      "count": 120
    }
  ],
  "asset": {
    "generator": "goxel",
    "version": "2.0"
  },
  "bufferViews": [
    {
      "buffer": 0,
      "byteLength": 15280,
      "byteStride": 40
    },
    {
      "buffer": 1,
      "byteLength": 3480
    },
    {
      "buffer": 2,
      "byteLength": 3880,
      "byteStride": 40
    },
    {
      "buffer": 3,
      "byteLength": 1080
    },
    {
      "buffer": 4,
      "byteLength": 1600,
      "byteStride": 40
    },
    {
      "buffer": 5,
      "byteLength": 336
    },
    {
      "buffer": 6,
      "byteLength": 1600,
      "byteStride": 40
    },
    {
      "buffer": 7,
      "byteLength": 336
    },
    {
      "buffer": 8,
      "byteLength": 2400,
      "byteStride": 40
    },
    {
      "buffer": 9,
      "byteLength": 480
    },
    {
      "buffer": 10,
      "byteLength": 6320,
      "byteStride": 40
    },
    {
      "buffer": 11,
      "byteLength": 1152
    },
    {
      "buffer": 12,
      "byteLength": 2080,
      "byteStride": 40
    },
    {
      "buffer": 13,
      "byteLength": 504
    },
    {
      "buffer": 14,
      "byteLength": 1920,
      "byteStride": 40
    },
    {
      "buffer": 15,
      "byteLength": 432
    },
    {
      "buffer": 16,
      "byteLength": 2880,
      "byteStride": 40
    },
    {
      "buffer": 17,
      "byteLength": 624
    },
    {
      "buffer": 18,
      "byteLength": 1600,
      "byteStride": 40
    },
    {
      "buffer": 19,
      "byteLength": 336
    },
    {
      "buffer": 20,
      "byteLength": 1920,
      "byteStride": 40
    },
    {
      "buffer": 21,
      "byteLength": 432
    },
    {
      "buffer": 22,
      "byteLength": 2880,
      "byteStride": 40
    },
    {
      "buffer": 23,
      "byteLength": 624
    },
    {
      "buffer": 24,
      "byteLength": 1600,
      "byteStride": 40
    },
    {
      "buffer": 25,
      "byteLength": 336
    },
    {
      "buffer": 26,
      "byteLength": 2400,
      "byteStride": 40
    },
    {
      "buffer": 27,
      "byteLength": 480
    }
  ],
  "buffers": [
    {
      "uri": "data:application/octet-stream;base64,",
      "byteLength": 15280
    },
    {
      "uri": "data:application/octet-stream;base64,",
      "byteLength": 3480
    },
    {
      "uri": "data:application/octet-stream;base64,",
      "byteLength": 3880
    },
    {
      "uri": "data:application/octet-stream;base64,",
      "byteLength": 1080
    },
    {
      "uri": "data:application/octet-stream;base64,",
      "byteLength": 1600
    },
    {
      "uri": "data:application/octet-stream;base64,",
      "byteLength": 336
    },
    {
      "uri": "data:application/octet-stream;base64,",
      "byteLength": 1600
    },
    {
      "uri": "data:application/octet-stream;base64,",
      "byteLength": 336
    },
    {
      "uri": "data:application/octet-stream;base64,",
      "byteLength": 2400
    },
    {
      "uri": "data:application/octet-stream;base64,",
      "byteLength": 480
    },
    {
      "uri": "data:application/octet-stream;base64,",
      "byteLength": 6320
    },
    {
      "uri": "data:application/octet-stream;base64,",
      "byteLength": 1152
    },
    {
      "uri": "data:application/octet-stream;base64,",
      "byteLength": 2080
    },
    {
      "uri": "data:application/octet-stream;base64,",
      "byteLength": 504
    },
    {
      "uri": "data:application/octet-stream;base64,",
      "byteLength": 1920
    },
    {
      "uri": "data:application/octet-stream;base64,",
      "byteLength": 432
    },
    {
      "uri": "data:application/octet-stream;base64,",
      "byteLength": 2880
    },
    {
      "uri": "data:application/octet-stream;base64,",
      "byteLength": 624
    },
    {
      "uri": "data:application/octet-stream;base64,",
      "byteLength": 1600
    },
    {
      "uri": "data:application/octet-stream;base64,",
      "byteLength": 336
    },
    {
      "uri": "data:application/octet-stream;base64,",
      "byteLength": 1920
    },
    {
      "uri": "data:application/octet-stream;base64,",
      "byteLength": 432
    },
    {
      "uri": "data:application/octet-stream;base64,",
      "byteLength": 2880
    },
    {
      "uri": "data:application/octet-stream;base64,",
      "byteLength": 624
    },
    {
      "uri": "data:application/octet-stream;base64,",
      "byteLength": 1600
    },
    {
      "uri": "data:application/octet-stream;base64,",
      "byteLength": 336
    },
    {
      "uri": "data:application/octet-stream;base64,",
      "byteLength": 2400
    },
    {
      "uri": "data:application/octet-stream;base64,",
      "byteLength": 480
    }
  ],
  "meshes": [
    {
      "primitives": [
        {
          "indices": 3,
          "material": 0,
          "attributes": {
            "POSITION": 0,
            "NORMAL": 1,
            "COLOR_0": 2
          }
        }
      ]
    },
    {
      "primitives": [
        {
          "indices": 7,
          "material": 0,
          "attributes": {
            "POSITION": 4,
            "NORMAL": 5,
            "COLOR_0": 6
          }
        }
      ]
    },
    {
      "primitives": [
        {
          "indices": 11,
          "material": 0,
          "attributes": {
            "POSITION": 8,
            "NORMAL": 9,
            "COLOR_0": 10
          }
        }
      ]
    },
    {
      "primitives": [
        {
          "indices": 15,
          "material": 0,
          "attributes": {
            "POSITION": 12,
            "NORMAL": 13,
            "COLOR_0": 14
          }
        }
      ]
    },
    {
      "primitives": [
        {
          "indices": 19,
          "material": 0,
          "attributes": {
            "POSITION": 16,
            "NORMAL": 17,
            "COLOR_0": 18
          }
        }
      ]
    },
    {
      "primitives": [
        {
          "indices": 23,
          "material": 0,
          "attributes": {
            "POSITION": 20,
            "NORMAL": 21,
            "COLOR_0": 22
          }
        }
      ]
    },
    {
      "primitives": [
        {
          "indices": 27,
          "material": 0,
          "attributes": {
            "POSITION": 24,
            "NORMAL": 25,
            "COLOR_0": 26
          }
        }
      ]
    },
    {
      "primitives": [
        {
          "indices": 31,
          "material": 0,
          "attributes": {
            "POSITION": 28,
            "NORMAL": 29,
            "COLOR_0": 30
          }
        }
      ]
    },
    {
      "primitives": [
        {
          "indices": 35,
          "material": 0,
          "attributes": {
            "POSITION": 32,
            "NORMAL": 33,
            "COLOR_0": 34
          }
        }
      ]
    },
    {
      "primitives": [
        {
          "indices": 39,
          "material": 0,
          "attributes": {
            "POSITION": 36,
            "NORMAL": 37,
            "COLOR_0": 38
          }
        }
      ]
    },
    {
      "primitives": [
        {
          "indices": 43,
          "material": 0,
          "attributes": {
            "POSITION": 40,
            "NORMAL": 41,
            "COLOR_0": 42
          }
        }
      ]
    },
    {
      "primitives": [
        {
          "indices": 47,
          "material": 0,
          "attributes": {
            "POSITION": 44,
            "NORMAL": 45,
            "COLOR_0": 46
          }
        }
      ]
    },
    {
      "primitives": [
        {
          "indices": 51,
          "material": 0,
          "attributes": {
            "POSITION": 48,
            "NORMAL": 49,
            "COLOR_0": 50
          }
        }
      ]
    },
    {
      "primitives": [
        {
          "indices": 55,
          "material": 0,
          "attributes": {
            "POSITION": 52,
            "NORMAL": 53,
            "COLOR_0": 54
          }
        }
      ]
    }
  ],
  "materials": [
    {
      "name": "Material.1",
      "pbrMetallicRoughness": {
        "metallicFactor": 0.200000003,
        "roughnessFactor": 0.5
      }
    }
  ],
  "nodes": [
    {
      "children": [ 1, 2, 3, 4, 5, 6, 7, 8, 9, 10, 11, 12, 13, 14 ],
      "matrix": [1, 0, 0, 0, 0, 0, -1, 0, 0, 1, 0, 0, 0, 0, 0, 1]
    },
    {
      "mesh": 0,
      "name": "Head"
    },
    {
      "mesh": 1,
      "name": "Torso"
    },
    {
      "mesh": 2,
      "name": "ArmL2"
    },
    {
      "mesh": 3,
      "name": "ArmR2"
    },
    {
      "mesh": 4,
      "name": "ArmR1"
    },
    {
      "mesh": 5,
      "name": "Chain"
    },
    {
      "mesh": 6,
      "name": "Pelvis"
    },
    {
      "mesh": 7,
      "name": "LegR1"
    },
    {
      "mesh": 8,
      "name": "LegR2"
    },
    {
      "mesh": 9,
      "name": "FootR"
    },
    {
      "mesh": 10,
      "name": "LegL1"
    },
    {
      "mesh": 11,
      "name": "LegL2"
    },
    {
      "mesh": 12,
      "name": "FootL"
    },
    {
      "mesh": 13,
      "name": "ArmL1"
    }
  ],
  "scenes": [
    {
      "nodes": [ 0 ]
    }
  ]
}
