{
  "accessors": [
    {
      "bufferView": 0,
      "componentType": 5126,
      "type": "VEC3",
      "count": 94,
      "min": [0, 1, 0],
      "max": [42, 3, 41]
    },
    {
      "bufferView": 0,
      "componentType": 5126,
      "type": "VEC3",
      "byteOffset": 12,
      "count": 94
    },
    {
      "bufferView": 0,
      "componentType": 5126,
      "type": "VEC4",
      "byteOffset": 24,
      "count": 94
    },
    {
      "bufferView": 1,
      "componentType": 5125,
      "type": "SCALAR",
      "count": 222
    },
    {
      "bufferView": 2,
      "componentType": 5126,
      "type": "VEC3",
      "count": 219,
      "min": [1, 0, 0],
      "max": [21, 4, 40]
    },
    {
      "bufferView": 2,
      "componentType": 5126,
      "type": "VEC3",
      "byteOffset": 12,
      "count": 219
    },
    {
      "bufferView": 2,
      "componentType": 5126,
      "type": "VEC4",
      "byteOffset": 24,
      "count": 219
    },
    {
      "bufferView": 3,
      "componentType": 5125,
      "type": "SCALAR",
      "count": 558
    },
    {
      "bufferView": 4,
      "componentType": 5126,
      "type": "VEC3",
      "count": 48,
      "min": [3, 1, 29],
      "max": [19, 3, 38]
    },
    {
      "bufferView": 4,
      "componentType": 5126,
      "type": "VEC3",
      "byteOffset": 12,
      "count": 48
    },
    {
      "bufferView": 4,
      "componentType": 5126,
      "type": "VEC4",
      "byteOffset": 24,
      "count": 48
    },
    {
      "bufferView": 5,
      "componentType": 5125,
      "type": "SCALAR",
      "count": 108
    },
    {
      "bufferView": 6,
      "componentType": 5126,
      "type": "VEC3",
      "count": 48,
      "min": [3, 1, 18],
      "max": [19, 3, 27]
    },
    {
      "bufferView": 6,
      "componentType": 5126,
      "type": "VEC3",
      "byteOffset": 12,
      "count": 48
    },
    {
      "bufferView": 6,
      "componentType": 5126,
      "type": "VEC4",
      "byteOffset": 24,
      "count": 48
    },
    {
      "bufferView": 7,
      "componentType": 5125,
      "type": "SCALAR",
      "count": 108
    },
    {
      "bufferView": 8,
      "componentType": 5126,
      "type": "VEC3",
      "count": 217,
      "min": [21, 0, 0],
      "max": [41, 4, 40]
    },
    {
      "bufferView": 8,
      "componentType": 5126,
      "type": "VEC3",
      "byteOffset": 12,
      "count": 217
    },
    {
      "bufferView": 8,
      "componentType": 5126,
      "type": "VEC4",
      "byteOffset": 24,
      "count": 217
    },
    {
      "bufferView": 9,
      "componentType": 5125,
      "type": "SCALAR",
      "count": 552
    },
    {
      "bufferView": 10,
      "componentType": 5126,
      "type": "VEC3",
      "count": 48,
      "min": [23, 1, 18],
      "max": [39, 3, 27]
    },
    {
      "bufferView": 10,
      "componentType": 5126,
      "type": "VEC3",
      "byteOffset": 12,
      "count": 48
    },
    {
      "bufferView": 10,
      "componentType": 5126,
      "type": "VEC4",
      "byteOffset": 24,
      "count": 48
    },
    {
      "bufferView": 11,
      "componentType": 5125,
      "type": "SCALAR",
      "count": 108
    },
    {
      "bufferView": 12,
      "componentType": 5126,
      "type": "VEC3",
      "count": 48,
      "min": [23, 1, 29],
      "max": [39, 3, 38]
    },
    {
      "bufferView": 12,
      "componentType": 5126,
      "type": "VEC3",
      "byteOffset": 12,
      "count": 48
    },
    {
      "bufferView": 12,
      "componentType": 5126,
      "type": "VEC4",
      "byteOffset": 24,
      "count": 48
    },
    {
      "bufferView": 13,
      "componentType": 5125,
      "type": "SCALAR",
      "count": 108
    }
  ],
  "asset": {
    "generator": "goxel",
    "version": "2.0"
  },
  "bufferViews": [
    {
      "buffer": 0,
      "byteLength": 3760,
      "byteStride": 40
    },
    {
      "buffer": 1,
      "byteLength": 888
    },
    {
      "buffer": 2,
      "byteLength": 8760,
      "byteStride": 40
    },
    {
      "buffer": 3,
      "byteLength": 2232
    },
    {
      "buffer": 4,
      "byteLength": 1920,
      "byteStride": 40
    },
    {
      "buffer": 5,
      "byteLength": 432
    },
    {
      "buffer": 6,
      "byteLength": 1920,
      "byteStride": 40
    },
    {
      "buffer": 7,
      "byteLength": 432
    },
    {
      "buffer": 8,
      "byteLength": 8680,
      "byteStride": 40
    },
    {
      "buffer": 9,
      "byteLength": 2208
    },
    {
      "buffer": 10,
      "byteLength": 1920,
      "byteStride": 40
    },
    {
      "buffer": 11,
      "byteLength": 432
    },
    {
      "buffer": 12,
      "byteLength": 1920,
      "byteStride": 40
    },
    {
      "buffer": 13,
      "byteLength": 432
    }
  ],
  "buffers": [
    {
      "uri": "data:application/octet-stream;base64,",
      "byteLength": 3760
    },
    {
      "uri": "data:application/octet-stream;base64,",
      "byteLength": 888
    },
    {
      "uri": "data:application/octet-stream;base64,",
      "byteLength": 8760
    },
    {
      "uri": "data:application/octet-stream;base64,",
      "byteLength": 2232
    },
    {
      "uri": "data:application/octet-stream;base64,",
      "byteLength": 1920
    },
    {
      "uri": "data:application/octet-stream;base64,",
      "byteLength": 432
    },
    {
      "uri": "data:application/octet-stream;base64,",
      "byteLength": 1920
    },
    {
      "uri": "data:application/octet-stream;base64,",
      "byteLength": 432
    },
    {
      "uri": "data:application/octet-stream;base64,",
      "byteLength": 8680
    },
    {
      "uri": "data:application/octet-stream;base64,",
      "byteLength": 2208
    },
    {
      "uri": "data:application/octet-stream;base64,",
      "byteLength": 1920
    },
    {
      "uri": "data:application/octet-stream;base64,",
      "byteLength": 432
    },
    {
      "uri": "data:application/octet-stream;base64,",
      "byteLength": 1920
    },
    {
      "uri": "data:application/octet-stream;base64,",
      "byteLength": 432
    }
  ],
  "meshes": [
    {
      "primitives": [
        {
          "indices": 3,
          "material": 0,
          "attributes": {
            "POSITION": 0,
            "NORMAL": 1,
            "COLOR_0": 2
          }
        }
      ]
    },
    {
      "primitives": [
        {
          "indices": 7,
          "material": 0,
          "attributes": {
            "POSITION": 4,
            "NORMAL": 5,
            "COLOR_0": 6
          }
        }
      ]
    },
    {
      "primitives": [
        {
          "indices": 11,
          "material": 0,
          "attributes": {
            "POSITION": 8,
            "NORMAL": 9,
            "COLOR_0": 10
          }
        }
      ]
    },
    {
      "primitives": [
        {
          "indices": 15,
          "material": 0,
          "attributes": {
            "POSITION": 12,
            "NORMAL": 13,
            "COLOR_0": 14
          }
        }
      ]
    },
    {
      "primitives": [
        {
          "indices": 19,
          "material": 0,
          "attributes": {
            "POSITION": 16,
            "NORMAL": 17,
            "COLOR_0": 18
          }
        }
      ]
    },
    {
      "primitives": [
        {
          "indices": 23,
          "material": 0,
          "attributes": {
            "POSITION": 20,
            "NORMAL": 21,
            "COLOR_0": 22
          }
        }
      ]
    },
    {
      "primitives": [
        {
          "indices": 27,
          "material": 0,
          "attributes": {
            "POSITION": 24,
            "NORMAL": 25,
            "COLOR_0": 26
          }
        }
      ]
    }
  ],
  "materials": [
    {
      "name": "Material.1",
      "pbrMetallicRoughness": {
        "metallicFactor": 0.200000003,
        "roughnessFactor": 0.5
      }
    }
  ],
  "nodes": [
    {
      "children": [ 1, 2, 3, 4, 5, 6, 7 ],
      "matrix": [1, 0, 0, 0, 0, 0, -1, 0, 0, 1, 0, 0, 0, 0, 0, 1]
    },
    {
      "mesh": 0,
      "name": "Frame"
    },
    {
      "mesh": 1,
      "name": "DoorA"
    },
    {
      "mesh": 2,
      "name": "DoorA-WinA"
    },
    {
      "mesh": 3,
      "name": "DoorA-WinB"
    },
    {
      "mesh": 4,
      "name": "DoorB"
    },
    {
      "mesh": 5,
      "name": "DoorB-WinB"
    },
    {
      "mesh": 6,
      "name": "DoorB-WinA"
    }
  ],
  "scenes": [
    {
      "nodes": [ 0 ]
    }
  ]
}
