{
  "accessors": [
    {
      "bufferView": 0,
      "componentType": 5126,
      "type": "VEC3",
      "count": 40,
      "min": [0, -1, -1],
      "max": [130, 129, 0]
    },
    {
      "bufferView": 0,
      "componentType": 5126,
      "type": "VEC3",
      "byteOffset": 12,
      "count": 40
    },
    {
      "bufferView": 0,
      "componentType": 5126,
      "type": "VEC4",
      "byteOffset": 24,
      "count": 40
    },
    {
      "bufferView": 1,
      "componentType": 5125,
      "type": "SCALAR",
      "count": 84
    },
    {
      "bufferView": 2,
      "componentType": 5126,
      "type": "VEC3",
      "count": 106,
      "min": [0, -1, 0],
      "max": [130, 2, 60]
    },
    {
      "bufferView": 2,
      "componentType": 5126,
      "type": "VEC3",
      "byteOffset": 12,
      "count": 106
    },
    {
      "bufferView": 2,
      "componentType": 5126,
      "type": "VEC4",
      "byteOffset": 24,
      "count": 106
    },
    {
      "bufferView": 3,
      "componentType": 5125,
      "type": "SCALAR",
      "count": 270
    },
    {
      "bufferView": 4,
      "componentType": 5126,
      "type": "VEC3",
      "count": 48,
      "min": [127, 2, 0],
      "max": [130, 129, 60]
    },
    {
      "bufferView": 4,
      "componentType": 5126,
      "type": "VEC3",
      "byteOffset": 12,
      "count": 48
    },
    {
      "bufferView": 4,
      "componentType": 5126,
      "type": "VEC4",
      "byteOffset": 24,
      "count": 48
    },
    {
      "bufferView": 5,
      "componentType": 5125,
      "type": "SCALAR",
      "count": 108
    },
    {
      "bufferView": 6,
      "componentType": 5126,
      "type": "VEC3",
      "count": 40,
      "min": [0, 0, 59],
      "max": [130, 129, 60]
    },
    {
      "bufferView": 6,
      "componentType": 5126,
      "type": "VEC3",
      "byteOffset": 12,
      "count": 40
    },
    {
      "bufferView": 6,
      "componentType": 5126,
      "type": "VEC4",
      "byteOffset": 24,
      "count": 40
    },
    {
      "bufferView": 7,
      "componentType": 5125,
      "type": "SCALAR",
      "count": 84
    }
  ],
  "asset": {
    "generator": "goxel",
    "version": "2.0"
  },
  "bufferViews": [
    {
      "buffer": 0,
      "byteLength": 1600,
      "byteStride": 40
    },
    {
      "buffer": 1,
      "byteLength": 336
    },
    {
      "buffer": 2,
      "byteLength": 4240,
      "byteStride": 40
    },
    {
      "buffer": 3,
      "byteLength": 1080
    },
    {
      "buffer": 4,
      "byteLength": 1920,
      "byteStride": 40
    },
    {
      "buffer": 5,
      "byteLength": 432
    },
    {
      "buffer": 6,
      "byteLength": 1600,
      "byteStride": 40
    },
    {
      "buffer": 7,
      "byteLength": 336
    }
  ],
  "buffers": [
    {
      "uri": "data:application/octet-stream;base64,",
      "byteLength": 1600
    },
    {
      "uri": "data:application/octet-stream;base64,",
      "byteLength": 336
    },
    {
      "uri": "data:application/octet-stream;base64,",
      "byteLength": 4240
    },
    {
      "uri": "data:application/octet-stream;base64,",
      "byteLength": 1080
    },
    {
      "uri": "data:application/octet-stream;base64,",
      "byteLength": 1920
    },
    {
      "uri": "data:application/octet-stream;base64,",
      "byteLength": 432
    },
    {
      "uri": "data:application/octet-stream;base64,",
      "byteLength": 1600
    },
    {
      "uri": "data:application/octet-stream;base64,",
      "byteLength": 336
    }
  ],
  "meshes": [
    {
      "primitives": [
        {
          "indices": 3,
          "material": 0,
          "attributes": {
            "POSITION": 0,
            "NORMAL": 1,
            "COLOR_0": 2
          }
        }
      ]
    },
    {
      "primitives": [
        {
          "indices": 7,
          "material": 0,
          "attributes": {
            "POSITION": 4,
            "NORMAL": 5,
            "COLOR_0": 6
          }
        }
      ]
    },
    {
      "primitives": [
        {
          "indices": 11,
          "material": 0,
          "attributes": {
            "POSITION": 8,
            "NORMAL": 9,
            "COLOR_0": 10
          }
        }
      ]
    },
    {
      "primitives": [
        {
          "indices": 15,
          "material": 0,
          "attributes": {
            "POSITION": 12,
            "NORMAL": 13,
            "COLOR_0": 14
          }
        }
      ]
    }
  ],
  "materials": [
    {
      "name": "Material.1",
      "pbrMetallicRoughness": {
        "metallicFactor": 0.200000003,
        "roughnessFactor": 0.5
      }
    },
    {
      "name": "Material.1",
      "pbrMetallicRoughness": {
        "metallicFactor": 0.200000003,
        "roughnessFactor": 0.5
      }
    },
    {
      "name": "Material.1",
      "pbrMetallicRoughness": {
        "metallicFactor": 0.200000003,
        "roughnessFactor": 0.5
      }
    }
  ],
  "nodes": [
    {
      "children": [ 1, 2, 3, 4 ],
      "matrix": [1, 0, 0, 0, 0, 0, -1, 0, 0, 1, 0, 0, 0, 0, 0, 1]
    },
    {
      "mesh": 0,
      "name": "floor"
    },
    {
      "mesh": 1,
      "name": "wall2"
    },
    {
      "mesh": 2,
      "name": "Wall4-left"
    },
    {
      "mesh": 3,
      "name": "roof"
    }
  ],
  "scenes": [
    {
      "nodes": [ 0 ]
    }
  ]
}
