{
  "accessors": [
    {
      "bufferView": 0,
      "componentType": 5123,
      "type": "SCALAR",
      "count": 4386
    },
    {
      "bufferView": 1,
      "componentType": 5126,
      "type": "VEC3",
      "count": 2924,
      "min": [0, 0, 0],
      "max": [16, 13, 7]
    },
    {
      "bufferView": 1,
      "componentType": 5126,
      "type": "VEC3",
      "byteOffset": 12,
      "count": 2924
    },
    {
      "bufferView": 1,
      "componentType": 5121,
      "type": "VEC4",
      "normalized": true,
      "byteOffset": 24,
      "count": 2924
    },
    {
      "bufferView": 2,
      "componentType": 5123,
      "type": "SCALAR",
      "count": 3186
    },
    {
      "bufferView": 3,
      "componentType": 5126,
      "type": "VEC3",
      "count": 2124,
      "min": [0, 0, 0],
      "max": [11, 13, 7]
    },
    {
      "bufferView": 3,
      "componentType": 5126,
      "type": "VEC3",
      "byteOffset": 12,
      "count": 2124
    },
    {
      "bufferView": 3,
      "componentType": 5121,
      "type": "VEC4",
      "normalized": true,
      "byteOffset": 24,
      "count": 2124
    },
    {
      "bufferView": 4,
      "componentType": 5123,
      "type": "SCALAR",
      "count": 1926
    },
    {
      "bufferView": 5,
      "componentType": 5126,
      "type": "VEC3",
      "count": 1284,
      "min": [0, 13, 0],
      "max": [16, 16, 7]
    },
    {
      "bufferView": 5,
      "componentType": 5126,
      "type": "VEC3",
      "byteOffset": 12,
      "count": 1284
    },
    {
      "bufferView": 5,
      "componentType": 5121,
      "type": "VEC4",
      "normalized": true,
      "byteOffset": 24,
      "count": 1284
    },
    {
      "bufferView": 6,
      "componentType": 5123,
      "type": "SCALAR",
      "count": 1446
    },
    {
      "bufferView": 7,
      "componentType": 5126,
      "type": "VEC3",
      "count": 964,
      "min": [0, 13, 0],
      "max": [11, 16, 7]
    },
    {
      "bufferView": 7,
      "componentType": 5126,
      "type": "VEC3",
      "byteOffset": 12,
      "count": 964
    },
    {
      "bufferView": 7,
      "componentType": 5121,
      "type": "VEC4",
      "normalized": true,
      "byteOffset": 24,
      "count": 964
    },
    {
      "bufferView": 8,
      "componentType": 5123,
      "type": "SCALAR",
      "count": 384
    },
    {
      "bufferView": 9,
      "componentType": 5126,
      "type": "VEC3",
      "count": 256,
      "min": [1, 0, 1],
      "max": [16, 1, 6]
    },
    {
      "bufferView": 9,
      "componentType": 5126,
      "type": "VEC3",
      "byteOffset": 12,
      "count": 256
    },
    {
      "bufferView": 9,
      "componentType": 5121,
      "type": "VEC4",
      "normalized": true,
      "byteOffset": 24,
      "count": 256
    }
  ],
  "asset": {
    "generator": "goxel",
    "version": "2.0"
  },
  "bufferViews": [
    {
      "buffer": 1,
      "byteLength": 8772
    },
    {
      "buffer": 0,
      "byteLength": 93568,
      "byteStride": 32
    },
    {
      "buffer": 3,
      "byteLength": 6372
    },
    {
      "buffer": 2,
      "byteLength": 67968,
      "byteStride": 32
    },
    {
      "buffer": 5,
      "byteLength": 3852
    },
    {
      "buffer": 4,
      "byteLength": 41088,
      "byteStride": 32
    },
    {
      "buffer": 7,
      "byteLength": 2892
    },
    {
      "buffer": 6,
      "byteLength": 30848,
      "byteStride": 32
    },
    {
      "buffer": 9,
      "byteLength": 768
    },
    {
      "buffer": 8,
      "byteLength": 8192,
      "byteStride": 32
    }
  ],
  "buffers": [
    {
      "uri": "data:application/octet-stream;base64,",
      "byteLength": 93568
    },
    {
      "uri": "data:application/octet-stream;base64,",
      "byteLength": 8772
    },
    {
      "uri": "data:application/octet-stream;base64,",
      "byteLength": 67968
    },
    {
      "uri": "data:application/octet-stream;base64,",
      "byteLength": 6372
    },
    {
      "uri": "data:application/octet-stream;base64,",
      "byteLength": 41088
    },
    {
      "uri": "data:application/octet-stream;base64,",
      "byteLength": 3852
    },
    {
      "uri": "data:application/octet-stream;base64,",
      "byteLength": 30848
    },
    {
      "uri": "data:application/octet-stream;base64,",
      "byteLength": 2892
    },
    {
      "uri": "data:application/octet-stream;base64,",
      "byteLength": 8192
    },
    {
      "uri": "data:application/octet-stream;base64,",
      "byteLength": 768
    }
  ],
  "meshes": [
    {
      "primitives": [
        {
          "indices": 0,
          "material": 0,
          "attributes": {
            "POSITION": 1,
            "NORMAL": 2,
            "COLOR_0": 3
          }
        }
      ]
    },
    {
      "primitives": [
        {
          "indices": 4,
          "material": 0,
          "attributes": {
            "POSITION": 5,
            "NORMAL": 6,
            "COLOR_0": 7
          }
        }
      ]
    },
    {
      "primitives": [
        {
          "indices": 8,
          "material": 0,
          "attributes": {
            "POSITION": 9,
            "NORMAL": 10,
            "COLOR_0": 11
          }
        }
      ]
    },
    {
      "primitives": [
        {
          "indices": 12,
          "material": 0,
          "attributes": {
            "POSITION": 13,
            "NORMAL": 14,
            "COLOR_0": 15
          }
        }
      ]
    },
    {
      "primitives": [
        {
          "indices": 16,
          "material": 0,
          "attributes": {
            "POSITION": 17,
            "NORMAL": 18,
            "COLOR_0": 19
          }
        }
      ]
    }
  ],
  "materials": [
    {
      "name": "Material.1",
      "pbrMetallicRoughness": {
        "metallicFactor": 0.200000003,
        "roughnessFactor": 0.5
      }
    }
  ],
  "nodes": [
    {
      "children": [ 3, 7 ],
      "matrix": [1, 0, 0, 0, 0, 0, -1, 0, 0, 1, 0, 0, 0, 0, 0, 1]
    },
    {
      "mesh": 0,
      "translation": [0, 0, 0]
    },
    {
      "mesh": 1,
      "translation": [16, 0, 0]
    },
    {
      "children": [ 1, 2 ]
    },
    {
      "mesh": 2,
      "translation": [0, 0, 0]
    },
    {
      "mesh": 3,
      "translation": [16, 0, 0]
    },
    {
      "mesh": 4,
      "translation": [0, 16, 0]
    },
    {
      "children": [ 4, 5, 6 ]
    }
  ],
  "scenes": [
    {
      "nodes": [ 0 ]
    }
  ]
}
