{
  "accessors": [
    {
      "bufferView": 0,
      "componentType": 5126,
      "type": "VEC3",
      "count": 752,
      "min": [0, 11, 0],
      "max": [30, 23, 42]
    },
    {
      "bufferView": 0,
      "componentType": 5126,
      "type": "VEC3",
      "byteOffset": 12,
      "count": 752
    },
    {
      "bufferView": 0,
      "componentType": 5126,
      "type": "VEC4",
      "byteOffset": 24,
      "count": 752
    },
    {
      "bufferView": 1,
      "componentType": 5125,
      "type": "SCALAR",
      "count": 1800
    },
    {
      "bufferView": 2,
      "componentType": 5126,
      "type": "VEC3",
      "count": 70,
      "min": [2, 10, 2],
      "max": [11, 12, 41]
    },
    {
      "bufferView": 2,
      "componentType": 5126,
      "type": "VEC3",
      "byteOffset": 12,
      "count": 70
    },
    {
      "bufferView": 2,
      "componentType": 5126,
      "type": "VEC4",
      "byteOffset": 24,
      "count": 70
    },
    {
      "bufferView": 3,
      "componentType": 5125,
      "type": "SCALAR",
      "count": 150
    },
    {
      "bufferView": 4,
      "componentType": 5126,
      "type": "VEC3",
      "count": 66,
      "min": [10, 10, 2],
      "max": [19, 12, 41]
    },
    {
      "bufferView": 4,
      "componentType": 5126,
      "type": "VEC3",
      "byteOffset": 12,
      "count": 66
    },
    {
      "bufferView": 4,
      "componentType": 5126,
      "type": "VEC4",
      "byteOffset": 24,
      "count": 66
    },
    {
      "bufferView": 5,
      "componentType": 5125,
      "type": "SCALAR",
      "count": 138
    },
    {
      "bufferView": 6,
      "componentType": 5126,
      "type": "VEC3",
      "count": 66,
      "min": [20, 10, 2],
      "max": [29, 12, 41]
    },
    {
      "bufferView": 6,
      "componentType": 5126,
      "type": "VEC3",
      "byteOffset": 12,
      "count": 66
    },
    {
      "bufferView": 6,
      "componentType": 5126,
      "type": "VEC4",
      "byteOffset": 24,
      "count": 66
    },
    {
      "bufferView": 7,
      "componentType": 5125,
      "type": "SCALAR",
      "count": 138
    }
  ],
  "asset": {
    "generator": "goxel",
    "version": "2.0"
  },
  "bufferViews": [
    {
      "buffer": 0,
      "byteLength": 30080,
      "byteStride": 40
    },
    {
      "buffer": 1,
      "byteLength": 7200
    },
    {
      "buffer": 2,
      "byteLength": 2800,
      "byteStride": 40
    },
    {
      "buffer": 3,
      "byteLength": 600
    },
    {
      "buffer": 4,
      "byteLength": 2640,
      "byteStride": 40
    },
    {
      "buffer": 5,
      "byteLength": 552
    },
    {
      "buffer": 6,
      "byteLength": 2640,
      "byteStride": 40
    },
    {
      "buffer": 7,
      "byteLength": 552
    }
  ],
  "buffers": [
    {
      "uri": "data:application/octet-stream;base64,",
      "byteLength": 30080
    },
    {
      "uri": "data:application/octet-stream;base64,",
      "byteLength": 7200
    },
    {
      "uri": "data:application/octet-stream;base64,",
      "byteLength": 2800
    },
    {
      "uri": "data:application/octet-stream;base64,",
      "byteLength": 600
    },
    {
      "uri": "data:application/octet-stream;base64,",
      "byteLength": 2640
    },
    {
      "uri": "data:application/octet-stream;base64,",
      "byteLength": 552
    },
    {
      "uri": "data:application/octet-stream;base64,",
      "byteLength": 2640
    },
    {
      "uri": "data:application/octet-stream;base64,",
      "byteLength": 552
    }
  ],
  "meshes": [
    {
      "primitives": [
        {
          "indices": 3,
          "material": 0,
          "attributes": {
            "POSITION": 0,
            "NORMAL": 1,
            "COLOR_0": 2
          }
        }
      ]
    },
    {
      "primitives": [
        {
          "indices": 7,
          "material": 0,
          "attributes": {
            "POSITION": 4,
            "NORMAL": 5,
            "COLOR_0": 6
          }
        }
      ]
    },
    {
      "primitives": [
        {
          "indices": 11,
          "material": 0,
          "attributes": {
            "POSITION": 8,
            "NORMAL": 9,
            "COLOR_0": 10
          }
        }
      ]
    },
    {
      "primitives": [
        {
          "indices": 15,
          "material": 0,
          "attributes": {
            "POSITION": 12,
            "NORMAL": 13,
            "COLOR_0": 14
          }
        }
      ]
    }
  ],
  "materials": [
    {
      "name": "Material.1",
      "pbrMetallicRoughness": {
        "metallicFactor": 0.200000003,
        "roughnessFactor": 0.5
      }
    },
    {
      "name": "Material.1",
      "pbrMetallicRoughness": {
        "metallicFactor": 0.200000003,
        "roughnessFactor": 0.5
      }
    }
  ],
  "nodes": [
    {
      "children": [ 1, 2, 3, 4 ],
      "matrix": [1, 0, 0, 0, 0, 0, -1, 0, 0, 1, 0, 0, 0, 0, 0, 1]
    },
    {
      "mesh": 0,
      "name": "Base"
    },
    {
      "mesh": 1,
      "name": "Door"
    },
    {
      "mesh": 2,
      "name": "Door.1"
    },
    {
      "mesh": 3,
      "name": "Door.2"
    }
  ],
  "scenes": [
    {
      "nodes": [ 0 ]
    }
  ]
}
