{
  "accessors": [
    {
      "bufferView": 0,
      "componentType": 5126,
      "type": "VEC3",
      "count": 7652,
      "min": [0, 11, 0],
      "max": [30, 23, 42]
    },
    {
      "bufferView": 0,
      "componentType": 5126,
      "type": "VEC3",
      "byteOffset": 12,
      "count": 7652
    },
    {
      "bufferView": 0,
      "componentType": 5126,
      "type": "VEC4",
      "byteOffset": 24,
      "count": 7652
    },
    {
      "bufferView": 1,
      "componentType": 5125,
      "type": "SCALAR",
      "count": 39804
    },
    {
      "bufferView": 2,
      "componentType": 5126,
      "type": "VEC3",
      "count": 252,
      "min": [1, 16, 33],
      "max": [19, 19, 35]
    },
    {
      "bufferView": 2,
      "componentType": 5126,
      "type": "VEC3",
      "byteOffset": 12,
      "count": 252
    },
    {
      "bufferView": 2,
      "componentType": 5126,
      "type": "VEC4",
      "byteOffset": 24,
      "count": 252
    },
    {
      "bufferView": 3,
      "componentType": 5125,
      "type": "SCALAR",
      "count": 636
    },
    {
      "bufferView": 4,
      "componentType": 5126,
      "type": "VEC3",
      "count": 400,
      "min": [20, 12, 7],
      "max": [29, 22, 9]
    },
    {
      "bufferView": 4,
      "componentType": 5126,
      "type": "VEC3",
      "byteOffset": 12,
      "count": 400
    },
    {
      "bufferView": 4,
      "componentType": 5126,
      "type": "VEC4",
      "byteOffset": 24,
      "count": 400
    },
    {
      "bufferView": 5,
      "componentType": 5125,
      "type": "SCALAR",
      "count": 1572
    },
    {
      "bufferView": 6,
      "componentType": 5126,
      "type": "VEC3",
      "count": 633,
      "min": [1, 12, 7],
      "max": [19, 22, 9]
    },
    {
      "bufferView": 6,
      "componentType": 5126,
      "type": "VEC3",
      "byteOffset": 12,
      "count": 633
    },
    {
      "bufferView": 6,
      "componentType": 5126,
      "type": "VEC4",
      "byteOffset": 24,
      "count": 633
    },
    {
      "bufferView": 7,
      "componentType": 5125,
      "type": "SCALAR",
      "count": 2748
    },
    {
      "bufferView": 8,
      "componentType": 5126,
      "type": "VEC3",
      "count": 400,
      "min": [20, 12, 15],
      "max": [29, 22, 17]
    },
    {
      "bufferView": 8,
      "componentType": 5126,
      "type": "VEC3",
      "byteOffset": 12,
      "count": 400
    },
    {
      "bufferView": 8,
      "componentType": 5126,
      "type": "VEC4",
      "byteOffset": 24,
      "count": 400
    },
    {
      "bufferView": 9,
      "componentType": 5125,
      "type": "SCALAR",
      "count": 1572
    },
    {
      "bufferView": 10,
      "componentType": 5126,
      "type": "VEC3",
      "count": 400,
      "min": [20, 12, 23],
      "max": [29, 22, 25]
    },
    {
      "bufferView": 10,
      "componentType": 5126,
      "type": "VEC3",
      "byteOffset": 12,
      "count": 400
    },
    {
      "bufferView": 10,
      "componentType": 5126,
      "type": "VEC4",
      "byteOffset": 24,
      "count": 400
    },
    {
      "bufferView": 11,
      "componentType": 5125,
      "type": "SCALAR",
      "count": 1572
    },
    {
      "bufferView": 12,
      "componentType": 5126,
      "type": "VEC3",
      "count": 400,
      "min": [20, 12, 31],
      "max": [29, 22, 33]
    },
    {
      "bufferView": 12,
      "componentType": 5126,
      "type": "VEC3",
      "byteOffset": 12,
      "count": 400
    },
    {
      "bufferView": 12,
      "componentType": 5126,
      "type": "VEC4",
      "byteOffset": 24,
      "count": 400
    },
    {
      "bufferView": 13,
      "componentType": 5125,
      "type": "SCALAR",
      "count": 1572
    }
  ],
  "asset": {
    "generator": "goxel",
    "version": "2.0"
  },
  "bufferViews": [
    {
      "buffer": 0,
      "byteLength": 306080,
      "byteStride": 40
    },
    {
      "buffer": 1,
      "byteLength": 159216
    },
    {
      "buffer": 2,
      "byteLength": 10080,
      "byteStride": 40
    },
    {
      "buffer": 3,
      "byteLength": 2544
    },
    {
      "buffer": 4,
      "byteLength": 16000,
      "byteStride": 40
    },
    {
      "buffer": 5,
      "byteLength": 6288
    },
    {
      "buffer": 6,
      "byteLength": 25320,
      "byteStride": 40
    },
    {
      "buffer": 7,
      "byteLength": 10992
    },
    {
      "buffer": 8,
      "byteLength": 16000,
      "byteStride": 40
    },
    {
      "buffer": 9,
      "byteLength": 6288
    },
    {
      "buffer": 10,
      "byteLength": 16000,
      "byteStride": 40
    },
    {
      "buffer": 11,
      "byteLength": 6288
    },
    {
      "buffer": 12,
      "byteLength": 16000,
      "byteStride": 40
    },
    {
      "buffer": 13,
      "byteLength": 6288
    }
  ],
  "buffers": [
    {
      "uri": "data:application/octet-stream;base64,",
      "byteLength": 306080
    },
    {
      "uri": "data:application/octet-stream;base64,",
      "byteLength": 159216
    },
    {
      "uri": "data:application/octet-stream;base64,",
      "byteLength": 10080
    },
    {
      "uri": "data:application/octet-stream;base64,",
      "byteLength": 2544
    },
    {
      "uri": "data:application/octet-stream;base64,",
      "byteLength": 16000
    },
    {
      "uri": "data:application/octet-stream;base64,",
      "byteLength": 6288
    },
    {
      "uri": "data:application/octet-stream;base64,",
      "byteLength": 25320
    },
    {
      "uri": "data:application/octet-stream;base64,",
      "byteLength": 10992
    },
    {
      "uri": "data:application/octet-stream;base64,",
      "byteLength": 16000
    },
    {
      "uri": "data:application/octet-stream;base64,",
      "byteLength": 6288
    },
    {
      "uri": "data:application/octet-stream;base64,",
      "byteLength": 16000
    },
    {
      "uri": "data:application/octet-stream;base64,",
      "byteLength": 6288
    },
    {
      "uri": "data:application/octet-stream;base64,",
      "byteLength": 16000
    },
    {
      "uri": "data:application/octet-stream;base64,",
      "byteLength": 6288
    }
  ],
  "meshes": [
    {
      "primitives": [
        {
          "indices": 3,
          "material": 0,
          "attributes": {
            "POSITION": 0,
            "NORMAL": 1,
            "COLOR_0": 2
          }
        }
      ]
    },
    {
      "primitives": [
        {
          "indices": 7,
          "material": 0,
          "attributes": {
            "POSITION": 4,
            "NORMAL": 5,
            "COLOR_0": 6
          }
        }
      ]
    },
    {
      "primitives": [
        {
          "indices": 11,
          "material": 0,
          "attributes": {
            "POSITION": 8,
            "NORMAL": 9,
            "COLOR_0": 10
          }
        }
      ]
    },
    {
      "primitives": [
        {
          "indices": 15,
          "material": 0,
          "attributes": {
            "POSITION": 12,
            "NORMAL": 13,
            "COLOR_0": 14
          }
        }
      ]
    },
    {
      "primitives": [
        {
          "indices": 19,
          "material": 0,
          "attributes": {
            "POSITION": 16,
            "NORMAL": 17,
            "COLOR_0": 18
          }
        }
      ]
    },
    {
      "primitives": [
        {
          "indices": 23,
          "material": 0,
          "attributes": {
            "POSITION": 20,
            "NORMAL": 21,
            "COLOR_0": 22
          }
        }
      ]
    },
    {
      "primitives": [
        {
          "indices": 27,
          "material": 0,
          "attributes": {
            "POSITION": 24,
            "NORMAL": 25,
            "COLOR_0": 26
          }
        }
      ]
    }
  ],
  "materials": [
    {
      "name": "Material.1",
      "pbrMetallicRoughness": {
        "metallicFactor": 0.200000003,
        "roughnessFactor": 0.5
      }
    }
  ],
  "nodes": [
    {
      "children": [ 1, 2, 3, 4, 5, 6, 7 ],
      "matrix": [1, 0, 0, 0, 0, 0, -1, 0, 0, 1, 0, 0, 0, 0, 0, 1]
    },
    {
      "mesh": 0,
      "name": "base"
    },
    {
      "mesh": 1,
      "name": "Coathanger"
    },
    {
      "mesh": 2,
      "name": "Dividers"
    },
    {
      "mesh": 3,
      "name": "ShoeDivider"
    },
    {
      "mesh": 4,
      "name": "Dividers.1"
    },
    {
      "mesh": 5,
      "name": "Dividers.2"
    },
    {
      "mesh": 6,
      "name": "Dividers.3"
    }
  ],
  "scenes": [
    {
      "nodes": [ 0 ]
    }
  ]
}
