{
  "accessors": [
    {
      "bufferView": 0,
      "componentType": 5123,
      "type": "SCALAR",
      "count": 3654
    },
    {
      "bufferView": 1,
      "componentType": 5126,
      "type": "VEC3",
      "count": 2436,
      "min": [5, 0, 0],
      "max": [16, 12, 5]
    },
    {
      "bufferView": 1,
      "componentType": 5126,
      "type": "VEC3",
      "byteOffset": 12,
      "count": 2436
    },
    {
      "bufferView": 1,
      "componentType": 5121,
      "type": "VEC4",
      "normalized": true,
      "byteOffset": 24,
      "count": 2436
    },
    {
      "bufferView": 2,
      "componentType": 5123,
      "type": "SCALAR",
      "count": 3654
    },
    {
      "bufferView": 3,
      "componentType": 5126,
      "type": "VEC3",
      "count": 2436,
      "min": [0, 0, 0],
      "max": [11, 12, 5]
    },
    {
      "bufferView": 3,
      "componentType": 5126,
      "type": "VEC3",
      "byteOffset": 12,
      "count": 2436
    },
    {
      "bufferView": 3,
      "componentType": 5121,
      "type": "VEC4",
      "normalized": true,
      "byteOffset": 24,
      "count": 2436
    },
    {
      "bufferView": 4,
      "componentType": 5123,
      "type": "SCALAR",
      "count": 1650
    },
    {
      "bufferView": 5,
      "componentType": 5126,
      "type": "VEC3",
      "count": 1100,
      "min": [6, 0, 1],
      "max": [16, 12, 4]
    },
    {
      "bufferView": 5,
      "componentType": 5126,
      "type": "VEC3",
      "byteOffset": 12,
      "count": 1100
    },
    {
      "bufferView": 5,
      "componentType": 5121,
      "type": "VEC4",
      "normalized": true,
      "byteOffset": 24,
      "count": 1100
    },
    {
      "bufferView": 6,
      "componentType": 5123,
      "type": "SCALAR",
      "count": 1422
    },
    {
      "bufferView": 7,
      "componentType": 5126,
      "type": "VEC3",
      "count": 948,
      "min": [0, 0, 1],
      "max": [10, 12, 4]
    },
    {
      "bufferView": 7,
      "componentType": 5126,
      "type": "VEC3",
      "byteOffset": 12,
      "count": 948
    },
    {
      "bufferView": 7,
      "componentType": 5121,
      "type": "VEC4",
      "normalized": true,
      "byteOffset": 24,
      "count": 948
    }
  ],
  "asset": {
    "generator": "goxel",
    "version": "2.0"
  },
  "bufferViews": [
    {
      "buffer": 1,
      "byteLength": 7308
    },
    {
      "buffer": 0,
      "byteLength": 77952,
      "byteStride": 32
    },
    {
      "buffer": 3,
      "byteLength": 7308
    },
    {
      "buffer": 2,
      "byteLength": 77952,
      "byteStride": 32
    },
    {
      "buffer": 5,
      "byteLength": 3300
    },
    {
      "buffer": 4,
      "byteLength": 35200,
      "byteStride": 32
    },
    {
      "buffer": 7,
      "byteLength": 2844
    },
    {
      "buffer": 6,
      "byteLength": 30336,
      "byteStride": 32
    }
  ],
  "buffers": [
    {
      "uri": "data:application/octet-stream;base64,",
      "byteLength": 77952
    },
    {
      "uri": "data:application/octet-stream;base64,",
      "byteLength": 7308
    },
    {
      "uri": "data:application/octet-stream;base64,",
      "byteLength": 77952
    },
    {
      "uri": "data:application/octet-stream;base64,",
      "byteLength": 7308
    },
    {
      "uri": "data:application/octet-stream;base64,",
      "byteLength": 35200
    },
    {
      "uri": "data:application/octet-stream;base64,",
      "byteLength": 3300
    },
    {
      "uri": "data:application/octet-stream;base64,",
      "byteLength": 30336
    },
    {
      "uri": "data:application/octet-stream;base64,",
      "byteLength": 2844
    }
  ],
  "meshes": [
    {
      "primitives": [
        {
          "indices": 0,
          "material": 1,
          "attributes": {
            "POSITION": 1,
            "NORMAL": 2,
            "COLOR_0": 3
          }
        }
      ]
    },
    {
      "primitives": [
        {
          "indices": 4,
          "material": 1,
          "attributes": {
            "POSITION": 5,
            "NORMAL": 6,
            "COLOR_0": 7
          }
        }
      ]
    },
    {
      "primitives": [
        {
          "indices": 8,
          "material": 0,
          "attributes": {
            "POSITION": 9,
            "NORMAL": 10,
            "COLOR_0": 11
          }
        }
      ]
    },
    {
      "primitives": [
        {
          "indices": 12,
          "material": 0,
          "attributes": {
            "POSITION": 13,
            "NORMAL": 14,
            "COLOR_0": 15
          }
        }
      ]
    }
  ],
  "materials": [
    {
      "name": "solid",
      "pbrMetallicRoughness": {
        "metallicFactor": 0.100000001,
        "roughnessFactor": 0.699999988
      }
    },
    {
      "name": "trans",
      "pbrMetallicRoughness": {
        "metallicFactor": 0.899999976,
        "roughnessFactor": 0.400000006,
        "baseColorFactor": [1, 1, 1, 0.400000006]
      }
    }
  ],
  "nodes": [
    {
      "children": [ 3, 6 ],
      "matrix": [1, 0, 0, 0, 0, 0, -1, 0, 0, 1, 0, 0, 0, 0, 0, 1]
    },
    {
      "mesh": 0,
      "translation": [0, 0, 0]
    },
    {
      "mesh": 1,
      "translation": [16, 0, 0]
    },
    {
      "children": [ 1, 2 ]
    },
    {
      "mesh": 2,
      "translation": [0, 0, 0]
    },
    {
      "mesh": 3,
      "translation": [16, 0, 0]
    },
    {
      "children": [ 4, 5 ]
    }
  ],
  "scenes": [
    {
      "nodes": [ 0 ]
    }
  ]
}
