{
  "accessors": [
    {
      "bufferView": 0,
      "componentType": 5126,
      "type": "VEC3",
      "count": 592,
      "min": [0, 0, 0],
      "max": [29, 12, 22]
    },
    {
      "bufferView": 0,
      "componentType": 5126,
      "type": "VEC3",
      "byteOffset": 12,
      "count": 592
    },
    {
      "bufferView": 0,
      "componentType": 5126,
      "type": "VEC4",
      "byteOffset": 24,
      "count": 592
    },
    {
      "bufferView": 1,
      "componentType": 5125,
      "type": "SCALAR",
      "count": 1386
    },
    {
      "bufferView": 2,
      "componentType": 5126,
      "type": "VEC3",
      "count": 96,
      "min": [3, 3, 14],
      "max": [26, 5, 18]
    },
    {
      "bufferView": 2,
      "componentType": 5126,
      "type": "VEC3",
      "byteOffset": 12,
      "count": 96
    },
    {
      "bufferView": 2,
      "componentType": 5126,
      "type": "VEC4",
      "byteOffset": 24,
      "count": 96
    },
    {
      "bufferView": 3,
      "componentType": 5125,
      "type": "SCALAR",
      "count": 216
    },
    {
      "bufferView": 4,
      "componentType": 5126,
      "type": "VEC3",
      "count": 236,
      "min": [5, 1, 12],
      "max": [24, 4, 13]
    },
    {
      "bufferView": 4,
      "componentType": 5126,
      "type": "VEC3",
      "byteOffset": 12,
      "count": 236
    },
    {
      "bufferView": 4,
      "componentType": 5126,
      "type": "VEC4",
      "byteOffset": 24,
      "count": 236
    },
    {
      "bufferView": 5,
      "componentType": 5125,
      "type": "SCALAR",
      "count": 480
    },
    {
      "bufferView": 6,
      "componentType": 5126,
      "type": "VEC3",
      "count": 194,
      "min": [10, 0, 1],
      "max": [19, 4, 2]
    },
    {
      "bufferView": 6,
      "componentType": 5126,
      "type": "VEC3",
      "byteOffset": 12,
      "count": 194
    },
    {
      "bufferView": 6,
      "componentType": 5126,
      "type": "VEC4",
      "byteOffset": 24,
      "count": 194
    },
    {
      "bufferView": 7,
      "componentType": 5125,
      "type": "SCALAR",
      "count": 378
    },
    {
      "bufferView": 8,
      "componentType": 5126,
      "type": "VEC3",
      "count": 262,
      "min": [6, -7, 0],
      "max": [23, 1, 8]
    },
    {
      "bufferView": 8,
      "componentType": 5126,
      "type": "VEC3",
      "byteOffset": 12,
      "count": 262
    },
    {
      "bufferView": 8,
      "componentType": 5126,
      "type": "VEC4",
      "byteOffset": 24,
      "count": 262
    },
    {
      "bufferView": 9,
      "componentType": 5125,
      "type": "SCALAR",
      "count": 618
    }
  ],
  "asset": {
    "generator": "goxel",
    "version": "2.0"
  },
  "bufferViews": [
    {
      "buffer": 0,
      "byteLength": 23680,
      "byteStride": 40
    },
    {
      "buffer": 1,
      "byteLength": 5544
    },
    {
      "buffer": 2,
      "byteLength": 3840,
      "byteStride": 40
    },
    {
      "buffer": 3,
      "byteLength": 864
    },
    {
      "buffer": 4,
      "byteLength": 9440,
      "byteStride": 40
    },
    {
      "buffer": 5,
      "byteLength": 1920
    },
    {
      "buffer": 6,
      "byteLength": 7760,
      "byteStride": 40
    },
    {
      "buffer": 7,
      "byteLength": 1512
    },
    {
      "buffer": 8,
      "byteLength": 10480,
      "byteStride": 40
    },
    {
      "buffer": 9,
      "byteLength": 2472
    }
  ],
  "buffers": [
    {
      "uri": "data:application/octet-stream;base64,",
      "byteLength": 23680
    },
    {
      "uri": "data:application/octet-stream;base64,",
      "byteLength": 5544
    },
    {
      "uri": "data:application/octet-stream;base64,",
      "byteLength": 3840
    },
    {
      "uri": "data:application/octet-stream;base64,",
      "byteLength": 864
    },
    {
      "uri": "data:application/octet-stream;base64,",
      "byteLength": 9440
    },
    {
      "uri": "data:application/octet-stream;base64,",
      "byteLength": 1920
    },
    {
      "uri": "data:application/octet-stream;base64,",
      "byteLength": 7760
    },
    {
      "uri": "data:application/octet-stream;base64,",
      "byteLength": 1512
    },
    {
      "uri": "data:application/octet-stream;base64,",
      "byteLength": 10480
    },
    {
      "uri": "data:application/octet-stream;base64,",
      "byteLength": 2472
    }
  ],
  "meshes": [
    {
      "primitives": [
        {
          "indices": 3,
          "material": 0,
          "attributes": {
            "POSITION": 0,
            "NORMAL": 1,
            "COLOR_0": 2
          }
        }
      ]
    },
    {
      "primitives": [
        {
          "indices": 7,
          "material": 0,
          "attributes": {
            "POSITION": 4,
            "NORMAL": 5,
            "COLOR_0": 6
          }
        }
      ]
    },
    {
      "primitives": [
        {
          "indices": 11,
          "material": 0,
          "attributes": {
            "POSITION": 8,
            "NORMAL": 9,
            "COLOR_0": 10
          }
        }
      ]
    },
    {
      "primitives": [
        {
          "indices": 15,
          "material": 0,
          "attributes": {
            "POSITION": 12,
            "NORMAL": 13,
            "COLOR_0": 14
          }
        }
      ]
    },
    {
      "primitives": [
        {
          "indices": 19,
          "material": 0,
          "attributes": {
            "POSITION": 16,
            "NORMAL": 17,
            "COLOR_0": 18
          }
        }
      ]
    }
  ],
  "materials": [
    {
      "name": "Material.1",
      "pbrMetallicRoughness": {
        "metallicFactor": 0.200000003,
        "roughnessFactor": 0.5
      }
    },
    {
      "name": "Material.1",
      "pbrMetallicRoughness": {
        "metallicFactor": 0.200000003,
        "roughnessFactor": 0.5
      }
    }
  ],
  "nodes": [
    {
      "children": [ 1, 2, 3, 4, 5 ],
      "matrix": [1, 0, 0, 0, 0, 0, -1, 0, 0, 1, 0, 0, 0, 0, 0, 1]
    },
    {
      "mesh": 0,
      "name": "Piano"
    },
    {
      "mesh": 1,
      "name": "Piano.Lid"
    },
    {
      "mesh": 2,
      "name": "Piano.Keys"
    },
    {
      "mesh": 3,
      "name": "Piano.Pedals"
    },
    {
      "mesh": 4,
      "name": "Piano.Stool"
    }
  ],
  "scenes": [
    {
      "nodes": [ 0 ]
    }
  ]
}
