{
  "accessors": [
    {
      "bufferView": 0,
      "componentType": 5126,
      "type": "VEC3",
      "count": 56,
      "min": [17, 0, 1],
      "max": [19, 4, 2]
    },
    {
      "bufferView": 0,
      "componentType": 5126,
      "type": "VEC3",
      "byteOffset": 12,
      "count": 56
    },
    {
      "bufferView": 0,
      "componentType": 5126,
      "type": "VEC4",
      "byteOffset": 24,
      "count": 56
    },
    {
      "bufferView": 1,
      "componentType": 5125,
      "type": "SCALAR",
      "count": 108
    },
    {
      "bufferView": 2,
      "componentType": 5126,
      "type": "VEC3",
      "count": 58,
      "min": [10, 0, 1],
      "max": [12, 4, 2]
    },
    {
      "bufferView": 2,
      "componentType": 5126,
      "type": "VEC3",
      "byteOffset": 12,
      "count": 58
    },
    {
      "bufferView": 2,
      "componentType": 5126,
      "type": "VEC4",
      "byteOffset": 24,
      "count": 58
    },
    {
      "bufferView": 3,
      "componentType": 5125,
      "type": "SCALAR",
      "count": 114
    },
    {
      "bufferView": 4,
      "componentType": 5126,
      "type": "VEC3",
      "count": 80,
      "min": [13, 0, 1],
      "max": [16, 4, 2]
    },
    {
      "bufferView": 4,
      "componentType": 5126,
      "type": "VEC3",
      "byteOffset": 12,
      "count": 80
    },
    {
      "bufferView": 4,
      "componentType": 5126,
      "type": "VEC4",
      "byteOffset": 24,
      "count": 80
    },
    {
      "bufferView": 5,
      "componentType": 5125,
      "type": "SCALAR",
      "count": 156
    },
    {
      "bufferView": 6,
      "componentType": 5126,
      "type": "VEC3",
      "count": 80,
      "min": [5, 1, 12],
      "max": [9, 4, 13]
    },
    {
      "bufferView": 6,
      "componentType": 5126,
      "type": "VEC3",
      "byteOffset": 12,
      "count": 80
    },
    {
      "bufferView": 6,
      "componentType": 5126,
      "type": "VEC4",
      "byteOffset": 24,
      "count": 80
    },
    {
      "bufferView": 7,
      "componentType": 5125,
      "type": "SCALAR",
      "count": 156
    },
    {
      "bufferView": 8,
      "componentType": 5126,
      "type": "VEC3",
      "count": 84,
      "min": [9, 1, 12],
      "max": [14, 4, 13]
    },
    {
      "bufferView": 8,
      "componentType": 5126,
      "type": "VEC3",
      "byteOffset": 12,
      "count": 84
    },
    {
      "bufferView": 8,
      "componentType": 5126,
      "type": "VEC4",
      "byteOffset": 24,
      "count": 84
    },
    {
      "bufferView": 9,
      "componentType": 5125,
      "type": "SCALAR",
      "count": 168
    },
    {
      "bufferView": 10,
      "componentType": 5126,
      "type": "VEC3",
      "count": 84,
      "min": [14, 1, 12],
      "max": [19, 4, 13]
    },
    {
      "bufferView": 10,
      "componentType": 5126,
      "type": "VEC3",
      "byteOffset": 12,
      "count": 84
    },
    {
      "bufferView": 10,
      "componentType": 5126,
      "type": "VEC4",
      "byteOffset": 24,
      "count": 84
    },
    {
      "bufferView": 11,
      "componentType": 5125,
      "type": "SCALAR",
      "count": 168
    },
    {
      "bufferView": 12,
      "componentType": 5126,
      "type": "VEC3",
      "count": 84,
      "min": [19, 1, 12],
      "max": [24, 4, 13]
    },
    {
      "bufferView": 12,
      "componentType": 5126,
      "type": "VEC3",
      "byteOffset": 12,
      "count": 84
    },
    {
      "bufferView": 12,
      "componentType": 5126,
      "type": "VEC4",
      "byteOffset": 24,
      "count": 84
    },
    {
      "bufferView": 13,
      "componentType": 5125,
      "type": "SCALAR",
      "count": 168
    }
  ],
  "asset": {
    "generator": "goxel",
    "version": "2.0"
  },
  "bufferViews": [
    {
      "buffer": 0,
      "byteLength": 2240,
      "byteStride": 40
    },
    {
      "buffer": 1,
      "byteLength": 432
    },
    {
      "buffer": 2,
      "byteLength": 2320,
      "byteStride": 40
    },
    {
      "buffer": 3,
      "byteLength": 456
    },
    {
      "buffer": 4,
      "byteLength": 3200,
      "byteStride": 40
    },
    {
      "buffer": 5,
      "byteLength": 624
    },
    {
      "buffer": 6,
      "byteLength": 3200,
      "byteStride": 40
    },
    {
      "buffer": 7,
      "byteLength": 624
    },
    {
      "buffer": 8,
      "byteLength": 3360,
      "byteStride": 40
    },
    {
      "buffer": 9,
      "byteLength": 672
    },
    {
      "buffer": 10,
      "byteLength": 3360,
      "byteStride": 40
    },
    {
      "buffer": 11,
      "byteLength": 672
    },
    {
      "buffer": 12,
      "byteLength": 3360,
      "byteStride": 40
    },
    {
      "buffer": 13,
      "byteLength": 672
    }
  ],
  "buffers": [
    {
      "uri": "data:application/octet-stream;base64,",
      "byteLength": 2240
    },
    {
      "uri": "data:application/octet-stream;base64,",
      "byteLength": 432
    },
    {
      "uri": "data:application/octet-stream;base64,",
      "byteLength": 2320
    },
    {
      "uri": "data:application/octet-stream;base64,",
      "byteLength": 456
    },
    {
      "uri": "data:application/octet-stream;base64,",
      "byteLength": 3200
    },
    {
      "uri": "data:application/octet-stream;base64,",
      "byteLength": 624
    },
    {
      "uri": "data:application/octet-stream;base64,",
      "byteLength": 3200
    },
    {
      "uri": "data:application/octet-stream;base64,",
      "byteLength": 624
    },
    {
      "uri": "data:application/octet-stream;base64,",
      "byteLength": 3360
    },
    {
      "uri": "data:application/octet-stream;base64,",
      "byteLength": 672
    },
    {
      "uri": "data:application/octet-stream;base64,",
      "byteLength": 3360
    },
    {
      "uri": "data:application/octet-stream;base64,",
      "byteLength": 672
    },
    {
      "uri": "data:application/octet-stream;base64,",
      "byteLength": 3360
    },
    {
      "uri": "data:application/octet-stream;base64,",
      "byteLength": 672
    }
  ],
  "meshes": [
    {
      "primitives": [
        {
          "indices": 3,
          "material": 0,
          "attributes": {
            "POSITION": 0,
            "NORMAL": 1,
            "COLOR_0": 2
          }
        }
      ]
    },
    {
      "primitives": [
        {
          "indices": 7,
          "material": 0,
          "attributes": {
            "POSITION": 4,
            "NORMAL": 5,
            "COLOR_0": 6
          }
        }
      ]
    },
    {
      "primitives": [
        {
          "indices": 11,
          "material": 0,
          "attributes": {
            "POSITION": 8,
            "NORMAL": 9,
            "COLOR_0": 10
          }
        }
      ]
    },
    {
      "primitives": [
        {
          "indices": 15,
          "material": 0,
          "attributes": {
            "POSITION": 12,
            "NORMAL": 13,
            "COLOR_0": 14
          }
        }
      ]
    },
    {
      "primitives": [
        {
          "indices": 19,
          "material": 0,
          "attributes": {
            "POSITION": 16,
            "NORMAL": 17,
            "COLOR_0": 18
          }
        }
      ]
    },
    {
      "primitives": [
        {
          "indices": 23,
          "material": 0,
          "attributes": {
            "POSITION": 20,
            "NORMAL": 21,
            "COLOR_0": 22
          }
        }
      ]
    },
    {
      "primitives": [
        {
          "indices": 27,
          "material": 0,
          "attributes": {
            "POSITION": 24,
            "NORMAL": 25,
            "COLOR_0": 26
          }
        }
      ]
    }
  ],
  "materials": [
    {
      "name": "Material.1",
      "pbrMetallicRoughness": {
        "metallicFactor": 0.200000003,
        "roughnessFactor": 0.5
      }
    },
    {
      "name": "Material.1",
      "pbrMetallicRoughness": {
        "metallicFactor": 0.200000003,
        "roughnessFactor": 0.5
      }
    }
  ],
  "nodes": [
    {
      "children": [ 1, 2, 3, 4, 5, 6, 7 ],
      "matrix": [1, 0, 0, 0, 0, 0, -1, 0, 0, 1, 0, 0, 0, 0, 0, 1]
    },
    {
      "mesh": 0,
      "name": "Piano.Pedals.0"
    },
    {
      "mesh": 1,
      "name": "Piano.Pedals.1"
    },
    {
      "mesh": 2,
      "name": "Piano.Pedals.2"
    },
    {
      "mesh": 3,
      "name": "Piano.Keys.0"
    },
    {
      "mesh": 4,
      "name": "Piano.Keys.1"
    },
    {
      "mesh": 5,
      "name": "Piano.Keys.2"
    },
    {
      "mesh": 6,
      "name": "Piano.Keys.3"
    }
  ],
  "scenes": [
    {
      "nodes": [ 0 ]
    }
  ]
}
