{
  "accessors": [
    {
      "bufferView": 0,
      "componentType": 5126,
      "type": "VEC3",
      "count": 192,
      "min": [0, 1, 1],
      "max": [2, 13, 23]
    },
    {
      "bufferView": 0,
      "componentType": 5126,
      "type": "VEC3",
      "byteOffset": 12,
      "count": 192
    },
    {
      "bufferView": 0,
      "componentType": 5126,
      "type": "VEC4",
      "byteOffset": 24,
      "count": 192
    },
    {
      "bufferView": 1,
      "componentType": 5125,
      "type": "SCALAR",
      "count": 468
    },
    {
      "bufferView": 2,
      "componentType": 5126,
      "type": "VEC3",
      "count": 192,
      "min": [0, 13, 1],
      "max": [2, 25, 23]
    },
    {
      "bufferView": 2,
      "componentType": 5126,
      "type": "VEC3",
      "byteOffset": 12,
      "count": 192
    },
    {
      "bufferView": 2,
      "componentType": 5126,
      "type": "VEC4",
      "byteOffset": 24,
      "count": 192
    },
    {
      "bufferView": 3,
      "componentType": 5125,
      "type": "SCALAR",
      "count": 468
    },
    {
      "bufferView": 4,
      "componentType": 5126,
      "type": "VEC3",
      "count": 100,
      "min": [0, 0, 0],
      "max": [2, 26, 24]
    },
    {
      "bufferView": 4,
      "componentType": 5126,
      "type": "VEC3",
      "byteOffset": 12,
      "count": 100
    },
    {
      "bufferView": 4,
      "componentType": 5126,
      "type": "VEC4",
      "byteOffset": 24,
      "count": 100
    },
    {
      "bufferView": 5,
      "componentType": 5125,
      "type": "SCALAR",
      "count": 240
    },
    {
      "bufferView": 6,
      "componentType": 5126,
      "type": "VEC3",
      "count": 40,
      "min": [0, 2, 16],
      "max": [1, 12, 22]
    },
    {
      "bufferView": 6,
      "componentType": 5126,
      "type": "VEC3",
      "byteOffset": 12,
      "count": 40
    },
    {
      "bufferView": 6,
      "componentType": 5126,
      "type": "VEC4",
      "byteOffset": 24,
      "count": 40
    },
    {
      "bufferView": 7,
      "componentType": 5125,
      "type": "SCALAR",
      "count": 84
    }
  ],
  "asset": {
    "generator": "goxel",
    "version": "2.0"
  },
  "bufferViews": [
    {
      "buffer": 0,
      "byteLength": 7680,
      "byteStride": 40
    },
    {
      "buffer": 1,
      "byteLength": 1872
    },
    {
      "buffer": 2,
      "byteLength": 7680,
      "byteStride": 40
    },
    {
      "buffer": 3,
      "byteLength": 1872
    },
    {
      "buffer": 4,
      "byteLength": 4000,
      "byteStride": 40
    },
    {
      "buffer": 5,
      "byteLength": 960
    },
    {
      "buffer": 6,
      "byteLength": 1600,
      "byteStride": 40
    },
    {
      "buffer": 7,
      "byteLength": 336
    }
  ],
  "buffers": [
    {
      "uri": "data:application/octet-stream;base64,",
      "byteLength": 7680
    },
    {
      "uri": "data:application/octet-stream;base64,",
      "byteLength": 1872
    },
    {
      "uri": "data:application/octet-stream;base64,",
      "byteLength": 7680
    },
    {
      "uri": "data:application/octet-stream;base64,",
      "byteLength": 1872
    },
    {
      "uri": "data:application/octet-stream;base64,",
      "byteLength": 4000
    },
    {
      "uri": "data:application/octet-stream;base64,",
      "byteLength": 960
    },
    {
      "uri": "data:application/octet-stream;base64,",
      "byteLength": 1600
    },
    {
      "uri": "data:application/octet-stream;base64,",
      "byteLength": 336
    }
  ],
  "meshes": [
    {
      "primitives": [
        {
          "indices": 3,
          "material": 0,
          "attributes": {
            "POSITION": 0,
            "NORMAL": 1,
            "COLOR_0": 2
          }
        }
      ]
    },
    {
      "primitives": [
        {
          "indices": 7,
          "material": 0,
          "attributes": {
            "POSITION": 4,
            "NORMAL": 5,
            "COLOR_0": 6
          }
        }
      ]
    },
    {
      "primitives": [
        {
          "indices": 11,
          "material": 0,
          "attributes": {
            "POSITION": 8,
            "NORMAL": 9,
            "COLOR_0": 10
          }
        }
      ]
    },
    {
      "primitives": [
        {
          "indices": 15,
          "material": 0,
          "attributes": {
            "POSITION": 12,
            "NORMAL": 13,
            "COLOR_0": 14
          }
        }
      ]
    }
  ],
  "materials": [
    {
      "name": "Material.1",
      "pbrMetallicRoughness": {
        "metallicFactor": 0.200000003,
        "roughnessFactor": 0.5
      }
    }
  ],
  "nodes": [
    {
      "children": [ 1, 2, 3, 4 ],
      "matrix": [1, 0, 0, 0, 0, 0, -1, 0, 0, 1, 0, 0, 0, 0, 0, 1]
    },
    {
      "mesh": 0,
      "name": "sidea"
    },
    {
      "mesh": 1,
      "name": "sideb"
    },
    {
      "mesh": 2,
      "name": "base"
    },
    {
      "mesh": 3,
      "name": "glass"
    }
  ],
  "scenes": [
    {
      "nodes": [ 0 ]
    }
  ]
}
