{
  "accessors": [
    {
      "bufferView": 0,
      "componentType": 5123,
      "type": "SCALAR",
      "count": 1128
    },
    {
      "bufferView": 1,
      "componentType": 5126,
      "type": "VEC3",
      "count": 752,
      "min": [10, 11, 2],
      "max": [16, 12, 16]
    },
    {
      "bufferView": 1,
      "componentType": 5126,
      "type": "VEC3",
      "byteOffset": 12,
      "count": 752
    },
    {
      "bufferView": 1,
      "componentType": 5121,
      "type": "VEC4",
      "normalized": true,
      "byteOffset": 24,
      "count": 752
    },
    {
      "bufferView": 2,
      "componentType": 5123,
      "type": "SCALAR",
      "count": 606
    },
    {
      "bufferView": 3,
      "componentType": 5126,
      "type": "VEC3",
      "count": 404,
      "min": [0, 11, 2],
      "max": [3, 12, 16]
    },
    {
      "bufferView": 3,
      "componentType": 5126,
      "type": "VEC3",
      "byteOffset": 12,
      "count": 404
    },
    {
      "bufferView": 3,
      "componentType": 5121,
      "type": "VEC4",
      "normalized": true,
      "byteOffset": 24,
      "count": 404
    },
    {
      "bufferView": 4,
      "componentType": 5123,
      "type": "SCALAR",
      "count": 1272
    },
    {
      "bufferView": 5,
      "componentType": 5126,
      "type": "VEC3",
      "count": 848,
      "min": [10, 10, 0],
      "max": [16, 12, 16]
    },
    {
      "bufferView": 5,
      "componentType": 5126,
      "type": "VEC3",
      "byteOffset": 12,
      "count": 848
    },
    {
      "bufferView": 5,
      "componentType": 5121,
      "type": "VEC4",
      "normalized": true,
      "byteOffset": 24,
      "count": 848
    },
    {
      "bufferView": 6,
      "componentType": 5123,
      "type": "SCALAR",
      "count": 672
    },
    {
      "bufferView": 7,
      "componentType": 5126,
      "type": "VEC3",
      "count": 448,
      "min": [0, 11, 0],
      "max": [3, 12, 16]
    },
    {
      "bufferView": 7,
      "componentType": 5126,
      "type": "VEC3",
      "byteOffset": 12,
      "count": 448
    },
    {
      "bufferView": 7,
      "componentType": 5121,
      "type": "VEC4",
      "normalized": true,
      "byteOffset": 24,
      "count": 448
    },
    {
      "bufferView": 8,
      "componentType": 5123,
      "type": "SCALAR",
      "count": 738
    },
    {
      "bufferView": 9,
      "componentType": 5126,
      "type": "VEC3",
      "count": 492,
      "min": [10, 11, 0],
      "max": [16, 12, 9]
    },
    {
      "bufferView": 9,
      "componentType": 5126,
      "type": "VEC3",
      "byteOffset": 12,
      "count": 492
    },
    {
      "bufferView": 9,
      "componentType": 5121,
      "type": "VEC4",
      "normalized": true,
      "byteOffset": 24,
      "count": 492
    },
    {
      "bufferView": 10,
      "componentType": 5123,
      "type": "SCALAR",
      "count": 396
    },
    {
      "bufferView": 11,
      "componentType": 5126,
      "type": "VEC3",
      "count": 264,
      "min": [0, 11, 0],
      "max": [3, 12, 9]
    },
    {
      "bufferView": 11,
      "componentType": 5126,
      "type": "VEC3",
      "byteOffset": 12,
      "count": 264
    },
    {
      "bufferView": 11,
      "componentType": 5121,
      "type": "VEC4",
      "normalized": true,
      "byteOffset": 24,
      "count": 264
    }
  ],
  "asset": {
    "generator": "goxel",
    "version": "2.0"
  },
  "bufferViews": [
    {
      "buffer": 1,
      "byteLength": 2256
    },
    {
      "buffer": 0,
      "byteLength": 24064,
      "byteStride": 32
    },
    {
      "buffer": 3,
      "byteLength": 1212
    },
    {
      "buffer": 2,
      "byteLength": 12928,
      "byteStride": 32
    },
    {
      "buffer": 5,
      "byteLength": 2544
    },
    {
      "buffer": 4,
      "byteLength": 27136,
      "byteStride": 32
    },
    {
      "buffer": 7,
      "byteLength": 1344
    },
    {
      "buffer": 6,
      "byteLength": 14336,
      "byteStride": 32
    },
    {
      "buffer": 9,
      "byteLength": 1476
    },
    {
      "buffer": 8,
      "byteLength": 15744,
      "byteStride": 32
    },
    {
      "buffer": 11,
      "byteLength": 792
    },
    {
      "buffer": 10,
      "byteLength": 8448,
      "byteStride": 32
    }
  ],
  "buffers": [
    {
      "uri": "data:application/octet-stream;base64,",
      "byteLength": 24064
    },
    {
      "uri": "data:application/octet-stream;base64,",
      "byteLength": 2256
    },
    {
      "uri": "data:application/octet-stream;base64,",
      "byteLength": 12928
    },
    {
      "uri": "data:application/octet-stream;base64,",
      "byteLength": 1212
    },
    {
      "uri": "data:application/octet-stream;base64,",
      "byteLength": 27136
    },
    {
      "uri": "data:application/octet-stream;base64,",
      "byteLength": 2544
    },
    {
      "uri": "data:application/octet-stream;base64,",
      "byteLength": 14336
    },
    {
      "uri": "data:application/octet-stream;base64,",
      "byteLength": 1344
    },
    {
      "uri": "data:application/octet-stream;base64,",
      "byteLength": 15744
    },
    {
      "uri": "data:application/octet-stream;base64,",
      "byteLength": 1476
    },
    {
      "uri": "data:application/octet-stream;base64,",
      "byteLength": 8448
    },
    {
      "uri": "data:application/octet-stream;base64,",
      "byteLength": 792
    }
  ],
  "meshes": [
    {
      "primitives": [
        {
          "indices": 0,
          "material": 0,
          "attributes": {
            "POSITION": 1,
            "NORMAL": 2,
            "COLOR_0": 3
          }
        }
      ]
    },
    {
      "primitives": [
        {
          "indices": 4,
          "material": 0,
          "attributes": {
            "POSITION": 5,
            "NORMAL": 6,
            "COLOR_0": 7
          }
        }
      ]
    },
    {
      "primitives": [
        {
          "indices": 8,
          "material": 0,
          "attributes": {
            "POSITION": 9,
            "NORMAL": 10,
            "COLOR_0": 11
          }
        }
      ]
    },
    {
      "primitives": [
        {
          "indices": 12,
          "material": 0,
          "attributes": {
            "POSITION": 13,
            "NORMAL": 14,
            "COLOR_0": 15
          }
        }
      ]
    },
    {
      "primitives": [
        {
          "indices": 16,
          "material": 0,
          "attributes": {
            "POSITION": 17,
            "NORMAL": 18,
            "COLOR_0": 19
          }
        }
      ]
    },
    {
      "primitives": [
        {
          "indices": 20,
          "material": 0,
          "attributes": {
            "POSITION": 21,
            "NORMAL": 22,
            "COLOR_0": 23
          }
        }
      ]
    }
  ],
  "materials": [
    {
      "name": "Material.1",
      "pbrMetallicRoughness": {
        "metallicFactor": 0.200000003,
        "roughnessFactor": 0.5
      }
    }
  ],
  "nodes": [
    {
      "children": [ 7 ],
      "matrix": [1, 0, 0, 0, 0, 0, -1, 0, 0, 1, 0, 0, 0, 0, 0, 1]
    },
    {
      "mesh": 0,
      "translation": [0, 0, 0]
    },
    {
      "mesh": 1,
      "translation": [16, 0, 0]
    },
    {
      "mesh": 2,
      "translation": [0, 0, 16]
    },
    {
      "mesh": 3,
      "translation": [16, 0, 16]
    },
    {
      "mesh": 4,
      "translation": [0, 0, 32]
    },
    {
      "mesh": 5,
      "translation": [16, 0, 32]
    },
    {
      "children": [ 1, 2, 3, 4, 5, 6 ]
    }
  ],
  "scenes": [
    {
      "nodes": [ 0 ]
    }
  ]
}
