{
  "accessors": [
    {
      "bufferView": 0,
      "componentType": 5123,
      "type": "SCALAR",
      "count": 942
    },
    {
      "bufferView": 1,
      "componentType": 5126,
      "type": "VEC3",
      "count": 628,
      "min": [0, 0, 0],
      "max": [2, 16, 16]
    },
    {
      "bufferView": 1,
      "componentType": 5126,
      "type": "VEC3",
      "byteOffset": 12,
      "count": 628
    },
    {
      "bufferView": 1,
      "componentType": 5121,
      "type": "VEC4",
      "normalized": true,
      "byteOffset": 24,
      "count": 628
    },
    {
      "bufferView": 2,
      "componentType": 5123,
      "type": "SCALAR",
      "count": 726
    },
    {
      "bufferView": 3,
      "componentType": 5126,
      "type": "VEC3",
      "count": 484,
      "min": [0, 0, 0],
      "max": [2, 10, 16]
    },
    {
      "bufferView": 3,
      "componentType": 5126,
      "type": "VEC3",
      "byteOffset": 12,
      "count": 484
    },
    {
      "bufferView": 3,
      "componentType": 5121,
      "type": "VEC4",
      "normalized": true,
      "byteOffset": 24,
      "count": 484
    },
    {
      "bufferView": 4,
      "componentType": 5123,
      "type": "SCALAR",
      "count": 552
    },
    {
      "bufferView": 5,
      "componentType": 5126,
      "type": "VEC3",
      "count": 368,
      "min": [0, 0, 0],
      "max": [1, 16, 8]
    },
    {
      "bufferView": 5,
      "componentType": 5126,
      "type": "VEC3",
      "byteOffset": 12,
      "count": 368
    },
    {
      "bufferView": 5,
      "componentType": 5121,
      "type": "VEC4",
      "normalized": true,
      "byteOffset": 24,
      "count": 368
    },
    {
      "bufferView": 6,
      "componentType": 5123,
      "type": "SCALAR",
      "count": 408
    },
    {
      "bufferView": 7,
      "componentType": 5126,
      "type": "VEC3",
      "count": 272,
      "min": [0, 0, 0],
      "max": [1, 10, 8]
    },
    {
      "bufferView": 7,
      "componentType": 5126,
      "type": "VEC3",
      "byteOffset": 12,
      "count": 272
    },
    {
      "bufferView": 7,
      "componentType": 5121,
      "type": "VEC4",
      "normalized": true,
      "byteOffset": 24,
      "count": 272
    }
  ],
  "asset": {
    "generator": "goxel",
    "version": "2.0"
  },
  "bufferViews": [
    {
      "buffer": 1,
      "byteLength": 1884
    },
    {
      "buffer": 0,
      "byteLength": 20096,
      "byteStride": 32
    },
    {
      "buffer": 3,
      "byteLength": 1452
    },
    {
      "buffer": 2,
      "byteLength": 15488,
      "byteStride": 32
    },
    {
      "buffer": 5,
      "byteLength": 1104
    },
    {
      "buffer": 4,
      "byteLength": 11776,
      "byteStride": 32
    },
    {
      "buffer": 7,
      "byteLength": 816
    },
    {
      "buffer": 6,
      "byteLength": 8704,
      "byteStride": 32
    }
  ],
  "buffers": [
    {
      "uri": "data:application/octet-stream;base64,",
      "byteLength": 20096
    },
    {
      "uri": "data:application/octet-stream;base64,",
      "byteLength": 1884
    },
    {
      "uri": "data:application/octet-stream;base64,",
      "byteLength": 15488
    },
    {
      "uri": "data:application/octet-stream;base64,",
      "byteLength": 1452
    },
    {
      "uri": "data:application/octet-stream;base64,",
      "byteLength": 11776
    },
    {
      "uri": "data:application/octet-stream;base64,",
      "byteLength": 1104
    },
    {
      "uri": "data:application/octet-stream;base64,",
      "byteLength": 8704
    },
    {
      "uri": "data:application/octet-stream;base64,",
      "byteLength": 816
    }
  ],
  "meshes": [
    {
      "primitives": [
        {
          "indices": 0,
          "material": 0,
          "attributes": {
            "POSITION": 1,
            "NORMAL": 2,
            "COLOR_0": 3
          }
        }
      ]
    },
    {
      "primitives": [
        {
          "indices": 4,
          "material": 0,
          "attributes": {
            "POSITION": 5,
            "NORMAL": 6,
            "COLOR_0": 7
          }
        }
      ]
    },
    {
      "primitives": [
        {
          "indices": 8,
          "material": 0,
          "attributes": {
            "POSITION": 9,
            "NORMAL": 10,
            "COLOR_0": 11
          }
        }
      ]
    },
    {
      "primitives": [
        {
          "indices": 12,
          "material": 0,
          "attributes": {
            "POSITION": 13,
            "NORMAL": 14,
            "COLOR_0": 15
          }
        }
      ]
    }
  ],
  "materials": [
    {
      "name": "Material.1",
      "pbrMetallicRoughness": {
        "metallicFactor": 0.200000003,
        "roughnessFactor": 0.5
      }
    }
  ],
  "nodes": [
    {
      "children": [ 5 ],
      "matrix": [1, 0, 0, 0, 0, 0, -1, 0, 0, 1, 0, 0, 0, 0, 0, 1]
    },
    {
      "mesh": 0,
      "translation": [0, 0, 0]
    },
    {
      "mesh": 1,
      "translation": [0, 16, 0]
    },
    {
      "mesh": 2,
      "translation": [0, 0, 16]
    },
    {
      "mesh": 3,
      "translation": [0, 16, 16]
    },
    {
      "children": [ 1, 2, 3, 4 ]
    }
  ],
  "scenes": [
    {
      "nodes": [ 0 ]
    }
  ]
}
