{
  "accessors": [
    {
      "bufferView": 0,
      "componentType": 5123,
      "type": "SCALAR",
      "count": 1440
    },
    {
      "bufferView": 1,
      "componentType": 5126,
      "type": "VEC3",
      "count": 960,
      "min": [1, 1, 1],
      "max": [3, 13, 16]
    },
    {
      "bufferView": 1,
      "componentType": 5126,
      "type": "VEC3",
      "byteOffset": 12,
      "count": 960
    },
    {
      "bufferView": 1,
      "componentType": 5121,
      "type": "VEC4",
      "normalized": true,
      "byteOffset": 24,
      "count": 960
    },
    {
      "bufferView": 2,
      "componentType": 5123,
      "type": "SCALAR",
      "count": 576
    },
    {
      "bufferView": 3,
      "componentType": 5126,
      "type": "VEC3",
      "count": 384,
      "min": [1, 1, 0],
      "max": [2, 13, 7]
    },
    {
      "bufferView": 3,
      "componentType": 5126,
      "type": "VEC3",
      "byteOffset": 12,
      "count": 384
    },
    {
      "bufferView": 3,
      "componentType": 5121,
      "type": "VEC4",
      "normalized": true,
      "byteOffset": 24,
      "count": 384
    }
  ],
  "asset": {
    "generator": "goxel",
    "version": "2.0"
  },
  "bufferViews": [
    {
      "buffer": 1,
      "byteLength": 2880
    },
    {
      "buffer": 0,
      "byteLength": 30720,
      "byteStride": 32
    },
    {
      "buffer": 3,
      "byteLength": 1152
    },
    {
      "buffer": 2,
      "byteLength": 12288,
      "byteStride": 32
    }
  ],
  "buffers": [
    {
      "uri": "data:application/octet-stream;base64,",
      "byteLength": 30720
    },
    {
      "uri": "data:application/octet-stream;base64,",
      "byteLength": 2880
    },
    {
      "uri": "data:application/octet-stream;base64,",
      "byteLength": 12288
    },
    {
      "uri": "data:application/octet-stream;base64,",
      "byteLength": 1152
    }
  ],
  "meshes": [
    {
      "primitives": [
        {
          "indices": 0,
          "material": 0,
          "attributes": {
            "POSITION": 1,
            "NORMAL": 2,
            "COLOR_0": 3
          }
        }
      ]
    },
    {
      "primitives": [
        {
          "indices": 4,
          "material": 0,
          "attributes": {
            "POSITION": 5,
            "NORMAL": 6,
            "COLOR_0": 7
          }
        }
      ]
    }
  ],
  "materials": [
    {
      "name": "Material.1",
      "pbrMetallicRoughness": {
        "metallicFactor": 0.200000003,
        "roughnessFactor": 0.5
      }
    }
  ],
  "nodes": [
    {
      "children": [ 3 ],
      "matrix": [1, 0, 0, 0, 0, 0, -1, 0, 0, 1, 0, 0, 0, 0, 0, 1]
    },
    {
      "mesh": 0,
      "translation": [0, 0, 0]
    },
    {
      "mesh": 1,
      "translation": [0, 0, 16]
    },
    {
      "children": [ 1, 2 ]
    }
  ],
  "scenes": [
    {
      "nodes": [ 0 ]
    }
  ]
}
