{
  "accessors": [
    {
      "bufferView": 0,
      "componentType": 5123,
      "type": "SCALAR",
      "count": 576
    },
    {
      "bufferView": 1,
      "componentType": 5126,
      "type": "VEC3",
      "count": 384,
      "min": [0, 0, 8],
      "max": [16, 2, 9]
    },
    {
      "bufferView": 1,
      "componentType": 5126,
      "type": "VEC3",
      "byteOffset": 12,
      "count": 384
    },
    {
      "bufferView": 1,
      "componentType": 5121,
      "type": "VEC4",
      "normalized": true,
      "byteOffset": 24,
      "count": 384
    },
    {
      "bufferView": 2,
      "componentType": 5123,
      "type": "SCALAR",
      "count": 612
    },
    {
      "bufferView": 3,
      "componentType": 5126,
      "type": "VEC3",
      "count": 408,
      "min": [0, 0, 0],
      "max": [9, 2, 9]
    },
    {
      "bufferView": 3,
      "componentType": 5126,
      "type": "VEC3",
      "byteOffset": 12,
      "count": 408
    },
    {
      "bufferView": 3,
      "componentType": 5121,
      "type": "VEC4",
      "normalized": true,
      "byteOffset": 24,
      "count": 408
    },
    {
      "bufferView": 4,
      "componentType": 5123,
      "type": "SCALAR",
      "count": 588
    },
    {
      "bufferView": 5,
      "componentType": 5126,
      "type": "VEC3",
      "count": 392,
      "min": [8, 0, 0],
      "max": [9, 2, 16]
    },
    {
      "bufferView": 5,
      "componentType": 5126,
      "type": "VEC3",
      "byteOffset": 12,
      "count": 392
    },
    {
      "bufferView": 5,
      "componentType": 5121,
      "type": "VEC4",
      "normalized": true,
      "byteOffset": 24,
      "count": 392
    },
    {
      "bufferView": 6,
      "componentType": 5123,
      "type": "SCALAR",
      "count": 576
    },
    {
      "bufferView": 7,
      "componentType": 5126,
      "type": "VEC3",
      "count": 384,
      "min": [8, 0, 0],
      "max": [9, 2, 16]
    },
    {
      "bufferView": 7,
      "componentType": 5126,
      "type": "VEC3",
      "byteOffset": 12,
      "count": 384
    },
    {
      "bufferView": 7,
      "componentType": 5121,
      "type": "VEC4",
      "normalized": true,
      "byteOffset": 24,
      "count": 384
    },
    {
      "bufferView": 8,
      "componentType": 5123,
      "type": "SCALAR",
      "count": 324
    },
    {
      "bufferView": 9,
      "componentType": 5126,
      "type": "VEC3",
      "count": 216,
      "min": [15, 0, 0],
      "max": [16, 2, 9]
    },
    {
      "bufferView": 9,
      "componentType": 5126,
      "type": "VEC3",
      "byteOffset": 12,
      "count": 216
    },
    {
      "bufferView": 9,
      "componentType": 5121,
      "type": "VEC4",
      "normalized": true,
      "byteOffset": 24,
      "count": 216
    },
    {
      "bufferView": 10,
      "componentType": 5123,
      "type": "SCALAR",
      "count": 588
    },
    {
      "bufferView": 11,
      "componentType": 5126,
      "type": "VEC3",
      "count": 392,
      "min": [15, 0, 0],
      "max": [16, 2, 16]
    },
    {
      "bufferView": 11,
      "componentType": 5126,
      "type": "VEC3",
      "byteOffset": 12,
      "count": 392
    },
    {
      "bufferView": 11,
      "componentType": 5121,
      "type": "VEC4",
      "normalized": true,
      "byteOffset": 24,
      "count": 392
    },
    {
      "bufferView": 12,
      "componentType": 5123,
      "type": "SCALAR",
      "count": 576
    },
    {
      "bufferView": 13,
      "componentType": 5126,
      "type": "VEC3",
      "count": 384,
      "min": [15, 0, 0],
      "max": [16, 2, 16]
    },
    {
      "bufferView": 13,
      "componentType": 5126,
      "type": "VEC3",
      "byteOffset": 12,
      "count": 384
    },
    {
      "bufferView": 13,
      "componentType": 5121,
      "type": "VEC4",
      "normalized": true,
      "byteOffset": 24,
      "count": 384
    }
  ],
  "asset": {
    "generator": "goxel",
    "version": "2.0"
  },
  "bufferViews": [
    {
      "buffer": 1,
      "byteLength": 1152
    },
    {
      "buffer": 0,
      "byteLength": 12288,
      "byteStride": 32
    },
    {
      "buffer": 3,
      "byteLength": 1224
    },
    {
      "buffer": 2,
      "byteLength": 13056,
      "byteStride": 32
    },
    {
      "buffer": 5,
      "byteLength": 1176
    },
    {
      "buffer": 4,
      "byteLength": 12544,
      "byteStride": 32
    },
    {
      "buffer": 7,
      "byteLength": 1152
    },
    {
      "buffer": 6,
      "byteLength": 12288,
      "byteStride": 32
    },
    {
      "buffer": 9,
      "byteLength": 648
    },
    {
      "buffer": 8,
      "byteLength": 6912,
      "byteStride": 32
    },
    {
      "buffer": 11,
      "byteLength": 1176
    },
    {
      "buffer": 10,
      "byteLength": 12544,
      "byteStride": 32
    },
    {
      "buffer": 13,
      "byteLength": 1152
    },
    {
      "buffer": 12,
      "byteLength": 12288,
      "byteStride": 32
    }
  ],
  "buffers": [
    {
      "uri": "data:application/octet-stream;base64,",
      "byteLength": 12288
    },
    {
      "uri": "data:application/octet-stream;base64,",
      "byteLength": 1152
    },
    {
      "uri": "data:application/octet-stream;base64,",
      "byteLength": 13056
    },
    {
      "uri": "data:application/octet-stream;base64,",
      "byteLength": 1224
    },
    {
      "uri": "data:application/octet-stream;base64,",
      "byteLength": 12544
    },
    {
      "uri": "data:application/octet-stream;base64,",
      "byteLength": 1176
    },
    {
      "uri": "data:application/octet-stream;base64,",
      "byteLength": 12288
    },
    {
      "uri": "data:application/octet-stream;base64,",
      "byteLength": 1152
    },
    {
      "uri": "data:application/octet-stream;base64,",
      "byteLength": 6912
    },
    {
      "uri": "data:application/octet-stream;base64,",
      "byteLength": 648
    },
    {
      "uri": "data:application/octet-stream;base64,",
      "byteLength": 12544
    },
    {
      "uri": "data:application/octet-stream;base64,",
      "byteLength": 1176
    },
    {
      "uri": "data:application/octet-stream;base64,",
      "byteLength": 12288
    },
    {
      "uri": "data:application/octet-stream;base64,",
      "byteLength": 1152
    }
  ],
  "meshes": [
    {
      "primitives": [
        {
          "indices": 0,
          "material": 0,
          "attributes": {
            "POSITION": 1,
            "NORMAL": 2,
            "COLOR_0": 3
          }
        }
      ]
    },
    {
      "primitives": [
        {
          "indices": 4,
          "material": 0,
          "attributes": {
            "POSITION": 5,
            "NORMAL": 6,
            "COLOR_0": 7
          }
        }
      ]
    },
    {
      "primitives": [
        {
          "indices": 8,
          "material": 0,
          "attributes": {
            "POSITION": 9,
            "NORMAL": 10,
            "COLOR_0": 11
          }
        }
      ]
    },
    {
      "primitives": [
        {
          "indices": 12,
          "material": 0,
          "attributes": {
            "POSITION": 13,
            "NORMAL": 14,
            "COLOR_0": 15
          }
        }
      ]
    },
    {
      "primitives": [
        {
          "indices": 16,
          "material": 0,
          "attributes": {
            "POSITION": 17,
            "NORMAL": 18,
            "COLOR_0": 19
          }
        }
      ]
    },
    {
      "primitives": [
        {
          "indices": 20,
          "material": 0,
          "attributes": {
            "POSITION": 21,
            "NORMAL": 22,
            "COLOR_0": 23
          }
        }
      ]
    },
    {
      "primitives": [
        {
          "indices": 24,
          "material": 0,
          "attributes": {
            "POSITION": 25,
            "NORMAL": 26,
            "COLOR_0": 27
          }
        }
      ]
    }
  ],
  "materials": [
    {
      "name": "Material.1",
      "pbrMetallicRoughness": {
        "metallicFactor": 0.200000003,
        "roughnessFactor": 0.5
      }
    },
    {
      "name": "Material.1",
      "pbrMetallicRoughness": {
        "metallicFactor": 0.200000003,
        "roughnessFactor": 0.5
      }
    }
  ],
  "nodes": [
    {
      "children": [ 1, 9 ],
      "matrix": [1, 0, 0, 0, 0, 0, -1, 0, 0, 1, 0, 0, 0, 0, 0, 1]
    },
    {
      "children": [ ]
    },
    {
      "mesh": 0,
      "translation": [0, 0, 32]
    },
    {
      "mesh": 1,
      "translation": [16, 0, 32]
    },
    {
      "mesh": 2,
      "translation": [16, 0, 0]
    },
    {
      "mesh": 3,
      "translation": [16, 0, 16]
    },
    {
      "mesh": 4,
      "translation": [-16, 0, 32]
    },
    {
      "mesh": 5,
      "translation": [-16, 0, 0]
    },
    {
      "mesh": 6,
      "translation": [-16, 0, 16]
    },
    {
      "children": [ 2, 3, 4, 5, 6, 7, 8 ]
    }
  ],
  "scenes": [
    {
      "nodes": [ 0 ]
    }
  ]
}
