{
  "accessors": [
    {
      "bufferView": 0,
      "componentType": 5123,
      "type": "SCALAR",
      "count": 234
    },
    {
      "bufferView": 1,
      "componentType": 5126,
      "type": "VEC3",
      "count": 156,
      "min": [0, 0, 0],
      "max": [1, 3, 16]
    },
    {
      "bufferView": 1,
      "componentType": 5126,
      "type": "VEC3",
      "byteOffset": 12,
      "count": 156
    },
    {
      "bufferView": 1,
      "componentType": 5121,
      "type": "VEC4",
      "normalized": true,
      "byteOffset": 24,
      "count": 156
    },
    {
      "bufferView": 2,
      "componentType": 5123,
      "type": "SCALAR",
      "count": 234
    },
    {
      "bufferView": 3,
      "componentType": 5126,
      "type": "VEC3",
      "count": 156,
      "min": [0, 13, 0],
      "max": [1, 16, 16]
    },
    {
      "bufferView": 3,
      "componentType": 5126,
      "type": "VEC3",
      "byteOffset": 12,
      "count": 156
    },
    {
      "bufferView": 3,
      "componentType": 5121,
      "type": "VEC4",
      "normalized": true,
      "byteOffset": 24,
      "count": 156
    },
    {
      "bufferView": 4,
      "componentType": 5123,
      "type": "SCALAR",
      "count": 894
    },
    {
      "bufferView": 5,
      "componentType": 5126,
      "type": "VEC3",
      "count": 596,
      "min": [13, 11, 0],
      "max": [16, 16, 16]
    },
    {
      "bufferView": 5,
      "componentType": 5126,
      "type": "VEC3",
      "byteOffset": 12,
      "count": 596
    },
    {
      "bufferView": 5,
      "componentType": 5121,
      "type": "VEC4",
      "normalized": true,
      "byteOffset": 24,
      "count": 596
    },
    {
      "bufferView": 6,
      "componentType": 5123,
      "type": "SCALAR",
      "count": 894
    },
    {
      "bufferView": 7,
      "componentType": 5126,
      "type": "VEC3",
      "count": 596,
      "min": [13, 0, 0],
      "max": [16, 5, 16]
    },
    {
      "bufferView": 7,
      "componentType": 5126,
      "type": "VEC3",
      "byteOffset": 12,
      "count": 596
    },
    {
      "bufferView": 7,
      "componentType": 5121,
      "type": "VEC4",
      "normalized": true,
      "byteOffset": 24,
      "count": 596
    },
    {
      "bufferView": 8,
      "componentType": 5123,
      "type": "SCALAR",
      "count": 1236
    },
    {
      "bufferView": 9,
      "componentType": 5126,
      "type": "VEC3",
      "count": 824,
      "min": [10, 11, 0],
      "max": [16, 16, 16]
    },
    {
      "bufferView": 9,
      "componentType": 5126,
      "type": "VEC3",
      "byteOffset": 12,
      "count": 824
    },
    {
      "bufferView": 9,
      "componentType": 5121,
      "type": "VEC4",
      "normalized": true,
      "byteOffset": 24,
      "count": 824
    },
    {
      "bufferView": 10,
      "componentType": 5123,
      "type": "SCALAR",
      "count": 936
    },
    {
      "bufferView": 11,
      "componentType": 5126,
      "type": "VEC3",
      "count": 624,
      "min": [0, 11, 0],
      "max": [4, 16, 16]
    },
    {
      "bufferView": 11,
      "componentType": 5126,
      "type": "VEC3",
      "byteOffset": 12,
      "count": 624
    },
    {
      "bufferView": 11,
      "componentType": 5121,
      "type": "VEC4",
      "normalized": true,
      "byteOffset": 24,
      "count": 624
    },
    {
      "bufferView": 12,
      "componentType": 5123,
      "type": "SCALAR",
      "count": 1236
    },
    {
      "bufferView": 13,
      "componentType": 5126,
      "type": "VEC3",
      "count": 824,
      "min": [10, 0, 0],
      "max": [16, 5, 16]
    },
    {
      "bufferView": 13,
      "componentType": 5126,
      "type": "VEC3",
      "byteOffset": 12,
      "count": 824
    },
    {
      "bufferView": 13,
      "componentType": 5121,
      "type": "VEC4",
      "normalized": true,
      "byteOffset": 24,
      "count": 824
    },
    {
      "bufferView": 14,
      "componentType": 5123,
      "type": "SCALAR",
      "count": 876
    },
    {
      "bufferView": 15,
      "componentType": 5126,
      "type": "VEC3",
      "count": 584,
      "min": [0, 0, 0],
      "max": [4, 5, 16]
    },
    {
      "bufferView": 15,
      "componentType": 5126,
      "type": "VEC3",
      "byteOffset": 12,
      "count": 584
    },
    {
      "bufferView": 15,
      "componentType": 5121,
      "type": "VEC4",
      "normalized": true,
      "byteOffset": 24,
      "count": 584
    },
    {
      "bufferView": 16,
      "componentType": 5123,
      "type": "SCALAR",
      "count": 72
    },
    {
      "bufferView": 17,
      "componentType": 5126,
      "type": "VEC3",
      "count": 48,
      "min": [1, 2, 0],
      "max": [3, 4, 1]
    },
    {
      "bufferView": 17,
      "componentType": 5126,
      "type": "VEC3",
      "byteOffset": 12,
      "count": 48
    },
    {
      "bufferView": 17,
      "componentType": 5121,
      "type": "VEC4",
      "normalized": true,
      "byteOffset": 24,
      "count": 48
    }
  ],
  "asset": {
    "generator": "goxel",
    "version": "2.0"
  },
  "bufferViews": [
    {
      "buffer": 1,
      "byteLength": 468
    },
    {
      "buffer": 0,
      "byteLength": 4992,
      "byteStride": 32
    },
    {
      "buffer": 3,
      "byteLength": 468
    },
    {
      "buffer": 2,
      "byteLength": 4992,
      "byteStride": 32
    },
    {
      "buffer": 5,
      "byteLength": 1788
    },
    {
      "buffer": 4,
      "byteLength": 19072,
      "byteStride": 32
    },
    {
      "buffer": 7,
      "byteLength": 1788
    },
    {
      "buffer": 6,
      "byteLength": 19072,
      "byteStride": 32
    },
    {
      "buffer": 9,
      "byteLength": 2472
    },
    {
      "buffer": 8,
      "byteLength": 26368,
      "byteStride": 32
    },
    {
      "buffer": 11,
      "byteLength": 1872
    },
    {
      "buffer": 10,
      "byteLength": 19968,
      "byteStride": 32
    },
    {
      "buffer": 13,
      "byteLength": 2472
    },
    {
      "buffer": 12,
      "byteLength": 26368,
      "byteStride": 32
    },
    {
      "buffer": 15,
      "byteLength": 1752
    },
    {
      "buffer": 14,
      "byteLength": 18688,
      "byteStride": 32
    },
    {
      "buffer": 17,
      "byteLength": 144
    },
    {
      "buffer": 16,
      "byteLength": 1536,
      "byteStride": 32
    }
  ],
  "buffers": [
    {
      "uri": "data:application/octet-stream;base64,",
      "byteLength": 4992
    },
    {
      "uri": "data:application/octet-stream;base64,",
      "byteLength": 468
    },
    {
      "uri": "data:application/octet-stream;base64,",
      "byteLength": 4992
    },
    {
      "uri": "data:application/octet-stream;base64,",
      "byteLength": 468
    },
    {
      "uri": "data:application/octet-stream;base64,",
      "byteLength": 19072
    },
    {
      "uri": "data:application/octet-stream;base64,",
      "byteLength": 1788
    },
    {
      "uri": "data:application/octet-stream;base64,",
      "byteLength": 19072
    },
    {
      "uri": "data:application/octet-stream;base64,",
      "byteLength": 1788
    },
    {
      "uri": "data:application/octet-stream;base64,",
      "byteLength": 26368
    },
    {
      "uri": "data:application/octet-stream;base64,",
      "byteLength": 2472
    },
    {
      "uri": "data:application/octet-stream;base64,",
      "byteLength": 19968
    },
    {
      "uri": "data:application/octet-stream;base64,",
      "byteLength": 1872
    },
    {
      "uri": "data:application/octet-stream;base64,",
      "byteLength": 26368
    },
    {
      "uri": "data:application/octet-stream;base64,",
      "byteLength": 2472
    },
    {
      "uri": "data:application/octet-stream;base64,",
      "byteLength": 18688
    },
    {
      "uri": "data:application/octet-stream;base64,",
      "byteLength": 1752
    },
    {
      "uri": "data:application/octet-stream;base64,",
      "byteLength": 1536
    },
    {
      "uri": "data:application/octet-stream;base64,",
      "byteLength": 144
    }
  ],
  "meshes": [
    {
      "primitives": [
        {
          "indices": 0,
          "material": 0,
          "attributes": {
            "POSITION": 1,
            "NORMAL": 2,
            "COLOR_0": 3
          }
        }
      ]
    },
    {
      "primitives": [
        {
          "indices": 4,
          "material": 0,
          "attributes": {
            "POSITION": 5,
            "NORMAL": 6,
            "COLOR_0": 7
          }
        }
      ]
    },
    {
      "primitives": [
        {
          "indices": 8,
          "material": 0,
          "attributes": {
            "POSITION": 9,
            "NORMAL": 10,
            "COLOR_0": 11
          }
        }
      ]
    },
    {
      "primitives": [
        {
          "indices": 12,
          "material": 0,
          "attributes": {
            "POSITION": 13,
            "NORMAL": 14,
            "COLOR_0": 15
          }
        }
      ]
    },
    {
      "primitives": [
        {
          "indices": 16,
          "material": 0,
          "attributes": {
            "POSITION": 17,
            "NORMAL": 18,
            "COLOR_0": 19
          }
        }
      ]
    },
    {
      "primitives": [
        {
          "indices": 20,
          "material": 0,
          "attributes": {
            "POSITION": 21,
            "NORMAL": 22,
            "COLOR_0": 23
          }
        }
      ]
    },
    {
      "primitives": [
        {
          "indices": 24,
          "material": 0,
          "attributes": {
            "POSITION": 25,
            "NORMAL": 26,
            "COLOR_0": 27
          }
        }
      ]
    },
    {
      "primitives": [
        {
          "indices": 28,
          "material": 0,
          "attributes": {
            "POSITION": 29,
            "NORMAL": 30,
            "COLOR_0": 31
          }
        }
      ]
    },
    {
      "primitives": [
        {
          "indices": 32,
          "material": 0,
          "attributes": {
            "POSITION": 33,
            "NORMAL": 34,
            "COLOR_0": 35
          }
        }
      ]
    }
  ],
  "materials": [
    {
      "name": "Material.1",
      "pbrMetallicRoughness": {
        "metallicFactor": 0.200000003,
        "roughnessFactor": 0.5
      }
    }
  ],
  "nodes": [
    {
      "children": [ 9, 11 ],
      "matrix": [1, 0, 0, 0, 0, 0, -1, 0, 0, 1, 0, 0, 0, 0, 0, 1]
    },
    {
      "mesh": 0,
      "translation": [0, 0, 0]
    },
    {
      "mesh": 1,
      "translation": [0, -16, 0]
    },
    {
      "mesh": 2,
      "translation": [-16, -16, 0]
    },
    {
      "mesh": 3,
      "translation": [-16, 0, 0]
    },
    {
      "mesh": 4,
      "translation": [-16, -16, 16]
    },
    {
      "mesh": 5,
      "translation": [0, -16, 16]
    },
    {
      "mesh": 6,
      "translation": [-16, 0, 16]
    },
    {
      "mesh": 7,
      "translation": [0, 0, 16]
    },
    {
      "children": [ 1, 2, 3, 4, 5, 6, 7, 8 ]
    },
    {
      "mesh": 8,
      "translation": [0, 0, 32]
    },
    {
      "children": [ 10 ]
    }
  ],
  "scenes": [
    {
      "nodes": [ 0 ]
    }
  ]
}
