{
  "accessors": [
    {
      "bufferView": 0,
      "componentType": 5126,
      "type": "VEC3",
      "count": 2156,
      "min": [-25, 1, 0],
      "max": [-11, 21, 35]
    },
    {
      "bufferView": 0,
      "componentType": 5126,
      "type": "VEC3",
      "byteOffset": 12,
      "count": 2156
    },
    {
      "bufferView": 0,
      "componentType": 5126,
      "type": "VEC4",
      "byteOffset": 24,
      "count": 2156
    },
    {
      "bufferView": 1,
      "componentType": 5125,
      "type": "SCALAR",
      "count": 6198
    },
    {
      "bufferView": 2,
      "componentType": 5126,
      "type": "VEC3",
      "count": 122,
      "min": [-21, 17, 2],
      "max": [-16, 20, 5]
    },
    {
      "bufferView": 2,
      "componentType": 5126,
      "type": "VEC3",
      "byteOffset": 12,
      "count": 122
    },
    {
      "bufferView": 2,
      "componentType": 5126,
      "type": "VEC4",
      "byteOffset": 24,
      "count": 122
    },
    {
      "bufferView": 3,
      "componentType": 5125,
      "type": "SCALAR",
      "count": 234
    }
  ],
  "asset": {
    "generator": "goxel",
    "version": "2.0"
  },
  "bufferViews": [
    {
      "buffer": 0,
      "byteLength": 86240,
      "byteStride": 40
    },
    {
      "buffer": 1,
      "byteLength": 24792
    },
    {
      "buffer": 2,
      "byteLength": 4880,
      "byteStride": 40
    },
    {
      "buffer": 3,
      "byteLength": 936
    }
  ],
  "buffers": [
    {
      "uri": "data:application/octet-stream;base64,",
      "byteLength": 86240
    },
    {
      "uri": "data:application/octet-stream;base64,",
      "byteLength": 24792
    },
    {
      "uri": "data:application/octet-stream;base64,",
      "byteLength": 4880
    },
    {
      "uri": "data:application/octet-stream;base64,",
      "byteLength": 936
    }
  ],
  "meshes": [
    {
      "primitives": [
        {
          "indices": 3,
          "material": 1,
          "attributes": {
            "POSITION": 0,
            "NORMAL": 1,
            "COLOR_0": 2
          }
        }
      ]
    },
    {
      "primitives": [
        {
          "indices": 7,
          "material": 1,
          "attributes": {
            "POSITION": 4,
            "NORMAL": 5,
            "COLOR_0": 6
          }
        }
      ]
    }
  ],
  "materials": [
    {
      "name": "Material.1",
      "pbrMetallicRoughness": {
        "metallicFactor": 0.200000003,
        "roughnessFactor": 0.5
      }
    },
    {
      "name": "",
      "pbrMetallicRoughness": {
      }
    }
  ],
  "nodes": [
    {
      "children": [ 1, 2 ],
      "matrix": [1, 0, 0, 0, 0, 0, -1, 0, 0, 1, 0, 0, 0, 0, 0, 1]
    },
    {
      "mesh": 0,
      "name": "Fridge"
    },
    {
      "mesh": 1,
      "name": "Fridge.1"
    }
  ],
  "scenes": [
    {
      "nodes": [ 0 ]
    }
  ]
}
