{
  "accessors": [
    {
      "bufferView": 0,
      "componentType": 5126,
      "type": "VEC3",
      "count": 2599,
      "min": [0, 0, 0],
      "max": [15, 27, 16]
    },
    {
      "bufferView": 0,
      "componentType": 5126,
      "type": "VEC3",
      "byteOffset": 12,
      "count": 2599
    },
    {
      "bufferView": 0,
      "componentType": 5126,
      "type": "VEC4",
      "byteOffset": 24,
      "count": 2599
    },
    {
      "bufferView": 1,
      "componentType": 5125,
      "type": "SCALAR",
      "count": 11664
    },
    {
      "bufferView": 2,
      "componentType": 5126,
      "type": "VEC3",
      "count": 384,
      "min": [14, 1, 2],
      "max": [16, 13, 15]
    },
    {
      "bufferView": 2,
      "componentType": 5126,
      "type": "VEC3",
      "byteOffset": 12,
      "count": 384
    },
    {
      "bufferView": 2,
      "componentType": 5126,
      "type": "VEC4",
      "byteOffset": 24,
      "count": 384
    },
    {
      "bufferView": 3,
      "componentType": 5125,
      "type": "SCALAR",
      "count": 1326
    },
    {
      "bufferView": 4,
      "componentType": 5126,
      "type": "VEC3",
      "count": 379,
      "min": [14, 14, 2],
      "max": [16, 26, 15]
    },
    {
      "bufferView": 4,
      "componentType": 5126,
      "type": "VEC3",
      "byteOffset": 12,
      "count": 379
    },
    {
      "bufferView": 4,
      "componentType": 5126,
      "type": "VEC4",
      "byteOffset": 24,
      "count": 379
    },
    {
      "bufferView": 5,
      "componentType": 5125,
      "type": "SCALAR",
      "count": 1326
    },
    {
      "bufferView": 6,
      "componentType": 5126,
      "type": "VEC3",
      "count": 1792,
      "min": [1, 1, 3],
      "max": [14, 26, 19]
    },
    {
      "bufferView": 6,
      "componentType": 5126,
      "type": "VEC3",
      "byteOffset": 12,
      "count": 1792
    },
    {
      "bufferView": 6,
      "componentType": 5126,
      "type": "VEC4",
      "byteOffset": 24,
      "count": 1792
    },
    {
      "bufferView": 7,
      "componentType": 5125,
      "type": "SCALAR",
      "count": 5196
    }
  ],
  "asset": {
    "generator": "goxel",
    "version": "2.0"
  },
  "bufferViews": [
    {
      "buffer": 0,
      "byteLength": 103960,
      "byteStride": 40
    },
    {
      "buffer": 1,
      "byteLength": 46656
    },
    {
      "buffer": 2,
      "byteLength": 15360,
      "byteStride": 40
    },
    {
      "buffer": 3,
      "byteLength": 5304
    },
    {
      "buffer": 4,
      "byteLength": 15160,
      "byteStride": 40
    },
    {
      "buffer": 5,
      "byteLength": 5304
    },
    {
      "buffer": 6,
      "byteLength": 71680,
      "byteStride": 40
    },
    {
      "buffer": 7,
      "byteLength": 20784
    }
  ],
  "buffers": [
    {
      "uri": "data:application/octet-stream;base64,",
      "byteLength": 103960
    },
    {
      "uri": "data:application/octet-stream;base64,",
      "byteLength": 46656
    },
    {
      "uri": "data:application/octet-stream;base64,",
      "byteLength": 15360
    },
    {
      "uri": "data:application/octet-stream;base64,",
      "byteLength": 5304
    },
    {
      "uri": "data:application/octet-stream;base64,",
      "byteLength": 15160
    },
    {
      "uri": "data:application/octet-stream;base64,",
      "byteLength": 5304
    },
    {
      "uri": "data:application/octet-stream;base64,",
      "byteLength": 71680
    },
    {
      "uri": "data:application/octet-stream;base64,",
      "byteLength": 20784
    }
  ],
  "meshes": [
    {
      "primitives": [
        {
          "indices": 3,
          "material": 0,
          "attributes": {
            "POSITION": 0,
            "NORMAL": 1,
            "COLOR_0": 2
          }
        }
      ]
    },
    {
      "primitives": [
        {
          "indices": 7,
          "material": 0,
          "attributes": {
            "POSITION": 4,
            "NORMAL": 5,
            "COLOR_0": 6
          }
        }
      ]
    },
    {
      "primitives": [
        {
          "indices": 11,
          "material": 0,
          "attributes": {
            "POSITION": 8,
            "NORMAL": 9,
            "COLOR_0": 10
          }
        }
      ]
    },
    {
      "primitives": [
        {
          "indices": 15,
          "material": 0,
          "attributes": {
            "POSITION": 12,
            "NORMAL": 13,
            "COLOR_0": 14
          }
        }
      ]
    }
  ],
  "materials": [
    {
      "name": "Material.1",
      "pbrMetallicRoughness": {
        "metallicFactor": 0.200000003,
        "roughnessFactor": 0.5
      }
    }
  ],
  "nodes": [
    {
      "children": [ 1, 2, 3, 4 ],
      "matrix": [1, 0, 0, 0, 0, 0, -1, 0, 0, 1, 0, 0, 0, 0, 0, 1]
    },
    {
      "mesh": 0,
      "name": "Frame"
    },
    {
      "mesh": 1,
      "name": "DoorL"
    },
    {
      "mesh": 2,
      "name": "DoorR"
    },
    {
      "mesh": 3,
      "name": "Sink"
    }
  ],
  "scenes": [
    {
      "nodes": [ 0 ]
    }
  ]
}
