{
  "accessors": [
    {
      "bufferView": 0,
      "componentType": 5126,
      "type": "VEC3",
      "count": 520,
      "min": [0, 0, 0],
      "max": [30, 42, 1]
    },
    {
      "bufferView": 0,
      "componentType": 5126,
      "type": "VEC3",
      "byteOffset": 12,
      "count": 520
    },
    {
      "bufferView": 0,
      "componentType": 5126,
      "type": "VEC4",
      "byteOffset": 24,
      "count": 520
    },
    {
      "bufferView": 1,
      "componentType": 5125,
      "type": "SCALAR",
      "count": 1044
    }
  ],
  "asset": {
    "generator": "goxel",
    "version": "2.0"
  },
  "bufferViews": [
    {
      "buffer": 0,
      "byteLength": 20800,
      "byteStride": 40
    },
    {
      "buffer": 1,
      "byteLength": 4176
    }
  ],
  "buffers": [
    {
      "uri": "data:application/octet-stream;base64,",
      "byteLength": 20800
    },
    {
      "uri": "data:application/octet-stream;base64,",
      "byteLength": 4176
    }
  ],
  "meshes": [
    {
      "primitives": [
        {
          "indices": 3,
          "material": 2,
          "attributes": {
            "POSITION": 0,
            "NORMAL": 1,
            "COLOR_0": 2
          }
        }
      ]
    }
  ],
  "materials": [
    {
      "name": "solid",
      "pbrMetallicRoughness": {
        "metallicFactor": 0.100000001,
        "roughnessFactor": 0.699999988
      }
    },
    {
      "name": "trans",
      "pbrMetallicRoughness": {
        "metallicFactor": 0.899999976,
        "roughnessFactor": 0.400000006,
        "baseColorFactor": [1, 1, 1, 0.400000006]
      }
    },
    {
      "name": "Material.1",
      "pbrMetallicRoughness": {
        "metallicFactor": 0.200000003,
        "roughnessFactor": 0.5
      }
    }
  ],
  "nodes": [
    {
      "children": [ 1 ],
      "matrix": [1, 0, 0, 0, 0, 0, -1, 0, 0, 1, 0, 0, 0, 0, 0, 1]
    },
    {
      "mesh": 0,
      "name": "Layer.1"
    }
  ],
  "scenes": [
    {
      "nodes": [ 0 ]
    }
  ]
}
