{
  "accessors": [
    {
      "bufferView": 0,
      "componentType": 5126,
      "type": "VEC3",
      "count": 68,
      "min": [0, 66, -1],
      "max": [260, 130, 0]
    },
    {
      "bufferView": 0,
      "componentType": 5126,
      "type": "VEC3",
      "byteOffset": 12,
      "count": 68
    },
    {
      "bufferView": 0,
      "componentType": 5126,
      "type": "VEC4",
      "byteOffset": 24,
      "count": 68
    },
    {
      "bufferView": 1,
      "componentType": 5125,
      "type": "SCALAR",
      "count": 144
    },
    {
      "bufferView": 2,
      "componentType": 5126,
      "type": "VEC3",
      "count": 104,
      "min": [0, 68, 0],
      "max": [2, 130, 60]
    },
    {
      "bufferView": 2,
      "componentType": 5126,
      "type": "VEC3",
      "byteOffset": 12,
      "count": 104
    },
    {
      "bufferView": 2,
      "componentType": 5126,
      "type": "VEC4",
      "byteOffset": 24,
      "count": 104
    },
    {
      "bufferView": 3,
      "componentType": 5125,
      "type": "SCALAR",
      "count": 252
    },
    {
      "bufferView": 4,
      "componentType": 5126,
      "type": "VEC3",
      "count": 102,
      "min": [257, 68, 0],
      "max": [260, 130, 60]
    },
    {
      "bufferView": 4,
      "componentType": 5126,
      "type": "VEC3",
      "byteOffset": 12,
      "count": 102
    },
    {
      "bufferView": 4,
      "componentType": 5126,
      "type": "VEC4",
      "byteOffset": 24,
      "count": 102
    },
    {
      "bufferView": 5,
      "componentType": 5125,
      "type": "SCALAR",
      "count": 246
    },
    {
      "bufferView": 6,
      "componentType": 5126,
      "type": "VEC3",
      "count": 40,
      "min": [0, 66, 59],
      "max": [260, 130, 60]
    },
    {
      "bufferView": 6,
      "componentType": 5126,
      "type": "VEC3",
      "byteOffset": 12,
      "count": 40
    },
    {
      "bufferView": 6,
      "componentType": 5126,
      "type": "VEC4",
      "byteOffset": 24,
      "count": 40
    },
    {
      "bufferView": 7,
      "componentType": 5125,
      "type": "SCALAR",
      "count": 84
    },
    {
      "bufferView": 8,
      "componentType": 5126,
      "type": "VEC3",
      "count": 48,
      "min": [0, 66, 0],
      "max": [260, 68, 60]
    },
    {
      "bufferView": 8,
      "componentType": 5126,
      "type": "VEC3",
      "byteOffset": 12,
      "count": 48
    },
    {
      "bufferView": 8,
      "componentType": 5126,
      "type": "VEC4",
      "byteOffset": 24,
      "count": 48
    },
    {
      "bufferView": 9,
      "componentType": 5125,
      "type": "SCALAR",
      "count": 108
    }
  ],
  "asset": {
    "generator": "goxel",
    "version": "2.0"
  },
  "bufferViews": [
    {
      "buffer": 0,
      "byteLength": 2720,
      "byteStride": 40
    },
    {
      "buffer": 1,
      "byteLength": 576
    },
    {
      "buffer": 2,
      "byteLength": 4160,
      "byteStride": 40
    },
    {
      "buffer": 3,
      "byteLength": 1008
    },
    {
      "buffer": 4,
      "byteLength": 4080,
      "byteStride": 40
    },
    {
      "buffer": 5,
      "byteLength": 984
    },
    {
      "buffer": 6,
      "byteLength": 1600,
      "byteStride": 40
    },
    {
      "buffer": 7,
      "byteLength": 336
    },
    {
      "buffer": 8,
      "byteLength": 1920,
      "byteStride": 40
    },
    {
      "buffer": 9,
      "byteLength": 432
    }
  ],
  "buffers": [
    {
      "uri": "data:application/octet-stream;base64,",
      "byteLength": 2720
    },
    {
      "uri": "data:application/octet-stream;base64,",
      "byteLength": 576
    },
    {
      "uri": "data:application/octet-stream;base64,",
      "byteLength": 4160
    },
    {
      "uri": "data:application/octet-stream;base64,",
      "byteLength": 1008
    },
    {
      "uri": "data:application/octet-stream;base64,",
      "byteLength": 4080
    },
    {
      "uri": "data:application/octet-stream;base64,",
      "byteLength": 984
    },
    {
      "uri": "data:application/octet-stream;base64,",
      "byteLength": 1600
    },
    {
      "uri": "data:application/octet-stream;base64,",
      "byteLength": 336
    },
    {
      "uri": "data:application/octet-stream;base64,",
      "byteLength": 1920
    },
    {
      "uri": "data:application/octet-stream;base64,",
      "byteLength": 432
    }
  ],
  "meshes": [
    {
      "primitives": [
        {
          "indices": 3,
          "material": 0,
          "attributes": {
            "POSITION": 0,
            "NORMAL": 1,
            "COLOR_0": 2
          }
        }
      ]
    },
    {
      "primitives": [
        {
          "indices": 7,
          "material": 0,
          "attributes": {
            "POSITION": 4,
            "NORMAL": 5,
            "COLOR_0": 6
          }
        }
      ]
    },
    {
      "primitives": [
        {
          "indices": 11,
          "material": 0,
          "attributes": {
            "POSITION": 8,
            "NORMAL": 9,
            "COLOR_0": 10
          }
        }
      ]
    },
    {
      "primitives": [
        {
          "indices": 15,
          "material": 0,
          "attributes": {
            "POSITION": 12,
            "NORMAL": 13,
            "COLOR_0": 14
          }
        }
      ]
    },
    {
      "primitives": [
        {
          "indices": 19,
          "material": 0,
          "attributes": {
            "POSITION": 16,
            "NORMAL": 17,
            "COLOR_0": 18
          }
        }
      ]
    }
  ],
  "materials": [
    {
      "name": "Material.1",
      "pbrMetallicRoughness": {
        "metallicFactor": 0.200000003,
        "roughnessFactor": 0.5
      }
    },
    {
      "name": "Material.1",
      "pbrMetallicRoughness": {
        "metallicFactor": 0.200000003,
        "roughnessFactor": 0.5
      }
    },
    {
      "name": "Material.1",
      "pbrMetallicRoughness": {
        "metallicFactor": 0.200000003,
        "roughnessFactor": 0.5
      }
    },
    {
      "name": "Material.1",
      "pbrMetallicRoughness": {
        "metallicFactor": 0.200000003,
        "roughnessFactor": 0.5
      }
    },
    {
      "name": "Material.1",
      "pbrMetallicRoughness": {
        "metallicFactor": 0.200000003,
        "roughnessFactor": 0.5
      }
    },
    {
      "name": "Material.1",
      "pbrMetallicRoughness": {
        "metallicFactor": 0.200000003,
        "roughnessFactor": 0.5
      }
    }
  ],
  "nodes": [
    {
      "children": [ 1, 2, 3, 4, 5 ],
      "matrix": [1, 0, 0, 0, 0, 0, -1, 0, 0, 1, 0, 0, 0, 0, 0, 1]
    },
    {
      "mesh": 0,
      "name": "floor"
    },
    {
      "mesh": 1,
      "name": "wall3-back"
    },
    {
      "mesh": 2,
      "name": "Wall4-front"
    },
    {
      "mesh": 3,
      "name": "roof"
    },
    {
      "mesh": 4,
      "name": "wall2-north"
    }
  ],
  "scenes": [
    {
      "nodes": [ 0 ]
    }
  ]
}
