{
  "accessors": [
    {
      "bufferView": 0,
      "componentType": 5123,
      "type": "SCALAR",
      "count": 1824
    },
    {
      "bufferView": 1,
      "componentType": 5126,
      "type": "VEC3",
      "count": 1216,
      "min": [8, 0, 0],
      "max": [16, 2, 16]
    },
    {
      "bufferView": 1,
      "componentType": 5126,
      "type": "VEC3",
      "byteOffset": 12,
      "count": 1216
    },
    {
      "bufferView": 1,
      "componentType": 5121,
      "type": "VEC4",
      "normalized": true,
      "byteOffset": 24,
      "count": 1216
    },
    {
      "bufferView": 2,
      "componentType": 5123,
      "type": "SCALAR",
      "count": 3456
    },
    {
      "bufferView": 3,
      "componentType": 5126,
      "type": "VEC3",
      "count": 2304,
      "min": [0, 0, 0],
      "max": [16, 2, 16]
    },
    {
      "bufferView": 3,
      "componentType": 5126,
      "type": "VEC3",
      "byteOffset": 12,
      "count": 2304
    },
    {
      "bufferView": 3,
      "componentType": 5121,
      "type": "VEC4",
      "normalized": true,
      "byteOffset": 24,
      "count": 2304
    },
    {
      "bufferView": 4,
      "componentType": 5123,
      "type": "SCALAR",
      "count": 126
    },
    {
      "bufferView": 5,
      "componentType": 5126,
      "type": "VEC3",
      "count": 84,
      "min": [10, 14, 5],
      "max": [14, 16, 6]
    },
    {
      "bufferView": 5,
      "componentType": 5126,
      "type": "VEC3",
      "byteOffset": 12,
      "count": 84
    },
    {
      "bufferView": 5,
      "componentType": 5121,
      "type": "VEC4",
      "normalized": true,
      "byteOffset": 24,
      "count": 84
    },
    {
      "bufferView": 6,
      "componentType": 5123,
      "type": "SCALAR",
      "count": 1842
    },
    {
      "bufferView": 7,
      "componentType": 5126,
      "type": "VEC3",
      "count": 1228,
      "min": [8, 0, 0],
      "max": [16, 4, 16]
    },
    {
      "bufferView": 7,
      "componentType": 5126,
      "type": "VEC3",
      "byteOffset": 12,
      "count": 1228
    },
    {
      "bufferView": 7,
      "componentType": 5121,
      "type": "VEC4",
      "normalized": true,
      "byteOffset": 24,
      "count": 1228
    },
    {
      "bufferView": 8,
      "componentType": 5123,
      "type": "SCALAR",
      "count": 3264
    },
    {
      "bufferView": 9,
      "componentType": 5126,
      "type": "VEC3",
      "count": 2176,
      "min": [0, 0, 0],
      "max": [16, 2, 16]
    },
    {
      "bufferView": 9,
      "componentType": 5126,
      "type": "VEC3",
      "byteOffset": 12,
      "count": 2176
    },
    {
      "bufferView": 9,
      "componentType": 5121,
      "type": "VEC4",
      "normalized": true,
      "byteOffset": 24,
      "count": 2176
    },
    {
      "bufferView": 10,
      "componentType": 5123,
      "type": "SCALAR",
      "count": 960
    },
    {
      "bufferView": 11,
      "componentType": 5126,
      "type": "VEC3",
      "count": 640,
      "min": [8, 0, 0],
      "max": [16, 2, 8]
    },
    {
      "bufferView": 11,
      "componentType": 5126,
      "type": "VEC3",
      "byteOffset": 12,
      "count": 640
    },
    {
      "bufferView": 11,
      "componentType": 5121,
      "type": "VEC4",
      "normalized": true,
      "byteOffset": 24,
      "count": 640
    },
    {
      "bufferView": 12,
      "componentType": 5123,
      "type": "SCALAR",
      "count": 1824
    },
    {
      "bufferView": 13,
      "componentType": 5126,
      "type": "VEC3",
      "count": 1216,
      "min": [0, 0, 0],
      "max": [16, 2, 8]
    },
    {
      "bufferView": 13,
      "componentType": 5126,
      "type": "VEC3",
      "byteOffset": 12,
      "count": 1216
    },
    {
      "bufferView": 13,
      "componentType": 5121,
      "type": "VEC4",
      "normalized": true,
      "byteOffset": 24,
      "count": 1216
    }
  ],
  "asset": {
    "generator": "goxel",
    "version": "2.0"
  },
  "bufferViews": [
    {
      "buffer": 1,
      "byteLength": 3648
    },
    {
      "buffer": 0,
      "byteLength": 38912,
      "byteStride": 32
    },
    {
      "buffer": 3,
      "byteLength": 6912
    },
    {
      "buffer": 2,
      "byteLength": 73728,
      "byteStride": 32
    },
    {
      "buffer": 5,
      "byteLength": 252
    },
    {
      "buffer": 4,
      "byteLength": 2688,
      "byteStride": 32
    },
    {
      "buffer": 7,
      "byteLength": 3684
    },
    {
      "buffer": 6,
      "byteLength": 39296,
      "byteStride": 32
    },
    {
      "buffer": 9,
      "byteLength": 6528
    },
    {
      "buffer": 8,
      "byteLength": 69632,
      "byteStride": 32
    },
    {
      "buffer": 11,
      "byteLength": 1920
    },
    {
      "buffer": 10,
      "byteLength": 20480,
      "byteStride": 32
    },
    {
      "buffer": 13,
      "byteLength": 3648
    },
    {
      "buffer": 12,
      "byteLength": 38912,
      "byteStride": 32
    }
  ],
  "buffers": [
    {
      "uri": "data:application/octet-stream;base64,",
      "byteLength": 38912
    },
    {
      "uri": "data:application/octet-stream;base64,",
      "byteLength": 3648
    },
    {
      "uri": "data:application/octet-stream;base64,",
      "byteLength": 73728
    },
    {
      "uri": "data:application/octet-stream;base64,",
      "byteLength": 6912
    },
    {
      "uri": "data:application/octet-stream;base64,",
      "byteLength": 2688
    },
    {
      "uri": "data:application/octet-stream;base64,",
      "byteLength": 252
    },
    {
      "uri": "data:application/octet-stream;base64,",
      "byteLength": 39296
    },
    {
      "uri": "data:application/octet-stream;base64,",
      "byteLength": 3684
    },
    {
      "uri": "data:application/octet-stream;base64,",
      "byteLength": 69632
    },
    {
      "uri": "data:application/octet-stream;base64,",
      "byteLength": 6528
    },
    {
      "uri": "data:application/octet-stream;base64,",
      "byteLength": 20480
    },
    {
      "uri": "data:application/octet-stream;base64,",
      "byteLength": 1920
    },
    {
      "uri": "data:application/octet-stream;base64,",
      "byteLength": 38912
    },
    {
      "uri": "data:application/octet-stream;base64,",
      "byteLength": 3648
    }
  ],
  "meshes": [
    {
      "primitives": [
        {
          "indices": 0,
          "material": 0,
          "attributes": {
            "POSITION": 1,
            "NORMAL": 2,
            "COLOR_0": 3
          }
        }
      ]
    },
    {
      "primitives": [
        {
          "indices": 4,
          "material": 0,
          "attributes": {
            "POSITION": 5,
            "NORMAL": 6,
            "COLOR_0": 7
          }
        }
      ]
    },
    {
      "primitives": [
        {
          "indices": 8,
          "material": 0,
          "attributes": {
            "POSITION": 9,
            "NORMAL": 10,
            "COLOR_0": 11
          }
        }
      ]
    },
    {
      "primitives": [
        {
          "indices": 12,
          "material": 0,
          "attributes": {
            "POSITION": 13,
            "NORMAL": 14,
            "COLOR_0": 15
          }
        }
      ]
    },
    {
      "primitives": [
        {
          "indices": 16,
          "material": 0,
          "attributes": {
            "POSITION": 17,
            "NORMAL": 18,
            "COLOR_0": 19
          }
        }
      ]
    },
    {
      "primitives": [
        {
          "indices": 20,
          "material": 0,
          "attributes": {
            "POSITION": 21,
            "NORMAL": 22,
            "COLOR_0": 23
          }
        }
      ]
    },
    {
      "primitives": [
        {
          "indices": 24,
          "material": 0,
          "attributes": {
            "POSITION": 25,
            "NORMAL": 26,
            "COLOR_0": 27
          }
        }
      ]
    }
  ],
  "materials": [
    {
      "name": "Material.1",
      "pbrMetallicRoughness": {
        "metallicFactor": 0.200000003,
        "roughnessFactor": 0.5
      }
    }
  ],
  "nodes": [
    {
      "children": [ 8 ],
      "matrix": [1, 0, 0, 0, 0, 0, -1, 0, 0, 1, 0, 0, 0, 0, 0, 1]
    },
    {
      "mesh": 0,
      "translation": [-32, 0, 0]
    },
    {
      "mesh": 1,
      "translation": [-16, 0, 0]
    },
    {
      "mesh": 2,
      "translation": [-32, -16, 16]
    },
    {
      "mesh": 3,
      "translation": [-32, 0, 16]
    },
    {
      "mesh": 4,
      "translation": [-16, 0, 16]
    },
    {
      "mesh": 5,
      "translation": [-32, 0, 32]
    },
    {
      "mesh": 6,
      "translation": [-16, 0, 32]
    },
    {
      "children": [ 1, 2, 3, 4, 5, 6, 7 ]
    }
  ],
  "scenes": [
    {
      "nodes": [ 0 ]
    }
  ]
}
