{
  "accessors": [
    {
      "bufferView": 0,
      "componentType": 5123,
      "type": "SCALAR",
      "count": 1776
    },
    {
      "bufferView": 1,
      "componentType": 5126,
      "type": "VEC3",
      "count": 1184,
      "min": [3, 2, 1],
      "max": [10, 10, 10]
    },
    {
      "bufferView": 1,
      "componentType": 5126,
      "type": "VEC3",
      "byteOffset": 12,
      "count": 1184
    },
    {
      "bufferView": 1,
      "componentType": 5121,
      "type": "VEC4",
      "normalized": true,
      "byteOffset": 24,
      "count": 1184
    },
    {
      "bufferView": 2,
      "componentType": 5123,
      "type": "SCALAR",
      "count": 96
    },
    {
      "bufferView": 3,
      "componentType": 5126,
      "type": "VEC3",
      "count": 64,
      "min": [5, 5, 0],
      "max": [7, 7, 1]
    },
    {
      "bufferView": 3,
      "componentType": 5126,
      "type": "VEC3",
      "byteOffset": 12,
      "count": 64
    },
    {
      "bufferView": 3,
      "componentType": 5121,
      "type": "VEC4",
      "normalized": true,
      "byteOffset": 24,
      "count": 64
    },
    {
      "bufferView": 4,
      "componentType": 5123,
      "type": "SCALAR",
      "count": 1248
    },
    {
      "bufferView": 5,
      "componentType": 5126,
      "type": "VEC3",
      "count": 832,
      "min": [4, 3, 8],
      "max": [8, 9, 16]
    },
    {
      "bufferView": 5,
      "componentType": 5126,
      "type": "VEC3",
      "byteOffset": 12,
      "count": 832
    },
    {
      "bufferView": 5,
      "componentType": 5121,
      "type": "VEC4",
      "normalized": true,
      "byteOffset": 24,
      "count": 832
    },
    {
      "bufferView": 6,
      "componentType": 5123,
      "type": "SCALAR",
      "count": 348
    },
    {
      "bufferView": 7,
      "componentType": 5126,
      "type": "VEC3",
      "count": 232,
      "min": [5, 9, 6],
      "max": [7, 10, 15]
    },
    {
      "bufferView": 7,
      "componentType": 5126,
      "type": "VEC3",
      "byteOffset": 12,
      "count": 232
    },
    {
      "bufferView": 7,
      "componentType": 5121,
      "type": "VEC4",
      "normalized": true,
      "byteOffset": 24,
      "count": 232
    },
    {
      "bufferView": 8,
      "componentType": 5123,
      "type": "SCALAR",
      "count": 348
    },
    {
      "bufferView": 9,
      "componentType": 5126,
      "type": "VEC3",
      "count": 232,
      "min": [5, 2, 6],
      "max": [7, 3, 15]
    },
    {
      "bufferView": 9,
      "componentType": 5126,
      "type": "VEC3",
      "byteOffset": 12,
      "count": 232
    },
    {
      "bufferView": 9,
      "componentType": 5121,
      "type": "VEC4",
      "normalized": true,
      "byteOffset": 24,
      "count": 232
    },
    {
      "bufferView": 10,
      "componentType": 5123,
      "type": "SCALAR",
      "count": 1056
    },
    {
      "bufferView": 11,
      "componentType": 5126,
      "type": "VEC3",
      "count": 704,
      "min": [4, 3, 0],
      "max": [8, 9, 8]
    },
    {
      "bufferView": 11,
      "componentType": 5126,
      "type": "VEC3",
      "byteOffset": 12,
      "count": 704
    },
    {
      "bufferView": 11,
      "componentType": 5121,
      "type": "VEC4",
      "normalized": true,
      "byteOffset": 24,
      "count": 704
    },
    {
      "bufferView": 12,
      "componentType": 5123,
      "type": "SCALAR",
      "count": 384
    },
    {
      "bufferView": 13,
      "componentType": 5126,
      "type": "VEC3",
      "count": 256,
      "min": [5, 3, 14],
      "max": [9, 9, 16]
    },
    {
      "bufferView": 13,
      "componentType": 5126,
      "type": "VEC3",
      "byteOffset": 12,
      "count": 256
    },
    {
      "bufferView": 13,
      "componentType": 5121,
      "type": "VEC4",
      "normalized": true,
      "byteOffset": 24,
      "count": 256
    },
    {
      "bufferView": 14,
      "componentType": 5123,
      "type": "SCALAR",
      "count": 324
    },
    {
      "bufferView": 15,
      "componentType": 5126,
      "type": "VEC3",
      "count": 216,
      "min": [3, 2, 2],
      "max": [9, 4, 7]
    },
    {
      "bufferView": 15,
      "componentType": 5126,
      "type": "VEC3",
      "byteOffset": 12,
      "count": 216
    },
    {
      "bufferView": 15,
      "componentType": 5121,
      "type": "VEC4",
      "normalized": true,
      "byteOffset": 24,
      "count": 216
    }
  ],
  "asset": {
    "generator": "goxel",
    "version": "2.0"
  },
  "bufferViews": [
    {
      "buffer": 1,
      "byteLength": 3552
    },
    {
      "buffer": 0,
      "byteLength": 37888,
      "byteStride": 32
    },
    {
      "buffer": 3,
      "byteLength": 192
    },
    {
      "buffer": 2,
      "byteLength": 2048,
      "byteStride": 32
    },
    {
      "buffer": 5,
      "byteLength": 2496
    },
    {
      "buffer": 4,
      "byteLength": 26624,
      "byteStride": 32
    },
    {
      "buffer": 7,
      "byteLength": 696
    },
    {
      "buffer": 6,
      "byteLength": 7424,
      "byteStride": 32
    },
    {
      "buffer": 9,
      "byteLength": 696
    },
    {
      "buffer": 8,
      "byteLength": 7424,
      "byteStride": 32
    },
    {
      "buffer": 11,
      "byteLength": 2112
    },
    {
      "buffer": 10,
      "byteLength": 22528,
      "byteStride": 32
    },
    {
      "buffer": 13,
      "byteLength": 768
    },
    {
      "buffer": 12,
      "byteLength": 8192,
      "byteStride": 32
    },
    {
      "buffer": 15,
      "byteLength": 648
    },
    {
      "buffer": 14,
      "byteLength": 6912,
      "byteStride": 32
    }
  ],
  "buffers": [
    {
      "uri": "data:application/octet-stream;base64,",
      "byteLength": 37888
    },
    {
      "uri": "data:application/octet-stream;base64,",
      "byteLength": 3552
    },
    {
      "uri": "data:application/octet-stream;base64,",
      "byteLength": 2048
    },
    {
      "uri": "data:application/octet-stream;base64,",
      "byteLength": 192
    },
    {
      "uri": "data:application/octet-stream;base64,",
      "byteLength": 26624
    },
    {
      "uri": "data:application/octet-stream;base64,",
      "byteLength": 2496
    },
    {
      "uri": "data:application/octet-stream;base64,",
      "byteLength": 7424
    },
    {
      "uri": "data:application/octet-stream;base64,",
      "byteLength": 696
    },
    {
      "uri": "data:application/octet-stream;base64,",
      "byteLength": 7424
    },
    {
      "uri": "data:application/octet-stream;base64,",
      "byteLength": 696
    },
    {
      "uri": "data:application/octet-stream;base64,",
      "byteLength": 22528
    },
    {
      "uri": "data:application/octet-stream;base64,",
      "byteLength": 2112
    },
    {
      "uri": "data:application/octet-stream;base64,",
      "byteLength": 8192
    },
    {
      "uri": "data:application/octet-stream;base64,",
      "byteLength": 768
    },
    {
      "uri": "data:application/octet-stream;base64,",
      "byteLength": 6912
    },
    {
      "uri": "data:application/octet-stream;base64,",
      "byteLength": 648
    }
  ],
  "meshes": [
    {
      "primitives": [
        {
          "indices": 0,
          "material": 0,
          "attributes": {
            "POSITION": 1,
            "NORMAL": 2,
            "COLOR_0": 3
          }
        }
      ]
    },
    {
      "primitives": [
        {
          "indices": 4,
          "material": 0,
          "attributes": {
            "POSITION": 5,
            "NORMAL": 6,
            "COLOR_0": 7
          }
        }
      ]
    },
    {
      "primitives": [
        {
          "indices": 8,
          "material": 0,
          "attributes": {
            "POSITION": 9,
            "NORMAL": 10,
            "COLOR_0": 11
          }
        }
      ]
    },
    {
      "primitives": [
        {
          "indices": 12,
          "material": 0,
          "attributes": {
            "POSITION": 13,
            "NORMAL": 14,
            "COLOR_0": 15
          }
        }
      ]
    },
    {
      "primitives": [
        {
          "indices": 16,
          "material": 0,
          "attributes": {
            "POSITION": 17,
            "NORMAL": 18,
            "COLOR_0": 19
          }
        }
      ]
    },
    {
      "primitives": [
        {
          "indices": 20,
          "material": 0,
          "attributes": {
            "POSITION": 21,
            "NORMAL": 22,
            "COLOR_0": 23
          }
        }
      ]
    },
    {
      "primitives": [
        {
          "indices": 24,
          "material": 0,
          "attributes": {
            "POSITION": 25,
            "NORMAL": 26,
            "COLOR_0": 27
          }
        }
      ]
    },
    {
      "primitives": [
        {
          "indices": 28,
          "material": 0,
          "attributes": {
            "POSITION": 29,
            "NORMAL": 30,
            "COLOR_0": 31
          }
        }
      ]
    }
  ],
  "materials": [
    {
      "name": "Material.1",
      "pbrMetallicRoughness": {
        "metallicFactor": 0.200000003,
        "roughnessFactor": 0.5
      }
    }
  ],
  "nodes": [
    {
      "children": [ 2, 4, 6, 8, 10, 13, 15 ],
      "matrix": [1, 0, 0, 0, 0, 0, -1, 0, 0, 1, 0, 0, 0, 0, 0, 1]
    },
    {
      "mesh": 0,
      "translation": [0, 0, 16]
    },
    {
      "children": [ 1 ]
    },
    {
      "mesh": 1,
      "translation": [0, 0, 16]
    },
    {
      "children": [ 3 ]
    },
    {
      "mesh": 2,
      "translation": [0, 0, 0]
    },
    {
      "children": [ 5 ]
    },
    {
      "mesh": 3,
      "translation": [0, 0, 0]
    },
    {
      "children": [ 7 ]
    },
    {
      "mesh": 4,
      "translation": [0, 0, 0]
    },
    {
      "children": [ 9 ]
    },
    {
      "mesh": 5,
      "translation": [0, 0, 0]
    },
    {
      "mesh": 6,
      "translation": [0, 0, -16]
    },
    {
      "children": [ 11, 12 ]
    },
    {
      "mesh": 7,
      "translation": [0, 0, 0]
    },
    {
      "children": [ 14 ]
    }
  ],
  "scenes": [
    {
      "nodes": [ 0 ]
    }
  ]
}
