{
  "accessors": [
    {
      "bufferView": 0,
      "componentType": 5123,
      "type": "SCALAR",
      "count": 1632
    },
    {
      "bufferView": 1,
      "componentType": 5126,
      "type": "VEC3",
      "count": 1088,
      "min": [3, 2, 1],
      "max": [10, 10, 8]
    },
    {
      "bufferView": 1,
      "componentType": 5126,
      "type": "VEC3",
      "byteOffset": 12,
      "count": 1088
    },
    {
      "bufferView": 1,
      "componentType": 5121,
      "type": "VEC4",
      "normalized": true,
      "byteOffset": 24,
      "count": 1088
    },
    {
      "bufferView": 2,
      "componentType": 5123,
      "type": "SCALAR",
      "count": 96
    },
    {
      "bufferView": 3,
      "componentType": 5126,
      "type": "VEC3",
      "count": 64,
      "min": [5, 5, 0],
      "max": [7, 7, 1]
    },
    {
      "bufferView": 3,
      "componentType": 5126,
      "type": "VEC3",
      "byteOffset": 12,
      "count": 64
    },
    {
      "bufferView": 3,
      "componentType": 5121,
      "type": "VEC4",
      "normalized": true,
      "byteOffset": 24,
      "count": 64
    },
    {
      "bufferView": 4,
      "componentType": 5123,
      "type": "SCALAR",
      "count": 768
    },
    {
      "bufferView": 5,
      "componentType": 5126,
      "type": "VEC3",
      "count": 512,
      "min": [4, 3, 12],
      "max": [8, 9, 16]
    },
    {
      "bufferView": 5,
      "componentType": 5126,
      "type": "VEC3",
      "byteOffset": 12,
      "count": 512
    },
    {
      "bufferView": 5,
      "componentType": 5121,
      "type": "VEC4",
      "normalized": true,
      "byteOffset": 24,
      "count": 512
    },
    {
      "bufferView": 6,
      "componentType": 5123,
      "type": "SCALAR",
      "count": 168
    },
    {
      "bufferView": 7,
      "componentType": 5126,
      "type": "VEC3",
      "count": 112,
      "min": [5, 9, 7],
      "max": [7, 10, 11]
    },
    {
      "bufferView": 7,
      "componentType": 5126,
      "type": "VEC3",
      "byteOffset": 12,
      "count": 112
    },
    {
      "bufferView": 7,
      "componentType": 5121,
      "type": "VEC4",
      "normalized": true,
      "byteOffset": 24,
      "count": 112
    },
    {
      "bufferView": 8,
      "componentType": 5123,
      "type": "SCALAR",
      "count": 168
    },
    {
      "bufferView": 9,
      "componentType": 5126,
      "type": "VEC3",
      "count": 112,
      "min": [5, 2, 7],
      "max": [7, 3, 11]
    },
    {
      "bufferView": 9,
      "componentType": 5126,
      "type": "VEC3",
      "byteOffset": 12,
      "count": 112
    },
    {
      "bufferView": 9,
      "componentType": 5121,
      "type": "VEC4",
      "normalized": true,
      "byteOffset": 24,
      "count": 112
    },
    {
      "bufferView": 10,
      "componentType": 5123,
      "type": "SCALAR",
      "count": 624
    },
    {
      "bufferView": 11,
      "componentType": 5126,
      "type": "VEC3",
      "count": 416,
      "min": [4, 3, 5],
      "max": [8, 9, 8]
    },
    {
      "bufferView": 11,
      "componentType": 5126,
      "type": "VEC3",
      "byteOffset": 12,
      "count": 416
    },
    {
      "bufferView": 11,
      "componentType": 5121,
      "type": "VEC4",
      "normalized": true,
      "byteOffset": 24,
      "count": 416
    },
    {
      "bufferView": 12,
      "componentType": 5123,
      "type": "SCALAR",
      "count": 324
    },
    {
      "bufferView": 13,
      "componentType": 5126,
      "type": "VEC3",
      "count": 216,
      "min": [3, 2, 2],
      "max": [9, 4, 7]
    },
    {
      "bufferView": 13,
      "componentType": 5126,
      "type": "VEC3",
      "byteOffset": 12,
      "count": 216
    },
    {
      "bufferView": 13,
      "componentType": 5121,
      "type": "VEC4",
      "normalized": true,
      "byteOffset": 24,
      "count": 216
    },
    {
      "bufferView": 14,
      "componentType": 5123,
      "type": "SCALAR",
      "count": 168
    },
    {
      "bufferView": 15,
      "componentType": 5126,
      "type": "VEC3",
      "count": 112,
      "min": [5, 7, 14],
      "max": [9, 9, 15]
    },
    {
      "bufferView": 15,
      "componentType": 5126,
      "type": "VEC3",
      "byteOffset": 12,
      "count": 112
    },
    {
      "bufferView": 15,
      "componentType": 5121,
      "type": "VEC4",
      "normalized": true,
      "byteOffset": 24,
      "count": 112
    },
    {
      "bufferView": 16,
      "componentType": 5123,
      "type": "SCALAR",
      "count": 168
    },
    {
      "bufferView": 17,
      "componentType": 5126,
      "type": "VEC3",
      "count": 112,
      "min": [5, 3, 14],
      "max": [9, 5, 15]
    },
    {
      "bufferView": 17,
      "componentType": 5126,
      "type": "VEC3",
      "byteOffset": 12,
      "count": 112
    },
    {
      "bufferView": 17,
      "componentType": 5121,
      "type": "VEC4",
      "normalized": true,
      "byteOffset": 24,
      "count": 112
    },
    {
      "bufferView": 18,
      "componentType": 5123,
      "type": "SCALAR",
      "count": 120
    },
    {
      "bufferView": 19,
      "componentType": 5126,
      "type": "VEC3",
      "count": 80,
      "min": [5, 7, 0],
      "max": [7, 9, 2]
    },
    {
      "bufferView": 19,
      "componentType": 5126,
      "type": "VEC3",
      "byteOffset": 12,
      "count": 80
    },
    {
      "bufferView": 19,
      "componentType": 5121,
      "type": "VEC4",
      "normalized": true,
      "byteOffset": 24,
      "count": 80
    },
    {
      "bufferView": 20,
      "componentType": 5123,
      "type": "SCALAR",
      "count": 72
    },
    {
      "bufferView": 21,
      "componentType": 5126,
      "type": "VEC3",
      "count": 48,
      "min": [5, 7, 15],
      "max": [7, 9, 16]
    },
    {
      "bufferView": 21,
      "componentType": 5126,
      "type": "VEC3",
      "byteOffset": 12,
      "count": 48
    },
    {
      "bufferView": 21,
      "componentType": 5121,
      "type": "VEC4",
      "normalized": true,
      "byteOffset": 24,
      "count": 48
    },
    {
      "bufferView": 22,
      "componentType": 5123,
      "type": "SCALAR",
      "count": 120
    },
    {
      "bufferView": 23,
      "componentType": 5126,
      "type": "VEC3",
      "count": 80,
      "min": [5, 3, 0],
      "max": [7, 5, 2]
    },
    {
      "bufferView": 23,
      "componentType": 5126,
      "type": "VEC3",
      "byteOffset": 12,
      "count": 80
    },
    {
      "bufferView": 23,
      "componentType": 5121,
      "type": "VEC4",
      "normalized": true,
      "byteOffset": 24,
      "count": 80
    },
    {
      "bufferView": 24,
      "componentType": 5123,
      "type": "SCALAR",
      "count": 72
    },
    {
      "bufferView": 25,
      "componentType": 5126,
      "type": "VEC3",
      "count": 48,
      "min": [5, 3, 15],
      "max": [7, 5, 16]
    },
    {
      "bufferView": 25,
      "componentType": 5126,
      "type": "VEC3",
      "byteOffset": 12,
      "count": 48
    },
    {
      "bufferView": 25,
      "componentType": 5121,
      "type": "VEC4",
      "normalized": true,
      "byteOffset": 24,
      "count": 48
    },
    {
      "bufferView": 26,
      "componentType": 5123,
      "type": "SCALAR",
      "count": 192
    },
    {
      "bufferView": 27,
      "componentType": 5126,
      "type": "VEC3",
      "count": 128,
      "min": [5, 7, 2],
      "max": [7, 9, 5]
    },
    {
      "bufferView": 27,
      "componentType": 5126,
      "type": "VEC3",
      "byteOffset": 12,
      "count": 128
    },
    {
      "bufferView": 27,
      "componentType": 5121,
      "type": "VEC4",
      "normalized": true,
      "byteOffset": 24,
      "count": 128
    },
    {
      "bufferView": 28,
      "componentType": 5123,
      "type": "SCALAR",
      "count": 192
    },
    {
      "bufferView": 29,
      "componentType": 5126,
      "type": "VEC3",
      "count": 128,
      "min": [5, 3, 2],
      "max": [7, 5, 5]
    },
    {
      "bufferView": 29,
      "componentType": 5126,
      "type": "VEC3",
      "byteOffset": 12,
      "count": 128
    },
    {
      "bufferView": 29,
      "componentType": 5121,
      "type": "VEC4",
      "normalized": true,
      "byteOffset": 24,
      "count": 128
    },
    {
      "bufferView": 30,
      "componentType": 5123,
      "type": "SCALAR",
      "count": 60
    },
    {
      "bufferView": 31,
      "componentType": 5126,
      "type": "VEC3",
      "count": 40,
      "min": [5, 9, 6],
      "max": [7, 10, 7]
    },
    {
      "bufferView": 31,
      "componentType": 5126,
      "type": "VEC3",
      "byteOffset": 12,
      "count": 40
    },
    {
      "bufferView": 31,
      "componentType": 5121,
      "type": "VEC4",
      "normalized": true,
      "byteOffset": 24,
      "count": 40
    },
    {
      "bufferView": 32,
      "componentType": 5123,
      "type": "SCALAR",
      "count": 168
    },
    {
      "bufferView": 33,
      "componentType": 5126,
      "type": "VEC3",
      "count": 112,
      "min": [5, 9, 11],
      "max": [7, 10, 15]
    },
    {
      "bufferView": 33,
      "componentType": 5126,
      "type": "VEC3",
      "byteOffset": 12,
      "count": 112
    },
    {
      "bufferView": 33,
      "componentType": 5121,
      "type": "VEC4",
      "normalized": true,
      "byteOffset": 24,
      "count": 112
    },
    {
      "bufferView": 34,
      "componentType": 5123,
      "type": "SCALAR",
      "count": 60
    },
    {
      "bufferView": 35,
      "componentType": 5126,
      "type": "VEC3",
      "count": 40,
      "min": [5, 2, 6],
      "max": [7, 3, 7]
    },
    {
      "bufferView": 35,
      "componentType": 5126,
      "type": "VEC3",
      "byteOffset": 12,
      "count": 40
    },
    {
      "bufferView": 35,
      "componentType": 5121,
      "type": "VEC4",
      "normalized": true,
      "byteOffset": 24,
      "count": 40
    },
    {
      "bufferView": 36,
      "componentType": 5123,
      "type": "SCALAR",
      "count": 168
    },
    {
      "bufferView": 37,
      "componentType": 5126,
      "type": "VEC3",
      "count": 112,
      "min": [5, 2, 11],
      "max": [7, 3, 15]
    },
    {
      "bufferView": 37,
      "componentType": 5126,
      "type": "VEC3",
      "byteOffset": 12,
      "count": 112
    },
    {
      "bufferView": 37,
      "componentType": 5121,
      "type": "VEC4",
      "normalized": true,
      "byteOffset": 24,
      "count": 112
    },
    {
      "bufferView": 38,
      "componentType": 5123,
      "type": "SCALAR",
      "count": 804
    },
    {
      "bufferView": 39,
      "componentType": 5126,
      "type": "VEC3",
      "count": 536,
      "min": [4, 3, 8],
      "max": [8, 9, 13]
    },
    {
      "bufferView": 39,
      "componentType": 5126,
      "type": "VEC3",
      "byteOffset": 12,
      "count": 536
    },
    {
      "bufferView": 39,
      "componentType": 5121,
      "type": "VEC4",
      "normalized": true,
      "byteOffset": 24,
      "count": 536
    },
    {
      "bufferView": 40,
      "componentType": 5123,
      "type": "SCALAR",
      "count": 60
    },
    {
      "bufferView": 41,
      "componentType": 5126,
      "type": "VEC3",
      "count": 40,
      "min": [8, 5, 9],
      "max": [9, 7, 10]
    },
    {
      "bufferView": 41,
      "componentType": 5126,
      "type": "VEC3",
      "byteOffset": 12,
      "count": 40
    },
    {
      "bufferView": 41,
      "componentType": 5121,
      "type": "VEC4",
      "normalized": true,
      "byteOffset": 24,
      "count": 40
    },
    {
      "bufferView": 42,
      "componentType": 5123,
      "type": "SCALAR",
      "count": 336
    },
    {
      "bufferView": 43,
      "componentType": 5126,
      "type": "VEC3",
      "count": 224,
      "min": [4, 4, 8],
      "max": [9, 8, 9]
    },
    {
      "bufferView": 43,
      "componentType": 5126,
      "type": "VEC3",
      "byteOffset": 12,
      "count": 224
    },
    {
      "bufferView": 43,
      "componentType": 5121,
      "type": "VEC4",
      "normalized": true,
      "byteOffset": 24,
      "count": 224
    }
  ],
  "asset": {
    "generator": "goxel",
    "version": "2.0"
  },
  "bufferViews": [
    {
      "buffer": 1,
      "byteLength": 3264
    },
    {
      "buffer": 0,
      "byteLength": 34816,
      "byteStride": 32
    },
    {
      "buffer": 3,
      "byteLength": 192
    },
    {
      "buffer": 2,
      "byteLength": 2048,
      "byteStride": 32
    },
    {
      "buffer": 5,
      "byteLength": 1536
    },
    {
      "buffer": 4,
      "byteLength": 16384,
      "byteStride": 32
    },
    {
      "buffer": 7,
      "byteLength": 336
    },
    {
      "buffer": 6,
      "byteLength": 3584,
      "byteStride": 32
    },
    {
      "buffer": 9,
      "byteLength": 336
    },
    {
      "buffer": 8,
      "byteLength": 3584,
      "byteStride": 32
    },
    {
      "buffer": 11,
      "byteLength": 1248
    },
    {
      "buffer": 10,
      "byteLength": 13312,
      "byteStride": 32
    },
    {
      "buffer": 13,
      "byteLength": 648
    },
    {
      "buffer": 12,
      "byteLength": 6912,
      "byteStride": 32
    },
    {
      "buffer": 15,
      "byteLength": 336
    },
    {
      "buffer": 14,
      "byteLength": 3584,
      "byteStride": 32
    },
    {
      "buffer": 17,
      "byteLength": 336
    },
    {
      "buffer": 16,
      "byteLength": 3584,
      "byteStride": 32
    },
    {
      "buffer": 19,
      "byteLength": 240
    },
    {
      "buffer": 18,
      "byteLength": 2560,
      "byteStride": 32
    },
    {
      "buffer": 21,
      "byteLength": 144
    },
    {
      "buffer": 20,
      "byteLength": 1536,
      "byteStride": 32
    },
    {
      "buffer": 23,
      "byteLength": 240
    },
    {
      "buffer": 22,
      "byteLength": 2560,
      "byteStride": 32
    },
    {
      "buffer": 25,
      "byteLength": 144
    },
    {
      "buffer": 24,
      "byteLength": 1536,
      "byteStride": 32
    },
    {
      "buffer": 27,
      "byteLength": 384
    },
    {
      "buffer": 26,
      "byteLength": 4096,
      "byteStride": 32
    },
    {
      "buffer": 29,
      "byteLength": 384
    },
    {
      "buffer": 28,
      "byteLength": 4096,
      "byteStride": 32
    },
    {
      "buffer": 31,
      "byteLength": 120
    },
    {
      "buffer": 30,
      "byteLength": 1280,
      "byteStride": 32
    },
    {
      "buffer": 33,
      "byteLength": 336
    },
    {
      "buffer": 32,
      "byteLength": 3584,
      "byteStride": 32
    },
    {
      "buffer": 35,
      "byteLength": 120
    },
    {
      "buffer": 34,
      "byteLength": 1280,
      "byteStride": 32
    },
    {
      "buffer": 37,
      "byteLength": 336
    },
    {
      "buffer": 36,
      "byteLength": 3584,
      "byteStride": 32
    },
    {
      "buffer": 39,
      "byteLength": 1608
    },
    {
      "buffer": 38,
      "byteLength": 17152,
      "byteStride": 32
    },
    {
      "buffer": 41,
      "byteLength": 120
    },
    {
      "buffer": 40,
      "byteLength": 1280,
      "byteStride": 32
    },
    {
      "buffer": 43,
      "byteLength": 672
    },
    {
      "buffer": 42,
      "byteLength": 7168,
      "byteStride": 32
    }
  ],
  "buffers": [
    {
      "uri": "data:application/octet-stream;base64,",
      "byteLength": 34816
    },
    {
      "uri": "data:application/octet-stream;base64,",
      "byteLength": 3264
    },
    {
      "uri": "data:application/octet-stream;base64,",
      "byteLength": 2048
    },
    {
      "uri": "data:application/octet-stream;base64,",
      "byteLength": 192
    },
    {
      "uri": "data:application/octet-stream;base64,",
      "byteLength": 16384
    },
    {
      "uri": "data:application/octet-stream;base64,",
      "byteLength": 1536
    },
    {
      "uri": "data:application/octet-stream;base64,",
      "byteLength": 3584
    },
    {
      "uri": "data:application/octet-stream;base64,",
      "byteLength": 336
    },
    {
      "uri": "data:application/octet-stream;base64,",
      "byteLength": 3584
    },
    {
      "uri": "data:application/octet-stream;base64,",
      "byteLength": 336
    },
    {
      "uri": "data:application/octet-stream;base64,",
      "byteLength": 13312
    },
    {
      "uri": "data:application/octet-stream;base64,",
      "byteLength": 1248
    },
    {
      "uri": "data:application/octet-stream;base64,",
      "byteLength": 6912
    },
    {
      "uri": "data:application/octet-stream;base64,",
      "byteLength": 648
    },
    {
      "uri": "data:application/octet-stream;base64,",
      "byteLength": 3584
    },
    {
      "uri": "data:application/octet-stream;base64,",
      "byteLength": 336
    },
    {
      "uri": "data:application/octet-stream;base64,",
      "byteLength": 3584
    },
    {
      "uri": "data:application/octet-stream;base64,",
      "byteLength": 336
    },
    {
      "uri": "data:application/octet-stream;base64,",
      "byteLength": 2560
    },
    {
      "uri": "data:application/octet-stream;base64,",
      "byteLength": 240
    },
    {
      "uri": "data:application/octet-stream;base64,",
      "byteLength": 1536
    },
    {
      "uri": "data:application/octet-stream;base64,",
      "byteLength": 144
    },
    {
      "uri": "data:application/octet-stream;base64,",
      "byteLength": 2560
    },
    {
      "uri": "data:application/octet-stream;base64,",
      "byteLength": 240
    },
    {
      "uri": "data:application/octet-stream;base64,",
      "byteLength": 1536
    },
    {
      "uri": "data:application/octet-stream;base64,",
      "byteLength": 144
    },
    {
      "uri": "data:application/octet-stream;base64,",
      "byteLength": 4096
    },
    {
      "uri": "data:application/octet-stream;base64,",
      "byteLength": 384
    },
    {
      "uri": "data:application/octet-stream;base64,",
      "byteLength": 4096
    },
    {
      "uri": "data:application/octet-stream;base64,",
      "byteLength": 384
    },
    {
      "uri": "data:application/octet-stream;base64,",
      "byteLength": 1280
    },
    {
      "uri": "data:application/octet-stream;base64,",
      "byteLength": 120
    },
    {
      "uri": "data:application/octet-stream;base64,",
      "byteLength": 3584
    },
    {
      "uri": "data:application/octet-stream;base64,",
      "byteLength": 336
    },
    {
      "uri": "data:application/octet-stream;base64,",
      "byteLength": 1280
    },
    {
      "uri": "data:application/octet-stream;base64,",
      "byteLength": 120
    },
    {
      "uri": "data:application/octet-stream;base64,",
      "byteLength": 3584
    },
    {
      "uri": "data:application/octet-stream;base64,",
      "byteLength": 336
    },
    {
      "uri": "data:application/octet-stream;base64,",
      "byteLength": 17152
    },
    {
      "uri": "data:application/octet-stream;base64,",
      "byteLength": 1608
    },
    {
      "uri": "data:application/octet-stream;base64,",
      "byteLength": 1280
    },
    {
      "uri": "data:application/octet-stream;base64,",
      "byteLength": 120
    },
    {
      "uri": "data:application/octet-stream;base64,",
      "byteLength": 7168
    },
    {
      "uri": "data:application/octet-stream;base64,",
      "byteLength": 672
    }
  ],
  "meshes": [
    {
      "primitives": [
        {
          "indices": 0,
          "material": 0,
          "attributes": {
            "POSITION": 1,
            "NORMAL": 2,
            "COLOR_0": 3
          }
        }
      ]
    },
    {
      "primitives": [
        {
          "indices": 4,
          "material": 0,
          "attributes": {
            "POSITION": 5,
            "NORMAL": 6,
            "COLOR_0": 7
          }
        }
      ]
    },
    {
      "primitives": [
        {
          "indices": 8,
          "material": 0,
          "attributes": {
            "POSITION": 9,
            "NORMAL": 10,
            "COLOR_0": 11
          }
        }
      ]
    },
    {
      "primitives": [
        {
          "indices": 12,
          "material": 0,
          "attributes": {
            "POSITION": 13,
            "NORMAL": 14,
            "COLOR_0": 15
          }
        }
      ]
    },
    {
      "primitives": [
        {
          "indices": 16,
          "material": 0,
          "attributes": {
            "POSITION": 17,
            "NORMAL": 18,
            "COLOR_0": 19
          }
        }
      ]
    },
    {
      "primitives": [
        {
          "indices": 20,
          "material": 0,
          "attributes": {
            "POSITION": 21,
            "NORMAL": 22,
            "COLOR_0": 23
          }
        }
      ]
    },
    {
      "primitives": [
        {
          "indices": 24,
          "material": 0,
          "attributes": {
            "POSITION": 25,
            "NORMAL": 26,
            "COLOR_0": 27
          }
        }
      ]
    },
    {
      "primitives": [
        {
          "indices": 28,
          "material": 0,
          "attributes": {
            "POSITION": 29,
            "NORMAL": 30,
            "COLOR_0": 31
          }
        }
      ]
    },
    {
      "primitives": [
        {
          "indices": 32,
          "material": 0,
          "attributes": {
            "POSITION": 33,
            "NORMAL": 34,
            "COLOR_0": 35
          }
        }
      ]
    },
    {
      "primitives": [
        {
          "indices": 36,
          "material": 0,
          "attributes": {
            "POSITION": 37,
            "NORMAL": 38,
            "COLOR_0": 39
          }
        }
      ]
    },
    {
      "primitives": [
        {
          "indices": 40,
          "material": 0,
          "attributes": {
            "POSITION": 41,
            "NORMAL": 42,
            "COLOR_0": 43
          }
        }
      ]
    },
    {
      "primitives": [
        {
          "indices": 44,
          "material": 0,
          "attributes": {
            "POSITION": 45,
            "NORMAL": 46,
            "COLOR_0": 47
          }
        }
      ]
    },
    {
      "primitives": [
        {
          "indices": 48,
          "material": 0,
          "attributes": {
            "POSITION": 49,
            "NORMAL": 50,
            "COLOR_0": 51
          }
        }
      ]
    },
    {
      "primitives": [
        {
          "indices": 52,
          "material": 0,
          "attributes": {
            "POSITION": 53,
            "NORMAL": 54,
            "COLOR_0": 55
          }
        }
      ]
    },
    {
      "primitives": [
        {
          "indices": 56,
          "material": 0,
          "attributes": {
            "POSITION": 57,
            "NORMAL": 58,
            "COLOR_0": 59
          }
        }
      ]
    },
    {
      "primitives": [
        {
          "indices": 60,
          "material": 0,
          "attributes": {
            "POSITION": 61,
            "NORMAL": 62,
            "COLOR_0": 63
          }
        }
      ]
    },
    {
      "primitives": [
        {
          "indices": 64,
          "material": 0,
          "attributes": {
            "POSITION": 65,
            "NORMAL": 66,
            "COLOR_0": 67
          }
        }
      ]
    },
    {
      "primitives": [
        {
          "indices": 68,
          "material": 0,
          "attributes": {
            "POSITION": 69,
            "NORMAL": 70,
            "COLOR_0": 71
          }
        }
      ]
    },
    {
      "primitives": [
        {
          "indices": 72,
          "material": 0,
          "attributes": {
            "POSITION": 73,
            "NORMAL": 74,
            "COLOR_0": 75
          }
        }
      ]
    },
    {
      "primitives": [
        {
          "indices": 76,
          "material": 0,
          "attributes": {
            "POSITION": 77,
            "NORMAL": 78,
            "COLOR_0": 79
          }
        }
      ]
    },
    {
      "primitives": [
        {
          "indices": 80,
          "material": 0,
          "attributes": {
            "POSITION": 81,
            "NORMAL": 82,
            "COLOR_0": 83
          }
        }
      ]
    },
    {
      "primitives": [
        {
          "indices": 84,
          "material": 0,
          "attributes": {
            "POSITION": 85,
            "NORMAL": 86,
            "COLOR_0": 87
          }
        }
      ]
    }
  ],
  "materials": [
    {
      "name": "Material.1",
      "pbrMetallicRoughness": {
        "metallicFactor": 0.200000003,
        "roughnessFactor": 0.5
      }
    }
  ],
  "nodes": [
    {
      "children": [ 2, 4, 6, 8, 10, 12, 14, 16, 18, 21, 24, 26, 28, 30, 32, 34, 36, 38, 40, 42 ],
      "matrix": [1, 0, 0, 0, 0, 0, -1, 0, 0, 1, 0, 0, 0, 0, 0, 1]
    },
    {
      "mesh": 0,
      "translation": [0, 0, 16]
    },
    {
      "children": [ 1 ]
    },
    {
      "mesh": 1,
      "translation": [0, 0, 16]
    },
    {
      "children": [ 3 ]
    },
    {
      "mesh": 2,
      "translation": [0, 0, 0]
    },
    {
      "children": [ 5 ]
    },
    {
      "mesh": 3,
      "translation": [0, 0, 0]
    },
    {
      "children": [ 7 ]
    },
    {
      "mesh": 4,
      "translation": [0, 0, 0]
    },
    {
      "children": [ 9 ]
    },
    {
      "mesh": 5,
      "translation": [0, 0, 0]
    },
    {
      "children": [ 11 ]
    },
    {
      "mesh": 6,
      "translation": [0, 0, 0]
    },
    {
      "children": [ 13 ]
    },
    {
      "mesh": 7,
      "translation": [0, 0, -16]
    },
    {
      "children": [ 15 ]
    },
    {
      "mesh": 8,
      "translation": [0, 0, -16]
    },
    {
      "children": [ 17 ]
    },
    {
      "mesh": 9,
      "translation": [0, 0, 0]
    },
    {
      "mesh": 10,
      "translation": [0, 0, -16]
    },
    {
      "children": [ 19, 20 ]
    },
    {
      "mesh": 11,
      "translation": [0, 0, 0]
    },
    {
      "mesh": 12,
      "translation": [0, 0, -16]
    },
    {
      "children": [ 22, 23 ]
    },
    {
      "mesh": 13,
      "translation": [0, 0, 0]
    },
    {
      "children": [ 25 ]
    },
    {
      "mesh": 14,
      "translation": [0, 0, 0]
    },
    {
      "children": [ 27 ]
    },
    {
      "mesh": 15,
      "translation": [0, 0, 0]
    },
    {
      "children": [ 29 ]
    },
    {
      "mesh": 16,
      "translation": [0, 0, 0]
    },
    {
      "children": [ 31 ]
    },
    {
      "mesh": 17,
      "translation": [0, 0, 0]
    },
    {
      "children": [ 33 ]
    },
    {
      "mesh": 18,
      "translation": [0, 0, 0]
    },
    {
      "children": [ 35 ]
    },
    {
      "mesh": 19,
      "translation": [0, 0, 0]
    },
    {
      "children": [ 37 ]
    },
    {
      "mesh": 20,
      "translation": [0, 0, 16]
    },
    {
      "children": [ 39 ]
    },
    {
      "mesh": 21,
      "translation": [0, 0, 16]
    },
    {
      "children": [ 41 ]
    }
  ],
  "scenes": [
    {
      "nodes": [ 0 ]
    }
  ]
}
