{
  "accessors": [
    {
      "bufferView": 0,
      "componentType": 5126,
      "type": "VEC3",
      "count": 148,
      "min": [0, 0, 0],
      "max": [20, 80, 36]
    },
    {
      "bufferView": 0,
      "componentType": 5126,
      "type": "VEC3",
      "byteOffset": 12,
      "count": 148
    },
    {
      "bufferView": 0,
      "componentType": 5126,
      "type": "VEC4",
      "byteOffset": 24,
      "count": 148
    },
    {
      "bufferView": 1,
      "componentType": 5125,
      "type": "SCALAR",
      "count": 366
    },
    {
      "bufferView": 2,
      "componentType": 5126,
      "type": "VEC3",
      "count": 346,
      "min": [20, 3, 3],
      "max": [21, 23, 23]
    },
    {
      "bufferView": 2,
      "componentType": 5126,
      "type": "VEC3",
      "byteOffset": 12,
      "count": 346
    },
    {
      "bufferView": 2,
      "componentType": 5126,
      "type": "VEC4",
      "byteOffset": 24,
      "count": 346
    },
    {
      "bufferView": 3,
      "componentType": 5125,
      "type": "SCALAR",
      "count": 762
    },
    {
      "bufferView": 4,
      "componentType": 5126,
      "type": "VEC3",
      "count": 344,
      "min": [20, 57, 3],
      "max": [21, 77, 23]
    },
    {
      "bufferView": 4,
      "componentType": 5126,
      "type": "VEC3",
      "byteOffset": 12,
      "count": 344
    },
    {
      "bufferView": 4,
      "componentType": 5126,
      "type": "VEC4",
      "byteOffset": 24,
      "count": 344
    },
    {
      "bufferView": 5,
      "componentType": 5125,
      "type": "SCALAR",
      "count": 756
    },
    {
      "bufferView": 6,
      "componentType": 5126,
      "type": "VEC3",
      "count": 368,
      "min": [14, 28, 6],
      "max": [20, 52, 21]
    },
    {
      "bufferView": 6,
      "componentType": 5126,
      "type": "VEC3",
      "byteOffset": 12,
      "count": 368
    },
    {
      "bufferView": 6,
      "componentType": 5126,
      "type": "VEC4",
      "byteOffset": 24,
      "count": 368
    },
    {
      "bufferView": 7,
      "componentType": 5125,
      "type": "SCALAR",
      "count": 888
    }
  ],
  "asset": {
    "generator": "goxel",
    "version": "2.0"
  },
  "bufferViews": [
    {
      "buffer": 0,
      "byteLength": 5920,
      "byteStride": 40
    },
    {
      "buffer": 1,
      "byteLength": 1464
    },
    {
      "buffer": 2,
      "byteLength": 13840,
      "byteStride": 40
    },
    {
      "buffer": 3,
      "byteLength": 3048
    },
    {
      "buffer": 4,
      "byteLength": 13760,
      "byteStride": 40
    },
    {
      "buffer": 5,
      "byteLength": 3024
    },
    {
      "buffer": 6,
      "byteLength": 14720,
      "byteStride": 40
    },
    {
      "buffer": 7,
      "byteLength": 3552
    }
  ],
  "buffers": [
    {
      "uri": "data:application/octet-stream;base64,",
      "byteLength": 5920
    },
    {
      "uri": "data:application/octet-stream;base64,",
      "byteLength": 1464
    },
    {
      "uri": "data:application/octet-stream;base64,",
      "byteLength": 13840
    },
    {
      "uri": "data:application/octet-stream;base64,",
      "byteLength": 3048
    },
    {
      "uri": "data:application/octet-stream;base64,",
      "byteLength": 13760
    },
    {
      "uri": "data:application/octet-stream;base64,",
      "byteLength": 3024
    },
    {
      "uri": "data:application/octet-stream;base64,",
      "byteLength": 14720
    },
    {
      "uri": "data:application/octet-stream;base64,",
      "byteLength": 3552
    }
  ],
  "meshes": [
    {
      "primitives": [
        {
          "indices": 3,
          "material": 0,
          "attributes": {
            "POSITION": 0,
            "NORMAL": 1,
            "COLOR_0": 2
          }
        }
      ]
    },
    {
      "primitives": [
        {
          "indices": 7,
          "material": 0,
          "attributes": {
            "POSITION": 4,
            "NORMAL": 5,
            "COLOR_0": 6
          }
        }
      ]
    },
    {
      "primitives": [
        {
          "indices": 11,
          "material": 0,
          "attributes": {
            "POSITION": 8,
            "NORMAL": 9,
            "COLOR_0": 10
          }
        }
      ]
    },
    {
      "primitives": [
        {
          "indices": 15,
          "material": 0,
          "attributes": {
            "POSITION": 12,
            "NORMAL": 13,
            "COLOR_0": 14
          }
        }
      ]
    }
  ],
  "materials": [
    {
      "name": "Material.1",
      "pbrMetallicRoughness": {
        "metallicFactor": 0.200000003,
        "roughnessFactor": 0.5
      }
    }
  ],
  "nodes": [
    {
      "children": [ 1, 2, 3, 4 ],
      "matrix": [1, 0, 0, 0, 0, 0, -1, 0, 0, 1, 0, 0, 0, 0, 0, 1]
    },
    {
      "mesh": 0,
      "name": "base"
    },
    {
      "mesh": 1,
      "name": "left speaker"
    },
    {
      "mesh": 2,
      "name": "right speaker"
    },
    {
      "mesh": 3,
      "name": "door"
    }
  ],
  "scenes": [
    {
      "nodes": [ 0 ]
    }
  ]
}
