{
  "accessors": [
    {
      "bufferView": 0,
      "componentType": 5126,
      "type": "VEC3",
      "count": 230,
      "min": [2, 1, 21],
      "max": [10, 10, 28]
    },
    {
      "bufferView": 0,
      "componentType": 5126,
      "type": "VEC3",
      "byteOffset": 12,
      "count": 230
    },
    {
      "bufferView": 0,
      "componentType": 5126,
      "type": "VEC4",
      "byteOffset": 24,
      "count": 230
    },
    {
      "bufferView": 1,
      "componentType": 5125,
      "type": "SCALAR",
      "count": 588
    },
    {
      "bufferView": 2,
      "componentType": 5126,
      "type": "VEC3",
      "count": 55,
      "min": [4, 2, 9],
      "max": [6, 9, 12]
    },
    {
      "bufferView": 2,
      "componentType": 5126,
      "type": "VEC3",
      "byteOffset": 12,
      "count": 55
    },
    {
      "bufferView": 2,
      "componentType": 5126,
      "type": "VEC4",
      "byteOffset": 24,
      "count": 55
    },
    {
      "bufferView": 3,
      "componentType": 5125,
      "type": "SCALAR",
      "count": 144
    },
    {
      "bufferView": 4,
      "componentType": 5126,
      "type": "VEC3",
      "count": 216,
      "min": [4, 2, 0],
      "max": [9, 9, 9]
    },
    {
      "bufferView": 4,
      "componentType": 5126,
      "type": "VEC3",
      "byteOffset": 12,
      "count": 216
    },
    {
      "bufferView": 4,
      "componentType": 5126,
      "type": "VEC4",
      "byteOffset": 24,
      "count": 216
    },
    {
      "bufferView": 5,
      "componentType": 5125,
      "type": "SCALAR",
      "count": 468
    },
    {
      "bufferView": 6,
      "componentType": 5126,
      "type": "VEC3",
      "count": 166,
      "min": [4, 1, 9],
      "max": [6, 10, 19]
    },
    {
      "bufferView": 6,
      "componentType": 5126,
      "type": "VEC3",
      "byteOffset": 12,
      "count": 166
    },
    {
      "bufferView": 6,
      "componentType": 5126,
      "type": "VEC4",
      "byteOffset": 24,
      "count": 166
    },
    {
      "bufferView": 7,
      "componentType": 5125,
      "type": "SCALAR",
      "count": 330
    },
    {
      "bufferView": 8,
      "componentType": 5126,
      "type": "VEC3",
      "count": 151,
      "min": [4, 2, 12],
      "max": [7, 9, 21]
    },
    {
      "bufferView": 8,
      "componentType": 5126,
      "type": "VEC3",
      "byteOffset": 12,
      "count": 151
    },
    {
      "bufferView": 8,
      "componentType": 5126,
      "type": "VEC4",
      "byteOffset": 24,
      "count": 151
    },
    {
      "bufferView": 9,
      "componentType": 5125,
      "type": "SCALAR",
      "count": 354
    }
  ],
  "asset": {
    "generator": "goxel",
    "version": "2.0"
  },
  "bufferViews": [
    {
      "buffer": 0,
      "byteLength": 9200,
      "byteStride": 40
    },
    {
      "buffer": 1,
      "byteLength": 2352
    },
    {
      "buffer": 2,
      "byteLength": 2200,
      "byteStride": 40
    },
    {
      "buffer": 3,
      "byteLength": 576
    },
    {
      "buffer": 4,
      "byteLength": 8640,
      "byteStride": 40
    },
    {
      "buffer": 5,
      "byteLength": 1872
    },
    {
      "buffer": 6,
      "byteLength": 6640,
      "byteStride": 40
    },
    {
      "buffer": 7,
      "byteLength": 1320
    },
    {
      "buffer": 8,
      "byteLength": 6040,
      "byteStride": 40
    },
    {
      "buffer": 9,
      "byteLength": 1416
    }
  ],
  "buffers": [
    {
      "uri": "data:application/octet-stream;base64,",
      "byteLength": 9200
    },
    {
      "uri": "data:application/octet-stream;base64,",
      "byteLength": 2352
    },
    {
      "uri": "data:application/octet-stream;base64,",
      "byteLength": 2200
    },
    {
      "uri": "data:application/octet-stream;base64,",
      "byteLength": 576
    },
    {
      "uri": "data:application/octet-stream;base64,",
      "byteLength": 8640
    },
    {
      "uri": "data:application/octet-stream;base64,",
      "byteLength": 1872
    },
    {
      "uri": "data:application/octet-stream;base64,",
      "byteLength": 6640
    },
    {
      "uri": "data:application/octet-stream;base64,",
      "byteLength": 1320
    },
    {
      "uri": "data:application/octet-stream;base64,",
      "byteLength": 6040
    },
    {
      "uri": "data:application/octet-stream;base64,",
      "byteLength": 1416
    }
  ],
  "meshes": [
    {
      "primitives": [
        {
          "indices": 3,
          "material": 0,
          "attributes": {
            "POSITION": 0,
            "NORMAL": 1,
            "COLOR_0": 2
          }
        }
      ]
    },
    {
      "primitives": [
        {
          "indices": 7,
          "material": 0,
          "attributes": {
            "POSITION": 4,
            "NORMAL": 5,
            "COLOR_0": 6
          }
        }
      ]
    },
    {
      "primitives": [
        {
          "indices": 11,
          "material": 0,
          "attributes": {
            "POSITION": 8,
            "NORMAL": 9,
            "COLOR_0": 10
          }
        }
      ]
    },
    {
      "primitives": [
        {
          "indices": 15,
          "material": 0,
          "attributes": {
            "POSITION": 12,
            "NORMAL": 13,
            "COLOR_0": 14
          }
        }
      ]
    },
    {
      "primitives": [
        {
          "indices": 19,
          "material": 0,
          "attributes": {
            "POSITION": 16,
            "NORMAL": 17,
            "COLOR_0": 18
          }
        }
      ]
    }
  ],
  "materials": [
    {
      "name": "Material.1",
      "pbrMetallicRoughness": {
        "metallicFactor": 0.200000003,
        "roughnessFactor": 0.5
      }
    }
  ],
  "nodes": [
    {
      "children": [ 1, 2, 3, 4, 5 ],
      "matrix": [1, 0, 0, 0, 0, 0, -1, 0, 0, 1, 0, 0, 0, 0, 0, 1]
    },
    {
      "mesh": 0,
      "name": "Head"
    },
    {
      "mesh": 1,
      "name": "Pelvis"
    },
    {
      "mesh": 2,
      "name": "Leg"
    },
    {
      "mesh": 3,
      "name": "Arm"
    },
    {
      "mesh": 4,
      "name": "Torso"
    }
  ],
  "scenes": [
    {
      "nodes": [ 0 ]
    }
  ]
}
