{
  "accessors": [
    {
      "bufferView": 0,
      "componentType": 5126,
      "type": "VEC3",
      "count": 48,
      "min": [2, 2, 0],
      "max": [4, 4, 13]
    },
    {
      "bufferView": 0,
      "componentType": 5126,
      "type": "VEC3",
      "byteOffset": 12,
      "count": 48
    },
    {
      "bufferView": 0,
      "componentType": 5126,
      "type": "VEC4",
      "byteOffset": 24,
      "count": 48
    },
    {
      "bufferView": 1,
      "componentType": 5125,
      "type": "SCALAR",
      "count": 108
    },
    {
      "bufferView": 2,
      "componentType": 5126,
      "type": "VEC3",
      "count": 192,
      "min": [0, 0, 13],
      "max": [18, 28, 14]
    },
    {
      "bufferView": 2,
      "componentType": 5126,
      "type": "VEC3",
      "byteOffset": 12,
      "count": 192
    },
    {
      "bufferView": 2,
      "componentType": 5126,
      "type": "VEC4",
      "byteOffset": 24,
      "count": 192
    },
    {
      "bufferView": 3,
      "componentType": 5125,
      "type": "SCALAR",
      "count": 660
    },
    {
      "bufferView": 4,
      "componentType": 5126,
      "type": "VEC3",
      "count": 388,
      "min": [2, 2, 9],
      "max": [16, 26, 13]
    },
    {
      "bufferView": 4,
      "componentType": 5126,
      "type": "VEC3",
      "byteOffset": 12,
      "count": 388
    },
    {
      "bufferView": 4,
      "componentType": 5126,
      "type": "VEC4",
      "byteOffset": 24,
      "count": 388
    },
    {
      "bufferView": 5,
      "componentType": 5125,
      "type": "SCALAR",
      "count": 900
    },
    {
      "bufferView": 6,
      "componentType": 5126,
      "type": "VEC3",
      "count": 48,
      "min": [14, 2, 0],
      "max": [16, 4, 13]
    },
    {
      "bufferView": 6,
      "componentType": 5126,
      "type": "VEC3",
      "byteOffset": 12,
      "count": 48
    },
    {
      "bufferView": 6,
      "componentType": 5126,
      "type": "VEC4",
      "byteOffset": 24,
      "count": 48
    },
    {
      "bufferView": 7,
      "componentType": 5125,
      "type": "SCALAR",
      "count": 108
    },
    {
      "bufferView": 8,
      "componentType": 5126,
      "type": "VEC3",
      "count": 48,
      "min": [14, 24, 0],
      "max": [16, 26, 13]
    },
    {
      "bufferView": 8,
      "componentType": 5126,
      "type": "VEC3",
      "byteOffset": 12,
      "count": 48
    },
    {
      "bufferView": 8,
      "componentType": 5126,
      "type": "VEC4",
      "byteOffset": 24,
      "count": 48
    },
    {
      "bufferView": 9,
      "componentType": 5125,
      "type": "SCALAR",
      "count": 108
    },
    {
      "bufferView": 10,
      "componentType": 5126,
      "type": "VEC3",
      "count": 48,
      "min": [2, 24, 0],
      "max": [4, 26, 13]
    },
    {
      "bufferView": 10,
      "componentType": 5126,
      "type": "VEC3",
      "byteOffset": 12,
      "count": 48
    },
    {
      "bufferView": 10,
      "componentType": 5126,
      "type": "VEC4",
      "byteOffset": 24,
      "count": 48
    },
    {
      "bufferView": 11,
      "componentType": 5125,
      "type": "SCALAR",
      "count": 108
    }
  ],
  "asset": {
    "generator": "goxel",
    "version": "2.0"
  },
  "bufferViews": [
    {
      "buffer": 0,
      "byteLength": 1920,
      "byteStride": 40
    },
    {
      "buffer": 1,
      "byteLength": 432
    },
    {
      "buffer": 2,
      "byteLength": 7680,
      "byteStride": 40
    },
    {
      "buffer": 3,
      "byteLength": 2640
    },
    {
      "buffer": 4,
      "byteLength": 15520,
      "byteStride": 40
    },
    {
      "buffer": 5,
      "byteLength": 3600
    },
    {
      "buffer": 6,
      "byteLength": 1920,
      "byteStride": 40
    },
    {
      "buffer": 7,
      "byteLength": 432
    },
    {
      "buffer": 8,
      "byteLength": 1920,
      "byteStride": 40
    },
    {
      "buffer": 9,
      "byteLength": 432
    },
    {
      "buffer": 10,
      "byteLength": 1920,
      "byteStride": 40
    },
    {
      "buffer": 11,
      "byteLength": 432
    }
  ],
  "buffers": [
    {
      "uri": "data:application/octet-stream;base64,",
      "byteLength": 1920
    },
    {
      "uri": "data:application/octet-stream;base64,",
      "byteLength": 432
    },
    {
      "uri": "data:application/octet-stream;base64,",
      "byteLength": 7680
    },
    {
      "uri": "data:application/octet-stream;base64,",
      "byteLength": 2640
    },
    {
      "uri": "data:application/octet-stream;base64,",
      "byteLength": 15520
    },
    {
      "uri": "data:application/octet-stream;base64,",
      "byteLength": 3600
    },
    {
      "uri": "data:application/octet-stream;base64,",
      "byteLength": 1920
    },
    {
      "uri": "data:application/octet-stream;base64,",
      "byteLength": 432
    },
    {
      "uri": "data:application/octet-stream;base64,",
      "byteLength": 1920
    },
    {
      "uri": "data:application/octet-stream;base64,",
      "byteLength": 432
    },
    {
      "uri": "data:application/octet-stream;base64,",
      "byteLength": 1920
    },
    {
      "uri": "data:application/octet-stream;base64,",
      "byteLength": 432
    }
  ],
  "meshes": [
    {
      "primitives": [
        {
          "indices": 3,
          "material": 0,
          "attributes": {
            "POSITION": 0,
            "NORMAL": 1,
            "COLOR_0": 2
          }
        }
      ]
    },
    {
      "primitives": [
        {
          "indices": 7,
          "material": 0,
          "attributes": {
            "POSITION": 4,
            "NORMAL": 5,
            "COLOR_0": 6
          }
        }
      ]
    },
    {
      "primitives": [
        {
          "indices": 11,
          "material": 0,
          "attributes": {
            "POSITION": 8,
            "NORMAL": 9,
            "COLOR_0": 10
          }
        }
      ]
    },
    {
      "primitives": [
        {
          "indices": 15,
          "material": 0,
          "attributes": {
            "POSITION": 12,
            "NORMAL": 13,
            "COLOR_0": 14
          }
        }
      ]
    },
    {
      "primitives": [
        {
          "indices": 19,
          "material": 0,
          "attributes": {
            "POSITION": 16,
            "NORMAL": 17,
            "COLOR_0": 18
          }
        }
      ]
    },
    {
      "primitives": [
        {
          "indices": 23,
          "material": 0,
          "attributes": {
            "POSITION": 20,
            "NORMAL": 21,
            "COLOR_0": 22
          }
        }
      ]
    }
  ],
  "materials": [
    {
      "name": "Material.1",
      "pbrMetallicRoughness": {
        "metallicFactor": 0.200000003,
        "roughnessFactor": 0.5
      }
    },
    {
      "name": "Material.1",
      "pbrMetallicRoughness": {
        "metallicFactor": 0.200000003,
        "roughnessFactor": 0.5
      }
    }
  ],
  "nodes": [
    {
      "children": [ 1, 2, 3, 4, 5, 6 ],
      "matrix": [1, 0, 0, 0, 0, 0, -1, 0, 0, 1, 0, 0, 0, 0, 0, 1]
    },
    {
      "mesh": 0,
      "name": "leg"
    },
    {
      "mesh": 1,
      "name": "top"
    },
    {
      "mesh": 2,
      "name": "Layer.2"
    },
    {
      "mesh": 3,
      "name": "leg.1"
    },
    {
      "mesh": 4,
      "name": "leg.2"
    },
    {
      "mesh": 5,
      "name": "leg.3"
    }
  ],
  "scenes": [
    {
      "nodes": [ 0 ]
    }
  ]
}
